<svg xmlns="http://www.w3.org/2000/svg" width="295.753" height="53.165" viewBox="0 0 295.753 53.165"><defs><style>.a{fill:#fff;}.b{fill:#edeeef;}</style></defs><g transform="translate(147.876 26.583)"><g transform="translate(-147.876 -26.583)"><g transform="translate(121.85)"><path class="a" d="M147.455.5l7.514,20.459h-5.432l-1-3.259h-7.514l-1,3.259H134.6L142.114.5Zm-2.716,4.888-.815,3.168c-.453,1.539-1.177,3.983-1.72,5.432h5.16Z" transform="translate(-134.6 -0.047)"/><path class="a" d="M162.745,8.011A6.971,6.971,0,0,1,167.091,6.2v3.983l-1.448.272c-2.173.362-2.806.724-2.806,2.625v8.51H158.4V6.381h4.345Z" transform="translate(-136.854 -0.587)"/><path class="a" d="M169.7.5h4.436V3.94H169.7Zm0,5.341h4.436V20.959H169.7Z" transform="translate(-137.925 -0.047)"/><path class="a" d="M177.505,6.4h12.945V9.84l-8.057,8.238h8.057v3.44H176.6v-3.35l8.147-8.329h-7.333Z" transform="translate(-138.578 -0.606)"/><path class="a" d="M208.995,13.963c0,3.8-2.173,8.057-8.147,8.057-4.255,0-8.147-2.444-8.147-8.057S195.6,5.635,201.391,6A7.865,7.865,0,0,1,208.995,13.963Zm-11.044-2.987a5.522,5.522,0,0,0-.724,2.987c0,2.444,1.177,4.526,3.621,4.526s3.621-1.9,3.621-4.345a5.16,5.16,0,0,0-1.267-3.8,3.259,3.259,0,0,0-2.625-.815,2.987,2.987,0,0,0-2.535,1.448Z" transform="translate(-140.104 -0.565)"/><path class="a" d="M216.926,7.72a4.346,4.346,0,0,1,1.448-1.177A7.333,7.333,0,0,1,221.091,6a5.7,5.7,0,0,1,2.716.634c1.63.815,1.992,2.173,1.992,4.526V21.48h-4.436v-8.51a6.066,6.066,0,0,0-.181-2.263A1.992,1.992,0,0,0,219.19,9.53c-2.354,0-2.354,1.9-2.354,3.8V21.48H212.4V6.453h4.526Z" transform="translate(-141.97 -0.568)"/><path class="a" d="M229.634,10.706a4.255,4.255,0,0,1,1.63-3.35A7.785,7.785,0,0,1,236.152,6c1.811,0,6.337.453,6.337,4.345v8.781c0,1.629.091,1.811.453,2.354H238.6V20.121a7.152,7.152,0,0,1-4.617,1.811A4.617,4.617,0,0,1,229,17.314a4.888,4.888,0,0,1,3.168-4.345,38.837,38.837,0,0,1,5.975-1.358V10.8c-.091-.724-.091-1.811-1.72-1.811A2.242,2.242,0,0,0,234.07,10.8Zm5.613,4.526c-.724.272-1.9.724-1.9,1.9a1.629,1.629,0,0,0,1.72,1.539,2.9,2.9,0,0,0,1.539-.453c1.448-.905,1.539-2.354,1.539-3.893Z" transform="translate(-143.542 -0.567)"/><path class="a" d="M254.393,14.846a6.428,6.428,0,0,0,1.992,1.629,8.419,8.419,0,0,0,3.983,1c1.992,0,3.8-1,3.8-2.354s-2.082-1.9-3.531-2.082l-3.35-.543c-1.267-.272-5.522-1.177-5.522-5.522S256.384,0,259.915,0s7.242,2.263,9.053,3.893l-3.8,2.716a9.415,9.415,0,0,0-1.992-1.629,7.333,7.333,0,0,0-3.35-.905c-1.992,0-3.078,1.177-3.078,2.173s1.72,1.811,2.625,1.9a39.922,39.922,0,0,1,6.246,1.177,5.07,5.07,0,0,1,3.531,4.979,6.789,6.789,0,0,1-1.629,4.345c-1.811,2.173-4.8,2.716-7.695,2.716-5.794,0-8.057-2.625-9.324-4.164Z" transform="translate(-145.579)"/><path class="a" d="M273.273,1.6h4.436V6.307h2.9V9.023h-2.987v6.79c0,.905,0,1.72,1.177,1.72h1.629v3.44l-2.354.272c-1.539,0-3.259-.091-4.164-1.448s-.634-1.992-.634-3.44V9.023H271.1V6.307h2.173Z" transform="translate(-147.53 -0.152)"/><path class="a" d="M283.134,10.706a4.164,4.164,0,0,1,1.63-3.35A7.785,7.785,0,0,1,289.652,6c1.811,0,6.337.453,6.337,4.345v8.781c0,1.629.091,1.811.453,2.354H292.1V20.121a7.152,7.152,0,0,1-4.617,1.811,4.617,4.617,0,0,1-4.979-4.617,4.888,4.888,0,0,1,3.168-4.345,38.837,38.837,0,0,1,5.975-1.358V10.8c-.091-.724-.091-1.811-1.72-1.811A2.242,2.242,0,0,0,287.57,10.8Zm5.613,4.526c-.724.272-1.9.724-1.9,1.9a1.63,1.63,0,0,0,1.72,1.539,2.9,2.9,0,0,0,1.539-.453c1.448-.905,1.539-2.354,1.539-3.893Z" transform="translate(-148.61 -0.567)"/><path class="a" d="M300.582,1.6h4.436V6.307h2.987V9.023h-2.987v6.79c0,.905,0,1.72,1.177,1.72h1.629v3.44l-2.354.272c-1.539,0-3.259-.091-4.164-1.448s-.634-1.992-.634-3.44V9.023H298.5V6.307h2.173Z" transform="translate(-150.126 -0.152)"/><path class="a" d="M324.818,17.678a11.768,11.768,0,0,1-1.811,2.263,8.328,8.328,0,0,1-5.7,2.173c-4.526,0-7.6-2.9-7.6-7.785S311.511,6,317.485,6a7.333,7.333,0,0,1,5.432,2.173c1.992,2.082,2.082,5.07,2.173,6.79H314.136c0,1.9,1.086,3.8,3.44,3.8a4.125,4.125,0,0,0,3.8-2.625Zm-4.436-5.613a3.622,3.622,0,0,0-.815-2.173,3.169,3.169,0,0,0-2.173-.815,3.078,3.078,0,0,0-2.263,1,3.983,3.983,0,0,0-.905,1.992Z" transform="translate(-151.187 -0.568)"/><path class="a" d="M152.779,30.5V42a10.792,10.792,0,0,1-1.177,5.794c-2.173,3.531-6.79,3.712-7.6,3.712a10.863,10.863,0,0,1-4.707-1.086C135.307,48.424,135.307,44.8,135.4,42V30.5h5.07V43.264a5.522,5.522,0,0,0,.362,2.535,3.563,3.563,0,0,0,3.259,1.358c3.44,0,3.44-2.354,3.531-3.983V30.5Z" transform="translate(-134.673 -2.889)"/><path class="a" d="M161.636,37.72a4.345,4.345,0,0,1,1.539-1.177A7.333,7.333,0,0,1,165.891,36a5.7,5.7,0,0,1,2.716.634c1.63.815,1.992,2.173,1.992,4.526V51.48h-4.436v-8.51a6.065,6.065,0,0,0-.181-2.263,1.992,1.992,0,0,0-1.992-1.177c-2.354,0-2.354,1.9-2.354,3.8V51.48H157.2V36.453h4.526Z" transform="translate(-136.741 -3.41)"/><path class="a" d="M174.5,30.5h4.436v3.44H174.5Zm0,5.341h4.436V50.959H174.5Z" transform="translate(-138.38 -2.889)"/><path class="a" d="M180.8,36.4h4.707a93.879,93.879,0,0,1,2.716,11.044c.634-3.35.724-3.712,1.63-7.333l.905-3.712h4.617l-4.888,15.118h-4.707Z" transform="translate(-138.976 -3.448)"/><path class="a" d="M211.918,47.678a11.769,11.769,0,0,1-1.811,2.263,8.328,8.328,0,0,1-5.7,2.173c-4.526,0-7.6-2.9-7.6-7.785S198.611,36,204.585,36a7.333,7.333,0,0,1,5.432,2.173c1.992,2.082,2.082,5.07,2.173,6.79H201.326c0,1.9,1.086,3.8,3.44,3.8a4.125,4.125,0,0,0,3.8-2.625Zm-4.436-5.613a3.621,3.621,0,0,0-.815-2.173,3.168,3.168,0,0,0-2.173-.815,3.078,3.078,0,0,0-2.263,1,3.983,3.983,0,0,0-.905,1.992Z" transform="translate(-140.492 -3.41)"/><path class="a" d="M220.045,38.02a6.971,6.971,0,0,1,4.345-1.72v3.983l-1.448.272c-2.173.362-2.806.724-2.806,2.625v8.51H215.7v-15.3h4.345Z" transform="translate(-142.282 -3.439)"/><path class="a" d="M228.035,46.411a6.427,6.427,0,0,0,4.436,2.082c1.086,0,2.716-.362,2.716-1.448a.905.905,0,0,0-.543-.905,9.686,9.686,0,0,0-2.535-.543l-1.992-.453a5.7,5.7,0,0,1-2.535-1.267,4.074,4.074,0,0,1-1.086-2.806c0-2.535,2.173-5.07,6.337-5.07a11.044,11.044,0,0,1,6.79,2.263L236.906,40.8a6.337,6.337,0,0,0-3.8-1.539c-1.72,0-2.173.724-2.173,1.086s1,1.086,2.444,1.267c3.078.543,6.609,1.358,6.609,4.979s-3.621,5.341-7.152,5.341a9.958,9.958,0,0,1-7.333-2.9Z" transform="translate(-143.211 -3.41)"/><path class="a" d="M242.7,30.5h4.436v3.44H242.7Zm0,5.341h4.436V50.959H242.7Z" transform="translate(-144.84 -2.889)"/><path class="a" d="M251.473,31.6h4.436v4.707h2.9v2.716h-2.987v6.79c0,.905,0,1.72,1.177,1.72h1.629v3.44l-2.354.272c-1.539,0-3.259-.091-4.164-1.448s-.634-1.992-.634-3.44V39.023H249.3V36.307h2.173Z" transform="translate(-145.465 -2.993)"/><path class="a" d="M275.465,36.4l-5.341,16.295a7.605,7.605,0,0,1-1.448,2.716,3.893,3.893,0,0,1-3.259,1.177h-3.259v-3.35H263.7c.724,0,1.811,0,1.811-1.086a4.164,4.164,0,0,0-.181-1.086L260.8,36.491h4.707l2.535,10.863,2.535-10.863Z" transform="translate(-146.554 -3.448)"/></g><g transform="translate(0 0.453)"><path class="b" d="M123.892,4.212a1.765,1.765,0,0,1,0-3.531,1.72,1.72,0,0,1,1.72,1.72,1.72,1.72,0,0,1-1.72,1.811Zm0-3.712a1.992,1.992,0,1,0,1.992,1.992A1.992,1.992,0,0,0,123.892.5Zm-.724.905h.724a1,1,0,0,1,.724.181.634.634,0,0,1,.272.543.634.634,0,0,1-.453.634l.453.905h-.453l-.453-.815h-.362v.815h-.453Zm.453.362v.724h.453a.362.362,0,0,0,.362-.362.272.272,0,0,0-.181-.272h-.634Z" transform="translate(-11.547 -0.5)"/><path class="a" d="M111.892,47.755l-2.082-2.263a5.341,5.341,0,0,1-1.539-3.531V.5H92.609V33.633c-.181,3.168-3.259,3.893-4.979,3.893a3.876,3.876,0,0,1-3.8-3.8V.5H57.847c-8.329,0-16.2,1.358-18.92,8.238L37.388,2.582A3.168,3.168,0,0,0,34.4.5H7.152C6.79.5,6.608.591,6.79.862s.724.724,2.082,2.263a5.884,5.884,0,0,1,1.086,5.07L0,48.117H14.575l2.082-8.781H30.689l2.173,8.781h19.1c7.876,0,14.213-.815,17.381-5.7,2.354,4.436,7.423,6.608,16.385,5.794,3.078-.272,6.156-1.72,7.514-4.074l.634,1.9a3.259,3.259,0,0,0,3.078,1.992H111.62Q112.163,48.163,111.892,47.755ZM35.939,9.1l2.625,1.629-.272,1.448L35.577,9.643a.326.326,0,1,1,.362-.543Zm-2.716,3.35,4.888,1.992a15.344,15.344,0,0,0,.091,1.992l-5.251-3.44a.345.345,0,0,1,.272-.634Zm-1.992,3.712,7.242,1.629a11.225,11.225,0,0,0,.905,2.535L31.051,16.7a.33.33,0,1,1,.181-.634ZM18.83,30.646l4.8-19.554,4.888,19.554Zm40.1,6.518c-1.358,1.267-3.983,1.9-6.79,1.629a11.044,11.044,0,0,1-3.259-1L43,45.039a.326.326,0,1,1-.543-.362l3.983-8.057a.1.1,0,0,0-.181-.091l-7.152,6.246a.32.32,0,0,1-.453-.453l5.7-7.333a.091.091,0,0,0-.091-.091l-8.329,4.979a.29.29,0,0,1-.362-.453L42.457,33a.1.1,0,1,0-.091-.181L33.224,36.53a.3.3,0,1,1-.272-.543l8.057-5.16a.1.1,0,1,0-.091-.181l-9.686,2.173a.286.286,0,1,1-.181-.543l8.962-3.893a.091.091,0,0,0,0-.181l-9.958.634a.275.275,0,0,1-.091-.543l9.6-2.444a.091.091,0,0,0,0-.181L29.6,24.761a.272.272,0,0,1,0-.543l9.958-.905a.091.091,0,0,0,0-.181l-9.6-2.444a.275.275,0,0,1,.091-.543l9.6.634c2.444,4.436,7.6,6.246,12.131,7.876S60.02,31.46,60.02,34.9A3.078,3.078,0,0,1,58.933,37.164ZM72.6,42.776,70.34,40.785s.362-.815.543-1.358l2.173,2.9a.32.32,0,1,1-.453.453Zm3.259-2.9-4.526-2.716s.181-1.358.181-2.082l4.707,4.345a.29.29,0,0,1-.362.453Zm2.625-3.35-6.971-2.806a16.022,16.022,0,0,0-.181-2.535l7.423,4.8a.3.3,0,0,1-.272.543ZM82.2,24.761l-9.958.905a.091.091,0,0,0,0,.181l9.6,2.444a.275.275,0,1,1-.091.543L71.788,28.2a.091.091,0,0,0,0,.181l8.962,3.893a.286.286,0,0,1-.181.543l-9.234-2.082s-.362-4.074-5.16-7.423a38.746,38.746,0,0,0-8.147-3.893,32.318,32.318,0,0,1-5.341-2.354c-1.539-1-2.263-2.082-2.263-3.35a3.168,3.168,0,0,1,.905-2.354c1.086-1.086,2.987-1.539,5.613-1.539a17.743,17.743,0,0,1,5.794,1.267L68.8,3.85a.326.326,0,1,1,.543.362L65.27,12.359a.091.091,0,0,0,.091.091L72.6,6.2a.32.32,0,0,1,.453.453l-5.613,7.423a.091.091,0,0,0,.091.091L75.862,9.1a.29.29,0,1,1,.362.453l-6.88,6.427a.091.091,0,0,0,.091.091l9.143-3.712a.3.3,0,1,1,.272.543L70.7,18.153a.1.1,0,1,0,.091.181l9.686-2.173a.286.286,0,0,1,.181.543L71.7,20.6a.091.091,0,0,0,0,.181l9.958-.634a.275.275,0,1,1,.091.543l-9.505,2.444a.091.091,0,0,0,0,.181l9.958.905a.272.272,0,1,1,0,.543Z" transform="translate(0 -0.5)"/></g></g></g></svg>