<svg xmlns="http://www.w3.org/2000/svg" width="16.989" height="16.916" viewBox="0 0 16.989 16.916"><defs><style>.a{fill:none;stroke:#2a2a2a;stroke-linecap:round;stroke-linejoin:round;}</style></defs><g transform="translate(0.5 0.5)"><g transform="translate(0 0)"><line class="a" y1="2.225" x2="2.236" transform="translate(1.327 3.134)"/><line class="a" y1="0.892" x2="0.892" transform="translate(2.554 5.694)"/><line class="a" y1="0.892" x2="0.892" transform="translate(9.352 12.459)"/><line class="a" y1="2.225" x2="2.236" transform="translate(10.629 12.397)"/><path class="a" d="M3.85,19.222c-.045.045-1.824,4.54-1.824,4.54a.519.519,0,0,0,.658.647s4.54-1.74,4.584-1.785" transform="translate(-1.943 -8.715)"/><line class="a" x2="1.723" y2="1.718" transform="translate(0.775 13.301)"/><path class="a" d="M18.506,4.338l-1.963-1.98a.976.976,0,0,0-1.377,0L5.021,12.458l3.447,3.429L18.506,5.893A1.115,1.115,0,0,0,18.506,4.338Z" transform="translate(-3.13 -1.967)"/><path class="a" d="M9.271,5.156,6,1.9,1.9,5.975,5.178,9.232" transform="translate(-1.904 -1.899)"/><path class="a" d="M15.945,19.952l3.374,3.363,4.1-4.077-3.38-3.363" transform="translate(-7.429 -7.398)"/><line class="a" y1="8.092" x2="8.125" transform="translate(3.859 4.361)"/></g></g></svg>