<svg xmlns="http://www.w3.org/2000/svg" width="19.535" height="15.963" viewBox="0 0 19.535 15.963"><defs><style>.a{fill:none;stroke:#2a2a2a;stroke-linecap:round;stroke-linejoin:round;}</style></defs><g transform="translate(0.5 0.5)"><line class="a" x2="4.474" transform="translate(2.237 5.752)"/><line class="a" x2="4.474" transform="translate(2.237 8.309)"/><line class="a" x2="4.474" transform="translate(2.237 10.866)"/><path class="a" d="M9.7,16.564V4.471c0-.754-1.917-1.361-4.474-1.361S.75,3.717.75,4.471V16.564a25.475,25.475,0,0,1,4.474-.371A25.475,25.475,0,0,1,9.7,16.564Z" transform="translate(-0.75 -1.602)"/><path class="a" d="M17.307,3.37c-1.489.224-2.557.639-2.557,1.2V16.658a36.242,36.242,0,0,1,4.794-.371,29.364,29.364,0,0,1,4.794.371V4.565c0-.518-1.1-.965-2.557-1.2" transform="translate(-5.802 -1.695)"/><path class="a" d="M22.649,10.1,21.2,8.822a.319.319,0,0,0-.422,0L19.28,10.1a.32.32,0,0,1-.53-.243V.75h4.429V9.858a.32.32,0,0,1-.53.243Z" transform="translate(-7.245 -0.75)"/></g></svg>