<svg xmlns="http://www.w3.org/2000/svg" width="21.021" height="21.103" viewBox="0 0 21.021 21.103"><defs><style>.a{fill:none;stroke:#2a2a2a;stroke-linecap:round;stroke-linejoin:round;stroke-width:0.9px;}</style></defs><g transform="translate(0.45 0.45)"><path class="a" d="M12.415,18.9A2.408,2.408,0,1,1,10,16.5h.014A2.407,2.407,0,0,1,12.415,18.9Z" transform="translate(-3.493 -5.229)"/><path class="a" d="M13.717,19.067l1.73-.233a6.339,6.339,0,0,0,0-1.794l-1.758-.226a4.729,4.729,0,0,0-.572-1.377l1.08-1.412a6.524,6.524,0,0,0-1.264-1.271l-1.412,1.08a4.959,4.959,0,0,0-1.412-.572l-.163-1.758a6.333,6.333,0,0,0-1.793,0L7.928,13.27a4.767,4.767,0,0,0-1.412.573L5.1,12.762a6.487,6.487,0,0,0-1.264,1.263l1.08,1.412a4.614,4.614,0,0,0-.572,1.412l-1.758.233a6.6,6.6,0,0,0,0,1.786l1.758.232a4.5,4.5,0,0,0,.572,1.377l-1.08,1.412A6.528,6.528,0,0,0,5.1,23.162l1.412-1.08a5.006,5.006,0,0,0,1.412.572l.226,1.758a6.921,6.921,0,0,0,1.793,0l.233-1.758a4.949,4.949,0,0,0,1.412-.572L13,23.162a6.5,6.5,0,0,0,1.263-1.271l-1.08-1.412A4.716,4.716,0,0,0,13.717,19.067Z" transform="translate(-2.529 -4.268)"/><path class="a" d="M22.85,8.4a1.561,1.561,0,1,1-.856-2.034h0A1.561,1.561,0,0,1,22.85,8.4Z" transform="translate(-5.822 -3.28)"/><path class="a" d="M23.514,9.149l1.236.325a4.573,4.573,0,0,0,.488-1.193l-1.109-.636a3.406,3.406,0,0,0,0-1.073l1.109-.649a4.955,4.955,0,0,0-.5-1.194L23.5,5.068a3.389,3.389,0,0,0-.769-.756l.325-1.243a4.862,4.862,0,0,0-1.194-.487l-.636,1.109a3.453,3.453,0,0,0-1.08,0l-.642-1.1a4.955,4.955,0,0,0-1.194.5l.339,1.236a3.549,3.549,0,0,0-.763.763l-1.263-.325a4.968,4.968,0,0,0-.488,1.193l1.109.636a3.453,3.453,0,0,0,0,1.08l-1.109.642a4.718,4.718,0,0,0,.5,1.194l1.236-.339a3.513,3.513,0,0,0,.763.763l-.326,1.236a4.57,4.57,0,0,0,1.2.488l.642-1.13a3.5,3.5,0,0,0,1.08,0l.643,1.108a4.917,4.917,0,0,0,1.193-.5L22.731,9.9A3.544,3.544,0,0,0,23.514,9.149Z" transform="translate(-5.117 -2.583)"/></g></svg>