<?xml version="1.0" encoding="utf-8"?>
<!-- Generator: Adobe Illustrator 24.2.3, SVG Export Plug-In . SVG Version: 6.00 Build 0)  -->
<svg version="1.1" id="Layer_1" xmlns="http://www.w3.org/2000/svg" xmlns:xlink="http://www.w3.org/1999/xlink" x="0px" y="0px"
	 viewBox="0 0 1313.7 260.9" style="enable-background:new 0 0 1313.7 260.9;" xml:space="preserve">
<style type="text/css">
	.st0{fill:none;stroke:#FFC627;stroke-width:0.5001;stroke-miterlimit:10.0014;}
	.st1{fill:none;stroke:#FFC627;stroke-width:0.5081;stroke-miterlimit:10.0014;}
	.st2{fill:none;stroke:#FFC627;stroke-width:0.5161;stroke-miterlimit:10.0014;}
	.st3{fill:none;stroke:#FFC627;stroke-width:0.5251;stroke-miterlimit:10.0014;}
	.st4{fill:none;stroke:#FFC627;stroke-width:0.5331;stroke-miterlimit:10.0014;}
	.st5{fill:none;stroke:#FFC627;stroke-width:0.5411;stroke-miterlimit:10.0014;}
	.st6{fill:none;stroke:#FFC627;stroke-width:0.5491;stroke-miterlimit:10.0014;}
	.st7{fill:none;stroke:#FFC627;stroke-width:0.5571;stroke-miterlimit:10.0014;}
	.st8{fill:none;stroke:#FFC627;stroke-width:0.5661;stroke-miterlimit:10.0014;}
	.st9{fill:none;stroke:#FFC627;stroke-width:0.5741;stroke-miterlimit:10.0014;}
	.st10{fill:none;stroke:#FFC627;stroke-width:0.5821;stroke-miterlimit:10.0014;}
	.st11{fill:none;stroke:#FFC627;stroke-width:0.5901;stroke-miterlimit:10.0014;}
	.st12{fill:none;stroke:#FFC627;stroke-width:0.5981;stroke-miterlimit:10.0014;}
	.st13{fill:none;stroke:#FFC627;stroke-width:0.6071;stroke-miterlimit:10.0014;}
	.st14{fill:none;stroke:#FFC627;stroke-width:0.6151;stroke-miterlimit:10.0014;}
	.st15{fill:none;stroke:#FFC627;stroke-width:0.6231;stroke-miterlimit:10.0014;}
	.st16{fill:none;stroke:#FFC627;stroke-width:0.6311;stroke-miterlimit:10.0014;}
	.st17{fill:none;stroke:#FFC627;stroke-width:0.6391;stroke-miterlimit:10.0014;}
	.st18{fill:none;stroke:#FFC627;stroke-width:0.6481;stroke-miterlimit:10.0014;}
	.st19{fill:none;stroke:#FFC627;stroke-width:0.6561;stroke-miterlimit:10.0014;}
	.st20{fill:none;stroke:#FFC627;stroke-width:0.6641;stroke-miterlimit:10.0014;}
	.st21{fill:none;stroke:#FFC627;stroke-width:0.6721;stroke-miterlimit:10.0014;}
	.st22{fill:none;stroke:#FFC627;stroke-width:0.6801;stroke-miterlimit:10.0014;}
	.st23{fill:none;stroke:#FFC627;stroke-width:0.6891;stroke-miterlimit:10.0014;}
	.st24{fill:none;stroke:#FFC627;stroke-width:0.6971;stroke-miterlimit:10.0014;}
	.st25{fill:none;stroke:#FFC627;stroke-width:0.7051;stroke-miterlimit:10.0014;}
	.st26{fill:none;stroke:#FFC627;stroke-width:0.7131;stroke-miterlimit:10.0014;}
	.st27{fill:none;stroke:#FFC627;stroke-width:0.7211;stroke-miterlimit:10.0014;}
	.st28{fill:none;stroke:#FFC627;stroke-width:0.7301;stroke-miterlimit:10.0014;}
	.st29{fill:none;stroke:#FFC627;stroke-width:0.7381;stroke-miterlimit:10.0014;}
	.st30{fill:none;stroke:#FFC627;stroke-width:0.7461;stroke-miterlimit:10.0014;}
	.st31{fill:none;stroke:#FFC627;stroke-width:0.7541;stroke-miterlimit:10.0014;}
	.st32{fill:none;stroke:#FFC627;stroke-width:0.7621;stroke-miterlimit:10.0014;}
	.st33{fill:none;stroke:#FFC627;stroke-width:0.7701;stroke-miterlimit:10.0014;}
	.st34{fill:none;stroke:#FFC627;stroke-width:0.7791;stroke-miterlimit:10.0014;}
	.st35{fill:none;stroke:#FFC627;stroke-width:0.7871;stroke-miterlimit:10.0014;}
	.st36{fill:none;stroke:#FFC627;stroke-width:0.7951;stroke-miterlimit:10.0014;}
	.st37{fill:none;stroke:#FFC627;stroke-width:0.8031;stroke-miterlimit:10.0014;}
	.st38{fill:none;stroke:#FFC627;stroke-width:0.8111;stroke-miterlimit:10.0014;}
	.st39{fill:none;stroke:#FFC627;stroke-width:0.8201;stroke-miterlimit:10.0014;}
</style>
<g transform="matrix(-1, -0.017, 0.017, -1, 1331.994, 403.84)">
	<path class="st0" d="M1333.2,207.2c41.6-32.2,170-25.1,246.3,2c26.2,9.3,57.5,19.5,88.7,18.6c21-0.6,40.2-6.2,61.2-2.3
		c32.6,6,25.6,25.7,54.2,34.7c26.9,8.5,60,1.1,91.7,2.5c29.1,1.3,55.7,10.1,83.3,15.9c110.2,23.3,234.6,7.7,345.8,17.1
		c125,10.5,240.2,42.6,364.7,55"/>
	<path class="st1" d="M1334.5,201.1c38.4-28.5,148.5-25.1,225.3-4.3c7.4,2,14.4,4.2,21.1,6.5c26.1,9,57.3,19,88.4,18
		c21-0.6,40.1-6.2,61.1-2.4c29.2,5.3,27.1,21.4,47,31.2c2.5,1.2,5.1,2.3,7.8,3.1c13.2,4.2,27.8,4.6,43,4.1
		c15.7-0.5,32.1-1.9,48.2-1.1c11.1,0.6,22,2.1,32.9,4.4c16.9,3.4,33.4,8,50.3,11.5c9.5,2,19.1,3.7,28.8,5.1
		c21.4,3.1,43.2,5,65.3,6.3c6.8,0.4,13.6,0.8,20.4,1c19.4,0.8,39,1.2,58.5,1.3c19.4,0.2,38.8,0.1,58.2,0.1c12.1,0,24.2,0,36.2,0.1
		c26.2,0.3,52.1,1.1,77.4,3.3c33.1,2.8,65.5,7.2,97.5,12.2c7.9,1.2,15.8,2.5,23.7,3.8c9.8,1.6,19.5,3.3,29.3,5
		c70.7,12.5,140.8,26.6,214.1,33.9"/>
</g>
<g transform="matrix(-1, -0.017, 0.017, -1, 1331.994, 403.84)">
	<path class="st0" d="M-460.7,244c49.7-16.9,168.9,31.4,232.3,81.8c21.7,17.3,48.1,37.1,77.9,46.4c20.1,6.3,40,7.2,58.7,17.7
		c28.9,16.3,15.9,32.6,40,50.4c22.7,16.8,56.4,20.5,85.9,32.2c27.1,10.7,49.4,27.6,73.6,42c96.7,57.8,219.5,83.4,321.6,128.3
		C544.2,693.3,642.8,761,756.5,813"/>
	<path class="st1" d="M-457.5,238.7c45.6-14.5,148.6,24.4,214.5,69.1c6.3,4.3,12.3,8.6,17.9,13c21.7,17,48.1,36.5,77.8,45.7
		c20,6.2,39.9,7.1,58.6,17.6c25.9,14.5,18.7,29,34.3,44.7c2,2,4.1,3.8,6.4,5.5c11.1,8.2,24.8,13.4,39.4,17.9
		c15,4.6,31,8.6,45.9,14.5c10.3,4.2,20.2,9.1,29.7,14.8c14.9,8.7,29,18.4,43.8,27.2c8.4,5,16.9,9.7,25.6,14.1
		c19.2,9.9,39.2,18.8,59.7,27.2c6.3,2.6,12.6,5.1,19,7.6c18.1,7.1,36.5,13.7,54.9,20.3c18.3,6.4,36.7,12.7,55,19
		c11.5,3.9,22.9,7.8,34.2,11.8c24.7,8.8,49,18,72.1,28.2c30.4,13.4,59.6,28.1,88.3,43.1c7.1,3.7,14.1,7.5,21.2,11.2
		c8.7,4.7,17.4,9.4,26.1,14.3c62.9,34.8,124.6,70.8,191.5,101.5"/>
	<path class="st2" d="M-454.3,233.3c45.8-13.5,148.6,25.4,214.6,69.5c6.3,4.2,12.3,8.5,17.9,12.8c21.8,16.8,48,36,77.7,45.1
		c20,6.1,39.8,7.1,58.5,17.4c25.9,14.3,19.2,28.8,35,44.5c2,2,4.1,3.8,6.4,5.5c11.1,8.2,24.7,13.4,39.1,17.9
		c14.9,4.7,30.7,8.7,45.6,14.7C50.6,465,60.5,470,70,475.6c14.8,8.7,29,18.4,43.9,27.2c8.4,4.9,16.9,9.6,25.6,14
		c19.2,9.8,39.2,18.5,59.6,26.9c6.3,2.6,12.6,5.2,18.9,7.7c18,7.1,36.1,13.8,54.4,20.4c18.1,6.5,36.5,12.8,54.8,19.1
		c11.5,3.9,22.9,7.8,34.2,11.8c24.7,8.7,48.9,17.9,72,28.2c30.3,13.4,59.6,28.2,88.3,43.1c7.1,3.7,14.1,7.4,21.2,11.1
		c8.7,4.7,17.4,9.4,26.1,14.2c62.9,34.8,124.6,70.8,191.5,101.5"/>
	<path class="st3" d="M-451.1,228c46-12.6,148.6,26.3,214.7,69.9c6.3,4.2,12.3,8.4,17.9,12.6c21.8,16.5,48,35.4,77.6,44.4
		c19.9,6.1,39.7,7.1,58.4,17.3c25.9,14.2,19.8,28.6,35.7,44.3c2,2,4.1,3.8,6.4,5.5c11.1,8.2,24.5,13.4,38.8,18
		c14.8,4.8,30.5,8.9,45.2,14.9c10.2,4.2,20,9.2,29.4,14.9c14.8,8.7,29,18.4,43.9,27.1c8.4,4.9,16.9,9.5,25.6,13.9
		c19.2,9.7,39.1,18.2,59.5,26.6c6.3,2.6,12.5,5.2,18.7,7.7c17.8,7.2,35.7,13.9,53.9,20.5c18,6.5,36.3,13,54.6,19.3
		c11.5,3.9,22.8,7.8,34.1,11.7c24.6,8.7,48.9,17.9,72,28.2c30.3,13.5,59.5,28.4,88.2,43.1c7.1,3.7,14.1,7.3,21.2,11
		c8.7,4.6,17.5,9.4,26.1,14.2c62.9,34.8,124.7,70.7,191.5,101.5"/>
	<path class="st4" d="M-447.9,222.7c46.2-11.6,148.7,27.3,214.7,70.3c6.3,4.1,12.3,8.3,17.9,12.4c21.9,16.3,48,34.9,77.5,43.8
		c19.9,6,39.7,7,58.3,17.1c25.9,14.1,20.3,28.4,36.4,44.2c2,2,4.2,3.8,6.4,5.5c11,8.2,24.4,13.4,38.5,18.1
		c14.6,4.8,30.2,9,44.9,15.1c10.1,4.3,19.9,9.2,29.3,14.9c14.8,8.7,29,18.4,43.9,27c8.4,4.9,16.9,9.5,25.6,13.8
		c19.1,9.5,39,17.8,59.3,26.4c6.3,2.6,12.5,5.2,18.6,7.7c17.7,7.2,35.4,14,53.4,20.7c17.8,6.6,36.1,13.1,54.4,19.4
		c11.5,3.9,22.8,7.7,34.1,11.7c24.6,8.6,48.9,17.8,71.9,28.1c30.3,13.5,59.5,28.5,88.2,43.2c7.1,3.6,14.1,7.2,21.2,10.9
		c8.8,4.6,17.5,9.4,26.1,14.2c62.9,34.7,124.8,70.7,191.5,101.5"/>
	<path class="st5" d="M-444.7,217.4c46.4-10.7,148.7,28.2,214.8,70.7c6.3,4.1,12.4,8.2,18,12.3c21.9,16,47.9,34.3,77.4,43.1
		c19.8,5.9,39.6,7,58.2,17c25.9,13.9,20.9,28.2,37.1,44c2,2,4.2,3.8,6.4,5.5c11,8.2,24.2,13.5,38.2,18.2
		c14.5,4.9,29.9,9.1,44.5,15.2c10,4.3,19.8,9.3,29.2,14.9c14.8,8.7,29,18.4,43.9,27c8.4,4.8,16.9,9.4,25.6,13.6
		c19.1,9.4,38.9,17.5,59.2,26.1c6.3,2.6,12.4,5.2,18.5,7.8c17.5,7.3,35,14.1,52.9,20.8c17.7,6.7,35.9,13.3,54.2,19.6
		c11.4,3.9,22.8,7.7,34,11.6c24.6,8.6,48.8,17.8,71.9,28.1c30.2,13.6,59.4,28.7,88.1,43.2c7.1,3.6,14.1,7.1,21.2,10.8
		c8.8,4.6,17.5,9.3,26.2,14.1c62.9,34.7,124.8,70.6,191.5,101.5"/>
	<path class="st6" d="M-441.5,212.1c46.6-9.7,148.7,29.2,214.9,71.2c6.3,4,12.4,8.1,18,12.1c21.9,15.8,47.9,33.8,77.3,42.5
		c19.8,5.9,39.5,6.9,58.1,16.9c25.9,13.8,21.5,28,37.8,43.8c2,2,4.2,3.8,6.4,5.5c11,8.2,24,13.5,37.9,18.2
		c14.4,4.9,29.7,9.3,44.1,15.4c10,4.3,19.7,9.3,29,15c14.7,8.7,29,18.3,44,26.9c8.4,4.8,17,9.3,25.6,13.5
		c19,9.3,38.8,17.2,59.1,25.8c6.2,2.6,12.3,5.3,18.4,7.8c17.4,7.3,34.7,14.2,52.4,21c17.6,6.7,35.7,13.4,54,19.7
		c11.4,3.9,22.8,7.7,34,11.6c24.5,8.5,48.8,17.8,71.8,28.1c30.2,13.6,59.3,28.8,88.1,43.2c7.1,3.5,14.1,7,21.2,10.7
		c8.8,4.5,17.5,9.3,26.2,14.1c63,34.7,124.9,70.6,191.5,101.5"/>
	<path class="st7" d="M-438.3,206.7c46.8-8.7,148.7,30.1,215,71.6c6.3,4,12.4,7.9,18,11.9c21.9,15.5,47.9,33.3,77.2,41.9
		c19.7,5.8,39.4,6.9,58,16.7c25.9,13.7,22,27.7,38.5,43.6c2,2,4.2,3.8,6.4,5.5c10.9,8.2,23.9,13.5,37.6,18.3
		c14.2,5,29.4,9.4,43.8,15.6c9.9,4.4,19.6,9.4,28.9,15c14.7,8.7,29,18.3,44,26.8c8.4,4.8,17,9.3,25.6,13.4
		c19,9.2,38.7,16.9,58.9,25.5c6.2,2.7,12.3,5.3,18.3,7.9c17.2,7.4,34.3,14.3,51.9,21.1c17.4,6.8,35.5,13.6,53.8,19.9
		c11.4,3.9,22.7,7.7,34,11.5c24.5,8.5,48.8,17.7,71.7,28.1c30.2,13.6,59.3,29,88,43.2c7.1,3.5,14.1,6.9,21.2,10.6
		c8.8,4.5,17.5,9.3,26.2,14.1c63,34.7,124.9,70.5,191.5,101.5"/>
	<path class="st8" d="M-435.2,201.4c47-7.8,148.8,31.1,215,72c6.3,3.9,12.4,7.8,18,11.8c21.9,15.3,47.9,32.7,77.1,41.2
		c19.7,5.7,39.3,6.9,57.9,16.6c25.9,13.6,22.6,27.5,39.1,43.4c2,1.9,4.2,3.8,6.4,5.4c10.9,8.1,23.7,13.5,37.3,18.4
		c14.1,5,29.1,9.5,43.4,15.8c9.9,4.4,19.5,9.4,28.7,15c14.7,8.7,29.1,18.3,44,26.8c8.4,4.8,17,9.2,25.6,13.3
		c19,9,38.6,16.6,58.8,25.2c6.2,2.7,12.2,5.3,18.2,7.9c17.1,7.4,33.9,14.4,51.4,21.3c17.3,6.8,35.3,13.7,53.6,20
		c11.4,4,22.7,7.6,33.9,11.5c24.4,8.4,48.7,17.7,71.7,28.1c30.1,13.7,59.2,29.1,88,43.2c7.1,3.5,14.1,6.8,21.2,10.4
		c8.8,4.5,17.6,9.3,26.2,14c63,34.7,125,70.5,191.5,101.5"/>
	<path class="st9" d="M-432,196.1c47.3-6.8,148.8,32,215.1,72.4c6.3,3.8,12.4,7.7,18.1,11.6c22,15,47.8,32.2,77,40.6
		c19.7,5.6,39.2,6.8,57.8,16.5c25.9,13.4,23.1,27.3,39.8,43.2c2,1.9,4.2,3.8,6.5,5.4c10.9,8.1,23.6,13.6,37,18.4
		c14,5.1,28.8,9.7,43.1,16c9.8,4.4,19.4,9.5,28.6,15.1c14.6,8.7,29.1,18.3,44,26.7c8.4,4.7,17,9.1,25.6,13.2
		c18.9,8.9,38.6,16.3,58.6,25c6.2,2.7,12.2,5.4,18.1,8c16.9,7.4,33.6,14.5,50.9,21.4c17.1,6.9,35.1,13.8,53.4,20.2
		c11.4,4,22.7,7.6,33.9,11.4c24.4,8.3,48.7,17.6,71.6,28.1c30.1,13.7,59.2,29.2,87.9,43.2c7.1,3.4,14.1,6.7,21.2,10.3
		c8.8,4.4,17.6,9.2,26.3,14c63,34.7,125,70.4,191.5,101.5"/>
	<path class="st10" d="M-428.8,190.8c47.5-5.9,148.8,33,215.2,72.9c6.3,3.8,12.4,7.6,18.1,11.4c22,14.8,47.8,31.6,76.9,39.9
		c19.6,5.6,39.1,6.8,57.7,16.3c25.9,13.3,23.7,27.1,40.5,43c2.1,1.9,4.2,3.7,6.5,5.4c10.8,8.1,23.4,13.6,36.7,18.5
		c13.8,5.1,28.6,9.8,42.7,16.1c9.8,4.5,19.3,9.5,28.5,15.1c14.6,8.7,29.1,18.3,44.1,26.6c8.4,4.7,17,9.1,25.6,13
		c18.9,8.8,38.5,16,58.5,24.7c6.2,2.7,12.1,5.4,18,8c16.7,7.5,33.2,14.6,50.4,21.6c17,6.9,34.9,14,53.2,20.3
		c11.4,4,22.7,7.6,33.9,11.4c24.4,8.3,48.6,17.6,71.5,28.1c30.1,13.7,59.1,29.4,87.9,43.2c7.1,3.4,14.1,6.7,21.2,10.2
		c8.8,4.4,17.6,9.2,26.3,14c63,34.7,125.1,70.4,191.6,101.6"/>
	<path class="st11" d="M-425.6,185.4c47.7-4.9,148.8,33.9,215.2,73.3c6.3,3.7,12.4,7.5,18.1,11.3c22,14.5,47.8,31.1,76.8,39.3
		c19.6,5.5,39.1,6.8,57.6,16.2c25.9,13.2,24.2,26.9,41.2,42.8c2.1,1.9,4.2,3.7,6.5,5.4c10.8,8.1,23.3,13.6,36.5,18.6
		c13.7,5.2,28.3,10,42.3,16.3c9.7,4.5,19.2,9.5,28.3,15.1c14.6,8.7,29.1,18.3,44.1,26.6c8.4,4.7,17,9,25.6,12.9
		c18.9,8.6,38.4,15.7,58.4,24.4c6.2,2.7,12.1,5.4,17.9,8.1c16.6,7.5,32.8,14.6,49.9,21.7c16.8,7,34.7,14.1,53,20.5
		c11.4,4,22.6,7.5,33.8,11.3c24.3,8.1,48.1,17.5,71.5,28.1c30,13.8,59.1,29.5,87.8,43.2c7.1,3.4,14.1,6.6,21.2,10.1
		c8.8,4.4,17.6,9.2,26.3,13.9C649.3,679,711.4,714.7,777.8,746"/>
	<path class="st12" d="M-422.4,180.1c47.9-3.9,148.8,34.9,215.3,73.7c6.3,3.7,12.4,7.4,18.1,11.1c22,14.3,47.7,30.5,76.7,38.6
		c19.5,5.4,39,6.7,57.5,16c25.9,13.1,24.8,26.7,41.9,42.6c2.1,1.9,4.2,3.7,6.5,5.4c10.8,8.1,23.1,13.6,36.2,18.7
		c13.6,5.3,28,10.1,42,16.5c9.7,4.5,19.1,9.6,28.2,15.2c14.5,8.7,29.1,18.3,44.1,26.5c8.5,4.6,17,8.9,25.6,12.8
		c18.8,8.5,38.3,15.3,58.2,24.1c6.2,2.7,12,5.5,17.8,8.1c16.4,7.6,32.5,14.7,49.4,21.8c16.7,7.1,34.6,14.3,52.8,20.6
		c11.4,4,22.6,7.5,33.8,11.3c24.3,8.1,48.1,17.4,71.4,28c30,13.8,59,29.7,87.8,43.2c7.1,3.3,14,6.5,21.2,10
		c8.8,4.3,17.6,9.1,26.3,13.9c63.1,34.6,125.2,70.3,191.6,101.6"/>
	<path class="st13" d="M-419.2,174.8c48.1-3,148.8,35.8,215.4,74.1c6.3,3.6,12.4,7.3,18.2,10.9c22,14,47.7,30,76.6,38
		c19.5,5.4,38.9,6.7,57.4,15.9c25.9,12.9,25.3,26.5,42.6,42.4c2.1,1.9,4.2,3.7,6.5,5.4c10.7,8.1,23,13.6,35.9,18.7
		c13.5,5.3,27.8,10.2,41.6,16.7c9.6,4.6,19,9.6,28.1,15.2c14.5,8.7,29.1,18.2,44.1,26.4c8.5,4.6,17,8.9,25.6,12.7
		c18.8,8.4,38.2,15,58.1,23.8c6.1,2.7,11.9,5.5,17.6,8.1c16.3,7.6,32.1,14.8,48.8,22c16.6,7.1,34.4,14.4,52.6,20.8
		c11.4,4,22.6,7.5,33.7,11.2c24.3,8.1,48.1,17.4,71.3,28c30,13.9,58.9,29.8,87.7,43.2c7.1,3.3,14,6.4,21.2,9.9
		c8.8,4.3,17.7,9.1,26.3,13.9c63.1,34.6,125.3,70.2,191.6,101.6"/>
	<path class="st14" d="M-416,169.5c48.3-2,148.8,36.8,215.5,74.6c6.3,3.6,12.4,7.1,18.2,10.7c22,13.8,47.7,29.4,76.5,37.3
		c19.4,5.3,38.8,6.6,57.3,15.8c26,12.8,25.9,26.3,43.3,42.3c2,1.8,4.1,3.6,6.5,5.4c10.7,8.1,22.8,13.6,35.6,18.8
		c13.3,5.5,27.5,10.4,41.2,16.8c9.6,4.6,18.9,9.7,27.9,15.2c14.5,8.7,29.1,18.2,44.2,26.4c8.5,4.6,17.1,8.8,25.6,12.5
		c18.7,8.3,38.1,14.7,58,23.6c6.1,2.7,11.9,5.5,17.5,8.2c16.1,7.7,31.7,14.9,48.3,22.1c16.4,7.2,34.2,14.5,52.4,20.9
		c11.4,4,22.6,7.5,33.7,11.2c24.3,8,48.1,17.4,71.3,28c29.9,13.9,58.9,30,87.6,43.2c7.1,3.3,14,6.3,21.2,9.8
		c8.8,4.3,17.7,9.1,26.4,13.8c63.1,34.6,125.3,70.2,191.6,101.6"/>
	<path class="st15" d="M-412.8,164.2c48.5-1,148.9,37.8,215.5,75c6.3,3.5,12.4,7,18.2,10.6c22,13.5,47.6,28.9,76.4,36.7
		c19.4,5.2,38.7,6.6,57.2,15.6c26,12.7,26.5,26.1,44,42.1c2,1.8,4.1,3.6,6.5,5.4c10.7,8.1,22.7,13.7,35.3,18.9
		c13.2,5.4,27.2,10.5,40.9,17c9.5,4.5,18.6,9.7,27.8,15.3c14.4,8.7,29.1,18.2,44.2,26.3c8.5,4.6,17.1,8.7,25.6,12.4
		c18.7,8.1,38,14.4,57.8,23.3c6.1,2.7,11.8,5.5,17.4,8.2c16,7.7,31.4,15,47.8,22.3c16.3,7.2,34,14.7,52.2,21.1
		c11.4,4,22.5,7.4,33.7,11.1c24.2,8,48,17.3,71.2,28c29.9,13.9,58.8,30.1,87.6,43.2c7.1,3.2,14,6.2,21.1,9.6
		c8.8,4.2,17.7,9,26.4,13.8c63.1,34.6,125.4,70.1,191.6,101.6"/>
	<path class="st16" d="M-409.6,158.8c48.7-0.1,148.9,38.7,215.6,75.4c6.3,3.5,12.5,6.9,18.2,10.4c22,13.3,47.6,28.3,76.3,36
		c19.3,5.2,38.6,6.6,57.1,15.5c26,12.5,27,25.9,44.7,41.9c2,1.8,4.1,3.6,6.5,5.4c10.7,8,22.5,13.7,35,19
		c13.1,5.5,26.9,10.6,40.5,17.2c9.4,4.5,18.5,9.8,27.6,15.3c14.4,8.7,29.1,18.2,44.2,26.2c8.5,4.5,17.1,8.7,25.6,12.3
		c18.7,8,37.9,14.1,57.7,23c6.1,2.8,11.8,5.6,17.3,8.3c15.8,7.8,31,15.1,47.3,22.4c16.1,7.3,33.8,14.8,52,21.2
		c11.4,4,22.5,7.4,33.6,11.1c24.2,7.9,48,17.3,71.1,28c29.9,14,58.8,30.3,87.5,43.2c7.1,3.2,14,6.1,21.1,9.5
		c8.8,4.2,17.7,9,26.4,13.8c63.1,34.6,125.4,70.1,191.6,101.6"/>
	<path class="st17" d="M-406.4,153.5c49,0.9,148.9,39.7,215.7,75.8c6.3,3.4,12.5,6.8,18.3,10.2c22,13,47.6,27.8,76.2,35.4
		c19.3,5.1,38.6,6.5,57,15.3c26,12.4,27.6,25.7,45.4,41.7c2,1.8,4.1,3.6,6.5,5.4c10.6,8,22.4,13.7,34.7,19
		c12.9,5.5,26.7,10.8,40.2,17.4c9.4,4.6,18.4,9.8,27.5,15.3c14.4,8.7,29.1,18.2,44.2,26.2c8.5,4.5,17.1,8.6,25.6,12.2
		c18.6,7.9,37.8,13.8,57.6,22.7c6.1,2.8,11.7,5.6,17.2,8.3c15.7,7.8,30.7,15.2,46.8,22.6c16,7.3,33.6,15,51.8,21.4
		c11.4,4,22.5,7.4,33.6,11c24.2,7.9,48,17.2,71.1,28c29.8,14,58.7,30.4,87.5,43.2c7.1,3.2,14,6,21.1,9.4c8.9,4.2,17.7,9,26.4,13.7
		c63.2,34.6,125.5,70,191.6,101.6"/>
	<path class="st18" d="M-403.3,148.2c49.2,1.8,148.9,40.6,215.8,76.3c6.3,3.4,12.5,6.7,18.3,10.1c22,12.8,47.5,27.3,76.1,34.7
		c19.2,5,38.5,6.5,56.9,15.2c26,12.3,28.1,25.5,46.2,41.5c2,1.8,4.1,3.6,6.5,5.4c10.6,8,22.2,13.8,34.4,19.1
		c12.8,5.6,26.4,10.9,39.8,17.5c9.3,4.6,18.3,9.8,27.4,15.3c14.4,8.7,29.1,18.2,44.3,26.1c8.5,4.5,17.1,8.5,25.5,12
		c18.6,7.8,37.8,13.5,57.4,22.4c6.1,2.8,11.7,5.6,17.1,8.4c15.5,7.9,30.3,15.3,46.3,22.7c15.8,7.4,33.4,15.1,51.6,21.5
		c11.3,4,22.5,7.3,33.6,11c24.2,7.9,47.9,17.2,71,28c29.8,14,58.7,30.5,87.4,43.2c7.1,3.1,14,6,21.1,9.3c8.9,4.1,17.7,9,26.5,13.7
		c63.2,34.5,125.5,70,191.6,101.6"/>
	<path class="st19" d="M-400.1,142.9c49.4,2.8,148.9,41.6,215.9,76.7c6.3,3.3,12.5,6.6,18.3,9.9c22,12.5,47.5,26.7,76,34.1
		c19.2,4.9,38.4,6.5,56.8,15.1c26,12.2,28.7,25.3,46.9,41.3c2,1.8,4.2,3.6,6.5,5.4c10.6,8,22,13.8,34.1,19.2
		c12.7,5.7,26.1,11,39.4,17.7c9.2,4.6,18.2,9.9,27.2,15.4c14.3,8.7,29.1,18.1,44.3,26c8.5,4.5,17.1,8.5,25.5,11.9
		c18.6,7.6,37.7,13.2,57.3,22.2c6.1,2.8,11.6,5.7,17,8.4c15.4,7.9,29.9,15.3,45.8,22.9c16.7,8.1,33.9,15.3,51.4,21.7
		c11.3,4,22.4,7.3,33.5,10.9c24.2,7.8,47.9,17.2,71,28c29.8,14.1,58.6,30.7,87.4,43.2c7.1,3.1,14,5.9,21.1,9.2
		c8.9,4.1,17.8,8.9,26.5,13.7c63.2,34.5,125.6,69.9,191.6,101.6"/>
	<path class="st20" d="M-396.9,137.6c49.6,3.8,148.9,42.5,215.9,77.1c6.3,3.2,12.5,6.5,18.3,9.7c22,12.3,47.5,26.2,75.9,33.4
		c19.1,4.9,38.3,6.4,56.7,14.9c26,12,29.2,25.1,47.6,41.1c2,1.8,4.2,3.6,6.6,5.4c10.5,8,21.9,13.8,33.8,19.2
		c12.5,5.7,25.8,11.2,39.1,17.9c9.1,4.6,18.1,9.9,27.1,15.4c14.3,8.7,29.2,18.1,44.3,26c8.5,4.4,17.1,8.4,25.5,11.8
		c18.5,7.5,37.6,12.8,57.1,21.9c6.1,2.8,11.5,5.7,16.9,8.5c15.2,7.9,29.5,15.4,45.3,23c16.6,8.2,33.7,15.5,51.2,21.8
		c11.3,4,22.4,7.3,33.5,10.9c24.2,7.8,47.9,17.1,70.9,27.9c29.7,14.1,58.5,30.8,87.3,43.2c7.1,3.1,14,5.8,21.1,9.1
		c8.9,4.1,17.8,8.9,26.5,13.6c63.2,34.5,125.7,69.9,191.7,101.6"/>
	<path class="st21" d="M-393.7,132.2c49.8,4.7,148.9,43.5,216,77.5c6.3,3.2,12.5,6.3,18.4,9.5c22,12,47.5,25.6,75.8,32.7
		c19.1,4.8,38.2,6.4,56.6,14.8c26,11.9,29.8,24.9,48.3,40.9c2,1.8,4.2,3.6,6.6,5.4c10.5,8,21.7,13.8,33.5,19.3
		c12.4,5.8,25.6,11.3,38.7,18.1c9.1,4.7,18,9.9,27,15.5c14.3,8.7,29.2,18.1,44.3,25.9c8.5,4.4,17.1,8.3,25.5,11.7
		c18.5,7.4,37.5,12.5,57,21.6c6,2.8,11.5,5.7,16.8,8.5c15.1,8,29.2,15.5,44.7,23.1c16.5,8.3,33.6,15.6,51,22
		c11.3,4,22.4,7.2,33.4,10.8c24.2,7.8,47.9,17.1,70.8,27.9c29.7,14.2,58.5,31,87.3,43.2c7.1,3,14,5.7,21.1,9
		c8.9,4,17.8,8.9,26.5,13.6c63.2,34.5,125.7,69.8,191.7,101.6"/>
	<path class="st22" d="M-390.5,126.9c50,5.7,148.9,44.4,216.1,78c6.3,3.1,12.5,6.2,18.4,9.4c22,11.7,47.4,25.1,75.7,32.1
		c19.1,4.7,38.1,6.3,56.5,14.6c26,11.8,30.4,24.6,49,40.8c2,1.8,4.2,3.6,6.6,5.4c10.5,8,21.6,13.9,33.2,19.4
		c12.3,5.8,25.3,11.4,38.3,18.2c9,4.7,17.8,10,26.8,15.5c14.2,8.8,29.2,18.1,44.4,25.9c8.6,4.4,17.2,8.3,25.5,11.5
		c18.4,7.2,37.4,12.2,56.9,21.3c6,2.8,11.4,5.7,16.6,8.5c14.9,8,28.8,15.6,44.2,23.3c16.5,8.4,33.4,15.8,50.8,22.1
		c11.3,4,22.4,7.2,33.4,10.8c24.2,7.7,47.8,17.1,70.8,27.9c29.7,14.2,58.4,31.1,87.2,43.3c7.1,3,13.9,5.6,21.1,8.8
		c8.9,4,17.8,8.8,26.5,13.6c63.3,34.5,125.8,69.8,191.7,101.6"/>
	<path class="st23" d="M-387.3,121.6c50.3,6.7,148.9,45.4,216.2,78.4c6.3,3.1,12.5,6.1,18.4,9.2c22,11.5,47.4,24.5,75.6,31.5
		c19,4.7,38.1,6.3,56.4,14.5c26,11.6,30.9,24.4,49.7,40.6c2.1,1.8,4.2,3.6,6.6,5.4c10.4,7.9,21.4,13.9,32.9,19.4
		c12.2,5.9,25,11.6,38,18.4c8.9,4.7,17.7,10,26.7,15.5c14.2,8.8,29.2,18.1,44.4,25.8c8.3,4.2,16.8,8,25.5,11.4
		c18.4,7.1,37.3,11.9,56.7,21c6,2.8,11.4,5.8,16.5,8.6c14.7,8.1,28.4,15.7,43.7,23.4c16.4,8.5,33.2,15.9,50.5,22.3
		c11.3,4,22.3,7.2,33.4,10.7c24.2,7.7,47.8,17,70.7,27.9c29.6,14.2,58.4,31.3,87.2,43.3c7.1,3,13.9,5.5,21.1,8.7
		c8.9,4,17.8,8.8,26.6,13.5c63.3,34.5,125.8,69.8,191.7,101.6"/>
	<path class="st24" d="M-384.1,116.3c50.5,7.6,148.9,46.3,216.3,78.8c6.3,3,12.5,6,18.4,9c22,11.2,47.4,24,75.5,30.8
		c19,4.6,38,6.3,56.3,14.4c26,11.5,31.5,24.2,50.4,40.4c2.1,1.8,4.2,3.6,6.6,5.3c10.4,7.9,21.3,13.9,32.6,19.5
		c12,6,24.8,11.7,37.6,18.6c8.9,4.7,17.6,10,26.5,15.6c14.2,8.8,29.2,18.1,44.4,25.7c8.3,4.2,16.8,8,25.5,11.3
		c18.4,7,37.2,11.6,56.6,20.8c6,2.8,11.3,5.8,16.4,8.6c14.6,8.1,28.1,15.8,43.2,23.6c16.3,8.6,33.1,16.1,50.3,22.4
		c11.3,4,22.3,7.2,33.3,10.7c24.2,7.7,47.8,17,70.6,27.9c29.6,14.3,58.3,31.4,87.1,43.3c7.1,2.9,13.9,5.4,21.1,8.6
		c8.9,3.9,17.9,8.8,26.6,13.5c63.3,34.5,125.9,69.7,191.7,101.7"/>
	<path class="st25" d="M-380.9,111c50.7,8.6,148.9,47.3,216.3,79.2c6.3,3,12.5,5.9,18.4,8.9c22,11,47.3,23.4,75.4,30.2
		c18.9,4.5,37.9,6.2,56.2,14.2c26,11.4,32.1,24,51.1,40.2c2.1,1.8,4.2,3.5,6.6,5.3c10.4,7.9,21.1,13.9,32.3,19.6
		c11.9,6,24.5,11.8,37.2,18.8c8.8,4.8,17.5,10.1,26.4,15.6c14.1,8.8,29.2,18.1,44.4,25.7c8.3,4.2,16.8,7.9,25.5,11.2
		c18.3,6.8,37.1,11.3,56.4,20.5c6,2.9,11.3,5.8,16.3,8.7c14.4,8.2,27.7,15.9,42.7,23.7c14.8,7.8,32,16.1,50.1,22.6
		c11.3,4,22.3,7.1,33.3,10.6c24.2,7.6,47.7,16.9,70.6,27.9c29.6,14.3,58.3,31.6,87.1,43.3c7.1,2.9,13.9,5.3,21.1,8.5
		c8.9,3.9,17.9,8.7,26.6,13.5c63.3,34.5,126,69.7,191.7,101.7"/>
	<path class="st26" d="M-377.7,105.6c50.9,9.5,148.9,48.2,216.4,79.7c6.3,2.9,12.5,5.8,18.5,8.7c22,10.7,47.3,22.9,75.3,29.5
		c18.9,4.5,37.8,6.2,56.1,14.1c26,11.3,32.6,23.8,51.8,40c2.1,1.8,4.3,3.5,6.6,5.3c10.3,7.9,21,14,32,19.7
		c11.8,6.1,24.2,12,36.9,18.9c8.7,4.8,17.4,10.1,26.3,15.6c14.1,8.8,29.2,18,44.5,25.6c8.3,4.1,16.8,7.8,25.5,11
		c18.3,6.7,37,11,56.3,20.2c6,2.9,11.2,5.9,16.2,8.7c14.3,8.2,27.3,16,42.1,23.9c14.7,7.9,31.8,16.2,49.9,22.7
		c11.3,4,22.3,7.1,33.3,10.6c24.1,7.6,47.7,16.9,70.5,27.9c29.5,14.4,58.2,31.7,87,43.3c7.1,2.9,13.9,5.3,21.1,8.4
		c8.9,3.9,17.9,8.7,26.6,13.5c63.3,34.4,126,69.6,191.7,101.7"/>
	<path class="st27" d="M-374.6,100.3c51.2,10.5,148.9,49.2,216.5,80.1c6.3,2.9,12.5,5.7,18.5,8.5c22,10.5,47.3,22.3,75.2,28.9
		c18.8,4.4,37.7,6.2,56,14c26,11.1,33.2,23.6,52.5,39.8c2.1,1.8,4.3,3.5,6.6,5.3c10,7.5,20.6,14.1,31.7,19.7
		c11.6,6.1,23.9,12.1,36.5,19.1c8.6,4.8,17.2,10.1,26.1,15.6c14.1,8.8,29.2,18,44.5,25.5c8.3,4.1,16.8,7.7,25.5,10.9
		c18.2,6.6,37,10.7,56.2,19.9c6,2.9,11.2,5.9,16.1,8.8c14.1,8.3,27,16,41.6,24c14.5,7.9,31.6,16.4,49.7,22.9
		c11.3,4,22.2,7.1,33.2,10.5c24.1,7.5,47.7,16.8,70.4,27.8c29.5,14.4,58.2,31.8,87,43.3c7.1,2.8,13.9,5.2,21.1,8.3
		c8.9,3.8,17.9,8.7,26.7,13.4c63.4,34.4,126.1,69.6,191.8,101.7"/>
	<path class="st28" d="M-371.4,95c51.4,11.5,148.9,50.1,216.6,80.5c6.3,2.8,12.5,5.5,18.5,8.3c21.9,10.2,47.2,21.8,75.1,28.2
		c18.8,4.3,37.7,6.1,55.9,13.8c26.1,11,33.7,23.4,53.3,39.6c2.1,1.8,4.3,3.5,6.6,5.3c9.9,7.4,20.4,14.1,31.4,19.8
		c11.5,6.2,23.7,12.2,36.1,19.3c8.6,4.8,17.1,10.2,26,15.7c14,8.8,29.2,18,44.5,25.5c8.3,4.1,16.8,7.7,25.5,10.8
		c18.2,6.5,36.9,10.3,56,19.6c5.9,2.9,11.1,5.9,16,8.8c14,8.3,26.6,16.1,41.1,24.1c14.4,8,31.4,16.5,49.5,23
		c11.3,4,22.2,7,33.2,10.5c24.1,7.5,47.6,16.8,70.4,27.8c29.4,14.4,58.1,32,86.9,43.3c7.1,2.8,13.9,5.1,21.1,8.2
		c9,3.8,17.9,8.7,26.7,13.4c63.4,34.4,126.1,69.5,191.8,101.7"/>
	<path class="st29" d="M-368.2,89.7c51.6,12.4,148.9,51.1,216.7,80.9c6.3,2.8,12.5,5.4,18.5,8.2c21.9,10,47.2,21.2,74.9,27.5
		c18.7,4.2,37.6,6.1,55.8,13.7c26.1,10.9,34.3,23.2,54,39.5c2.1,1.8,4.3,3.5,6.6,5.3c9.8,7.4,20.3,14.1,31.1,19.9
		c11.4,6.3,23.4,12.4,35.8,19.5c8.5,4.9,17,10.2,25.9,15.7c14,8.8,29.2,18,44.5,25.4c8.3,4,16.8,7.6,25.5,10.7
		c18.2,6.3,36.8,10,55.9,19.4c5.9,2.9,11,5.9,15.9,8.8c13.8,8.3,26.2,16.2,40.6,24.3c14.2,8,31.2,16.6,49.3,23.1
		c11.3,4.1,22.2,7,33.1,10.4c24.1,7.5,47.6,16.8,70.3,27.8c29.4,14.5,58.1,32.1,86.9,43.3c7.1,2.8,13.9,5,21.1,8
		c9,3.8,18,8.6,26.7,13.4c63.4,34.4,126.2,69.5,191.8,101.7"/>
	<path class="st30" d="M-365,84.3c51.8,13.4,148.9,52.1,216.8,81.4c6.3,2.7,12.5,5.3,18.6,8c21.9,9.7,47.2,20.7,74.8,26.9
		c18.7,4.2,37.5,6,55.7,13.5c26.1,10.7,34.9,23,54.7,39.3c2.1,1.8,4.3,3.5,6.6,5.3c9.8,7.4,20.1,14.1,30.8,19.9
		c11.3,6.3,23.1,12.5,35.4,19.6c8.4,4.9,16.9,10.2,25.7,15.7c14,8.8,29.2,18,44.6,25.3c8.3,4,16.8,7.5,25.5,10.5
		c18.1,6.2,36.7,9.7,55.7,19.1c5.9,2.9,11,6,15.7,8.9c13.7,8.4,25.9,16.3,40.1,24.4c14.1,8.1,31,16.8,49.1,23.3
		c11.3,4.1,22.1,7,33.1,10.4c24.1,7.4,47.6,16.7,70.3,27.8c29.4,14.5,58,32.3,86.8,43.3c7.1,2.7,13.9,4.9,21.1,7.9
		c9,3.8,18,8.6,26.7,13.3c63.4,34.4,126.3,69.4,191.8,101.7"/>
	<path class="st31" d="M-361.8,79c52.1,14.4,148.9,53,216.8,81.8c6.3,2.6,12.5,5.2,18.6,7.8c21.9,9.5,47.1,20.2,74.7,26.2
		c18.6,4.1,37.4,6,55.6,13.4c26.1,10.6,35.4,22.8,55.4,39.1c2.1,1.8,4.3,3.5,6.6,5.3c9.7,7.4,19.9,14,30.5,20
		c11.1,6.4,22.8,12.6,35,19.8c8.4,4.9,16.8,10.3,25.6,15.8c14,8.8,29.3,18,44.6,25.3c8.3,4,16.8,7.5,25.5,10.4
		c18.1,6.1,36.6,9.4,55.6,18.8c5.9,2.9,10.9,6,15.6,8.9c13.5,8.4,25.5,16.4,39.5,24.6c14,8.1,30.8,16.9,48.9,23.4
		c11.2,4.1,22.1,7,33.1,10.3c24.1,7.4,47.6,16.7,70.2,27.8c29.3,14.5,57.9,32.4,86.8,43.3c7.1,2.7,13.9,4.8,21.1,7.8
		c9.1,4,18.1,8.4,26.8,13.3c63.5,34.4,126.3,69.4,191.8,101.7"/>
	<path class="st32" d="M-358.6,73.7c52.3,15.3,148.9,54,216.9,82.2c6.2,2.6,12.5,5.1,18.6,7.7c21.8,9.2,47.1,19.6,74.6,25.6
		c18.6,4,37.3,6,55.5,13.3c26.1,10.5,36,22.6,56.1,38.9c2.2,1.8,4.3,3.5,6.6,5.3c9.6,7.3,19.7,14,30.2,20.1
		c11,6.4,22.5,12.8,34.7,20c8.3,4.9,16.7,10.3,25.4,15.8c13.9,8.8,29.3,17.9,44.6,25.2c8.3,3.9,16.8,7.4,25.5,10.3
		c18.1,5.9,36.5,9.1,55.5,18.5c5.3,2.7,10.5,5.7,15.5,9c13.4,8.5,25.1,16.5,39,24.7c13.8,8.2,30.6,17.1,48.7,23.6
		c11.2,4.1,22.1,6.9,33,10.3c24.1,7.4,47.5,16.7,70.1,27.8c29.3,14.6,57.9,32.6,86.7,43.3c7.1,2.7,13.8,4.7,21.1,7.7
		c9,3.7,18,8.5,26.8,13.3c63.5,34.4,126.4,69.3,191.8,101.7"/>
	<path class="st33" d="M-355.4,68.4c52.5,16.3,148.9,54.9,217,82.7c6.2,2.5,12.5,4.8,18.6,7.5c21.7,9.6,47.1,19.1,74.5,24.9
		c18.5,4,37.2,6,55.4,13.1C36.3,206.8,46.7,219,67,235.3c2.2,1.8,4.4,3.5,6.7,5.3c9.6,7.3,19.6,14,29.9,20.1
		c10.9,6.5,22.3,12.9,34.3,20.2c8.2,5,16.5,10.3,25.3,15.8c13.9,8.8,29.3,17.9,44.7,25.1c8.3,3.9,16.8,7.3,25.5,10.2
		c18,5.8,36.4,8.8,55.3,18.2c5.3,2.7,10.4,5.7,15.4,9c13.2,8.5,24.7,16.5,38.5,24.8c13.7,8.3,30.4,17.2,48.5,23.7
		c11.2,4.1,22.1,6.9,33,10.2c24.1,7.3,47.5,16.6,70.1,27.8c29.3,14.6,57.8,32.7,86.7,43.3c7.1,2.6,13.8,4.6,21.1,7.6
		c9,3.7,18,8.5,26.8,13.2c63.5,34.4,126.5,69.3,191.9,101.7"/>
	<path class="st34" d="M-352.2,63.1c52.7,17.3,149.1,55.2,217.1,83.1c6.2,2.6,12.5,4.7,18.7,7.3c21.7,9.3,47,18.5,74.4,24.3
		c18.5,3.9,37.2,5.9,55.3,13c26.1,10.2,37.1,22.2,57.6,38.6c2.2,1.7,4.4,3.5,6.7,5.3c9.5,7.3,19.4,14,29.6,20.2
		c10.7,6.6,22,13,33.9,20.3c8.1,5,16.4,10.3,25.2,15.9c13.9,8.8,29.3,17.9,44.7,25.1c8.3,3.9,16.8,7.2,25.5,10.1
		c18,5.7,36.3,8.5,55.2,18c5.3,2.7,10.4,5.8,15.3,9.1c13,8.6,24.4,16.6,38,25c13.5,8.3,30.2,17.3,48.3,23.9
		c11.2,4.1,22,6.9,32.9,10.2c24.1,7.3,47.5,16.6,70,27.8c29.2,14.7,57.8,32.9,86.6,43.3c7.1,2.6,13.8,4.6,21.1,7.5
		c9,3.6,18.1,8.5,26.8,13.2c63.5,34.3,126.5,69.2,191.9,101.7"/>
	<path class="st35" d="M-349,57.7c53,18.2,149,56.9,217.2,83.5c6.2,2.4,12.5,4.6,18.7,7.2c21.7,9.1,47,18,74.3,23.6
		c18.4,3.8,37.1,5.8,55.2,12.8c26.1,10.1,37.7,22,58.3,38.4c2.2,1.7,4.4,3.5,6.7,5.3c9.4,7.3,19.2,14,29.3,20.3
		c10.6,6.6,21.7,13.2,33.6,20.5c8.1,5,16.3,10.4,25,15.9c13.8,8.8,29.3,17.9,44.7,25c8.3,3.9,16.8,7.2,25.5,9.9
		c17.9,5.6,36.2,8.2,55,17.7c5.2,2.7,10.3,5.8,15.2,9.1c12.9,8.6,24,16.7,37.5,25.1c13.4,8.4,30.1,17.5,48.1,24
		c11.2,4.1,22,6.8,32.9,10.1c24.1,7.3,47.5,16.5,69.9,27.7c29.2,14.7,57.7,33,86.6,43.3c7.1,2.6,13.8,4.5,21.1,7.4
		c9,3.6,18.1,8.4,26.8,13.2c63.5,34.3,126.6,69.2,191.9,101.8"/>
	<path class="st36" d="M-345.9,52.4c53.2,19.2,149,57.8,217.3,83.9c6.2,2.4,12.5,4.6,18.7,7c21.8,8.2,46.9,17.4,74.2,23
		c18.4,3.8,37,5.8,55.1,12.7c26.1,9.9,38.3,21.8,59,38.2c2.2,1.7,4.4,3.5,6.7,5.3c10,7.8,19.4,14.2,29,20.4
		c10.5,6.7,21.4,13.3,33.2,20.7c8,5,16.2,10.4,24.9,15.9c13.8,8.8,29.3,17.9,44.7,24.9c8.3,3.8,16.8,7.1,25.5,9.8
		c17.9,5.4,36.1,7.8,54.9,17.4c5.2,2.7,10.2,5.8,15.1,9.2c12.7,8.6,23.6,16.8,36.9,25.3c13.2,8.4,29.8,17.6,47.9,24.2
		c11.2,4.1,22,6.8,32.9,10.1c24,7.2,47.4,16.5,69.9,27.7c29.2,14.7,57.7,33.1,86.5,43.3c7.1,2.5,13.8,4.4,21.1,7.2
		c9,3.6,18.1,8.4,26.9,13.1C698,526,761.1,560.9,826.4,593.5"/>
	<path class="st37" d="M-342.7,47.1c53.4,20.2,149,58.8,217.4,84.4c6.2,2.3,12.5,4.5,18.7,6.8c21.7,8,46.9,16.9,74.1,22.3
		c18.3,3.7,36.9,5.8,55,12.5c26.1,9.8,38.8,21.6,59.7,38c2.2,1.7,4.4,3.5,6.7,5.3c10,7.7,19.3,14.3,28.7,20.4
		c10.3,6.7,21.2,13.4,32.8,20.9c7.9,5,16.1,10.4,24.7,16c13.8,8.8,29.3,17.9,44.8,24.9c8.3,3.8,16.8,7,25.5,9.7
		c17.9,5.3,36,7.5,54.7,17.1c5.2,2.7,10.2,5.8,15,9.2c12.6,8.7,23.2,16.9,36.4,25.4c13.1,8.5,29.7,17.8,47.7,24.3
		c11.2,4.1,22,6.8,32.8,10c24,7.2,47.4,16.5,69.8,27.7c29.1,14.8,57.6,33.3,86.5,43.3c7.1,2.5,13.8,4.3,21.1,7.1
		c9,3.5,18.1,8.4,26.9,13.1c63.6,34.3,126.7,69.1,191.9,101.8"/>
	<path class="st38" d="M-339.5,41.8c53.7,21.2,149,59.8,217.5,84.8c6.2,2.3,12.5,4.4,18.8,6.6c21.7,7.7,46.9,16.3,74,21.7
		c18.3,3.6,36.8,5.7,54.9,12.4c26.1,9.7,39.4,21.4,60.4,37.8c2.2,1.7,4.4,3.5,6.7,5.3c9.9,7.7,19.1,14.3,28.4,20.5
		c10.2,6.8,20.9,13.6,32.5,21c7.9,5.1,16,10.5,24.6,16c13.7,8.8,29.3,17.8,44.8,24.8c8.3,3.8,16.8,7,25.5,9.6
		c17.8,5.2,35.9,7.2,54.6,16.8c5.2,2.7,10.1,5.8,14.8,9.2c12.4,8.7,22.9,17,35.9,25.5c12.9,8.5,29.5,17.9,47.5,24.5
		c11.2,4.1,21.9,6.7,32.8,9.9c24,7.1,47.4,16.4,69.7,27.7c29.1,14.8,57.6,33.4,86.4,43.4c7.1,2.4,13.8,4.2,21.1,7
		c9,3.5,18.1,8.4,26.9,13.1c63.6,34.3,126.8,69.1,192,101.8"/>
	<path class="st39" d="M-336.3,36.5c53.9,22.1,149,60.7,217.6,85.2c6.2,2.2,12.5,4.3,18.8,6.5c21.7,7.5,46.8,15.8,73.9,21
		c18.2,3.5,36.7,5.7,54.8,12.3c26.1,9.5,40,21.2,61.2,37.6c2.2,1.7,4.4,3.5,6.7,5.2c9.9,7.7,19,14.3,28.1,20.6
		c10.1,6.9,20.6,13.7,32.1,21.2c7.8,5.1,15.8,10.5,24.5,16c13.7,8.8,29.3,17.8,44.8,24.7c8.3,3.7,16.8,6.9,25.5,9.4
		c17.8,5.1,35.8,6.9,54.5,16.6c5.1,2.7,10.1,5.8,14.7,9.3c12.3,8.8,22.5,17.1,35.4,25.7c12.8,8.6,29.3,18,47.3,24.6
		c11.2,4.1,21.9,6.7,32.8,9.9c24,7.1,47.3,16.4,69.7,27.7c29.1,14.8,57.5,33.6,86.4,43.4c7.1,2.4,13.8,4.1,21.1,6.9
		c9,3.5,18.2,8.3,26.9,13c63.6,34.3,126.8,69,192,101.8"/>
</g>
</svg>
