<?xml version="1.0" encoding="utf-8"?>
<!-- Generator: Adobe Illustrator 24.2.3, SVG Export Plug-In . SVG Version: 6.00 Build 0)  -->
<svg version="1.1" id="Layer_1" xmlns="http://www.w3.org/2000/svg" xmlns:xlink="http://www.w3.org/1999/xlink" x="0px" y="0px"
	 viewBox="0 0 1313.7 219.3" style="enable-background:new 0 0 1313.7 219.3;" xml:space="preserve">
<style type="text/css">
	.st0{fill:none;stroke:#FFC627;stroke-width:0.5001;stroke-miterlimit:10.0014;}
	.st1{fill:none;stroke:#FFC627;stroke-width:0.5081;stroke-miterlimit:10.0014;}
	.st2{fill:none;stroke:#FFC627;stroke-width:0.5161;stroke-miterlimit:10.0014;}
	.st3{fill:none;stroke:#FFC627;stroke-width:0.5251;stroke-miterlimit:10.0014;}
	.st4{fill:none;stroke:#FFC627;stroke-width:0.5331;stroke-miterlimit:10.0014;}
	.st5{fill:none;stroke:#FFC627;stroke-width:0.5411;stroke-miterlimit:10.0014;}
	.st6{fill:none;stroke:#FFC627;stroke-width:0.5491;stroke-miterlimit:10.0014;}
	.st7{fill:none;stroke:#FFC627;stroke-width:0.5571;stroke-miterlimit:10.0014;}
	.st8{fill:none;stroke:#FFC627;stroke-width:0.5661;stroke-miterlimit:10.0014;}
	.st9{fill:none;stroke:#FFC627;stroke-width:0.5741;stroke-miterlimit:10.0014;}
	.st10{fill:none;stroke:#FFC627;stroke-width:0.5821;stroke-miterlimit:10.0014;}
	.st11{fill:none;stroke:#FFC627;stroke-width:0.5901;stroke-miterlimit:10.0014;}
	.st12{fill:none;stroke:#FFC627;stroke-width:0.5981;stroke-miterlimit:10.0014;}
	.st13{fill:none;stroke:#FFC627;stroke-width:0.6071;stroke-miterlimit:10.0014;}
	.st14{fill:none;stroke:#FFC627;stroke-width:0.6151;stroke-miterlimit:10.0014;}
	.st15{fill:none;stroke:#FFC627;stroke-width:0.6231;stroke-miterlimit:10.0014;}
	.st16{fill:none;stroke:#FFC627;stroke-width:0.6311;stroke-miterlimit:10.0014;}
	.st17{fill:none;stroke:#FFC627;stroke-width:0.6391;stroke-miterlimit:10.0014;}
	.st18{fill:none;stroke:#FFC627;stroke-width:0.6481;stroke-miterlimit:10.0014;}
	.st19{fill:none;stroke:#FFC627;stroke-width:0.6561;stroke-miterlimit:10.0014;}
	.st20{fill:none;stroke:#FFC627;stroke-width:0.6641;stroke-miterlimit:10.0014;}
	.st21{fill:none;stroke:#FFC627;stroke-width:0.6721;stroke-miterlimit:10.0014;}
	.st22{fill:none;stroke:#FFC627;stroke-width:0.6801;stroke-miterlimit:10.0014;}
	.st23{fill:none;stroke:#FFC627;stroke-width:0.6891;stroke-miterlimit:10.0014;}
	.st24{fill:none;stroke:#FFC627;stroke-width:0.6971;stroke-miterlimit:10.0014;}
	.st25{fill:none;stroke:#FFC627;stroke-width:0.7051;stroke-miterlimit:10.0014;}
	.st26{fill:none;stroke:#FFC627;stroke-width:0.7131;stroke-miterlimit:10.0014;}
	.st27{fill:none;stroke:#FFC627;stroke-width:0.7211;stroke-miterlimit:10.0014;}
	.st28{fill:none;stroke:#FFC627;stroke-width:0.7301;stroke-miterlimit:10.0014;}
	.st29{fill:none;stroke:#FFC627;stroke-width:0.7381;stroke-miterlimit:10.0014;}
	.st30{fill:none;stroke:#FFC627;stroke-width:0.7461;stroke-miterlimit:10.0014;}
	.st31{fill:none;stroke:#FFC627;stroke-width:0.7541;stroke-miterlimit:10.0014;}
	.st32{fill:none;stroke:#FFC627;stroke-width:0.7621;stroke-miterlimit:10.0014;}
	.st33{fill:none;stroke:#FFC627;stroke-width:0.7701;stroke-miterlimit:10.0014;}
	.st34{fill:none;stroke:#FFC627;stroke-width:0.7791;stroke-miterlimit:10.0014;}
	.st35{fill:none;stroke:#FFC627;stroke-width:0.7871;stroke-miterlimit:10.0014;}
	.st36{fill:none;stroke:#FFC627;stroke-width:0.7951;stroke-miterlimit:10.0014;}
	.st37{fill:none;stroke:#FFC627;stroke-width:0.8031;stroke-miterlimit:10.0014;}
	.st38{fill:none;stroke:#FFC627;stroke-width:0.8111;stroke-miterlimit:10.0014;}
	.st39{fill:none;stroke:#FFC627;stroke-width:0.8201;stroke-miterlimit:10.0014;}
</style>
<g transform="matrix(-1, -0.017, 0.017, -1, 1331.994, 403.84)">
	<path class="st0" d="M1333.2,207.2c41.6-32.2,170-25.1,246.3,2c26.2,9.3,57.5,19.5,88.7,18.6c21-0.6,40.2-6.2,61.2-2.3
		c32.6,6,25.6,25.7,54.2,34.7c26.9,8.5,60,1.1,91.7,2.5c29.1,1.3,55.7,10.1,83.3,15.9c110.2,23.3,234.6,7.7,345.8,17.1
		c125,10.5,240.2,42.6,364.7,55"/>
	<path class="st1" d="M1334.5,201.1c38.4-28.5,148.5-25.1,225.3-4.3c7.4,2,14.4,4.2,21.1,6.5c26.1,9,57.3,19,88.4,18
		c21-0.6,40.1-6.2,61.1-2.4c29.2,5.3,27.1,21.4,47,31.2c2.5,1.2,5.1,2.3,7.8,3.1c13.2,4.2,27.8,4.6,43,4.1
		c15.7-0.5,32.1-1.9,48.2-1.1c11.1,0.6,22,2.1,32.9,4.4c16.9,3.4,33.4,8,50.3,11.5c9.5,2,19.1,3.7,28.8,5.1
		c21.4,3.1,43.2,5,65.3,6.3c6.8,0.4,13.6,0.8,20.4,1c19.4,0.8,39,1.2,58.5,1.3c19.4,0.2,38.8,0.1,58.2,0.1c12.1,0,24.2,0,36.2,0.1
		c26.2,0.3,52.1,1.1,77.4,3.3c33.1,2.8,65.5,7.2,97.5,12.2c7.9,1.2,15.8,2.5,23.7,3.8c9.8,1.6,19.5,3.3,29.3,5
		c70.7,12.5,140.8,26.6,214.1,33.9"/>
</g>
<g transform="matrix(-1, -0.017, 0.017, -1, 1331.994, 403.84)">
	<path class="st0" d="M-288.9,368.2c46.4-24.7,171.8,4.1,242.4,43.6c24.2,13.6,53.4,28.9,84.3,33.4c20.8,3,40.6,0.7,60.7,8.1
		c31.1,11.5,20.9,29.6,47.5,43.4c25.1,13,58.9,11.3,90,18c28.5,6.2,53.2,19.3,79.4,29.7c104.7,41.6,230,47.3,338,75.3
		c121.4,31.5,229.5,82.6,350.1,115.9"/>
	<path class="st1" d="M-286.6,362.4c42.7-21.6,150.6,0.4,222.8,33.9c6.9,3.2,13.5,6.5,19.7,9.9c24.2,13.3,53.3,28.4,84.1,32.7
		c20.8,2.9,40.5,0.7,60.6,8c27.9,10.2,23.1,25.6,41,38.7c2.3,1.6,4.7,3.1,7.2,4.4c12.3,6.4,26.6,9.3,41.7,11.4
		c15.6,2.2,32,3.5,47.7,7c10.8,2.5,21.4,5.8,31.7,9.9c16.1,6.2,31.6,13.6,47.6,19.9c9,3.6,18.2,6.9,27.5,9.9
		c20.6,6.7,41.7,12.3,63.3,17.3c6.6,1.6,13.3,3,19.9,4.5c19,4.1,38.2,7.8,57.5,11.2c19,3.4,38.2,6.7,57.3,9.9
		c12,2,23.8,4.1,35.6,6.2c25.8,4.7,51.2,9.9,75.7,16.3c32.1,8.4,63.3,18.2,94.1,28.5c7.6,2.5,15.2,5.1,22.7,7.7
		c9.4,3.2,18.7,6.5,28,9.9c67.6,24.3,134.3,50,205.2,69.6"/>
	<path class="st2" d="M-284.3,356.7C-241.2,336-133.5,358-61.3,391c6.9,3.2,13.5,6.4,19.7,9.8c24.2,13.1,53.2,27.9,83.9,32.1
		c20.7,2.9,40.4,0.7,60.5,7.9c27.9,10,23.6,25.4,41.7,38.4c2.3,1.6,4.7,3.1,7.2,4.4c12.3,6.4,26.5,9.3,41.4,11.5
		c15.5,2.3,31.7,3.7,47.3,7.3c10.7,2.5,21.3,5.8,31.5,9.9c16,6.2,31.6,13.5,47.6,19.8c9,3.5,18.2,6.8,27.5,9.8
		c20.5,6.6,41.6,12,63.1,17.1c6.6,1.6,13.2,3.1,19.8,4.5c18.9,4.2,37.8,7.9,57,11.4c18.9,3.5,38.1,6.9,57.2,10.1
		c11.9,2.1,23.8,4.1,35.6,6.2c25.7,4.7,51.2,9.9,75.6,16.3c32.1,8.4,63.3,18.4,94,28.5c7.6,2.5,15.1,5,22.7,7.6
		c9.4,3.2,18.7,6.5,28,9.9c67.6,24.3,134.3,50,205.2,69.6"/>
	<path class="st3" d="M-282,350.9c43.4-19.8,150.9,2.3,223.1,34.7c6.9,3.1,13.5,6.3,19.7,9.6c24.2,12.8,53,27.3,83.7,31.5
		c20.6,2.8,40.4,0.6,60.4,7.8c27.8,9.9,24.1,25.1,42.3,38.1c2.3,1.6,4.7,3.1,7.2,4.4c12.2,6.3,26.3,9.4,41.2,11.6
		c15.3,2.3,31.5,3.9,47,7.5c10.7,2.6,21.2,5.9,31.4,10c16,6.2,31.6,13.5,47.6,19.7c9,3.5,18.2,6.7,27.5,9.6
		c20.5,6.5,41.5,11.7,63,16.8c6.6,1.6,13.2,3.1,19.7,4.6c18.7,4.2,37.5,8,56.5,11.7c18.8,3.6,37.9,7,57,10.3c11.9,2,23.8,4,35.6,6.1
		c25.7,4.6,51.1,9.9,75.6,16.3c32.1,8.5,63.3,18.5,94,28.5c7.6,2.5,15.1,4.9,22.7,7.5c9.4,3.2,18.7,6.5,28.1,9.8
		c67.6,24.3,134.4,49.9,205.3,69.6"/>
	<path class="st4" d="M-279.7,345.1c43.8-18.8,151.1,3.2,223.2,35.1c6.9,3.1,13.5,6.2,19.7,9.4c24.2,12.6,52.9,26.8,83.5,30.9
		c20.6,2.7,40.3,0.6,60.3,7.6c27.8,9.8,24.6,24.8,43,37.8c2.3,1.6,4.7,3.1,7.2,4.4c12.2,6.3,26.2,9.4,40.9,11.7
		c15.2,2.4,31.2,4.1,46.7,7.7c10.7,2.6,21.1,5.9,31.3,10c16,6.2,31.6,13.5,47.7,19.7c9.1,3.5,18.2,6.6,27.4,9.5
		c20.4,6.4,41.3,11.4,62.8,16.5c6.6,1.6,13.1,3.2,19.6,4.7c18.6,4.3,37.2,8.2,56,11.9c18.7,3.7,37.7,7.2,56.8,10.5
		c11.9,2.1,23.8,4,35.5,6.1c25.7,4.6,51.1,9.8,75.5,16.3c32,8.5,63.2,18.7,93.9,28.5c7.6,2.4,15.1,4.8,22.6,7.4
		c9.4,3.1,18.8,6.5,28.1,9.8c67.7,24.2,134.4,49.8,205.3,69.6"/>
	<path class="st5" d="M-277.4,339.4c44.1-17.9,151.3,4.1,223.4,35.5c6.9,3,13.5,6.1,19.7,9.3c24.2,12.3,52.8,26.3,83.3,30.2
		c20.5,2.7,40.2,0.6,60.1,7.5c27.8,9.6,25.1,24.5,43.6,37.5c2.3,1.6,4.7,3.1,7.2,4.4c12.2,6.3,26,9.4,40.6,11.8
		c15.1,2.5,31,4.2,46.4,7.9c10.6,2.6,21,6,31.2,10.1c16,6.2,31.6,13.5,47.7,19.6c9,3.4,18.2,6.6,27.4,9.4
		c20.3,6.2,41.2,11.1,62.6,16.3c6.6,1.6,13.1,3.2,19.5,4.7c18.4,4.4,36.8,8.3,55.6,12.1c18.5,3.7,37.6,7.4,56.6,10.7
		c11.9,2.1,23.7,4,35.5,6.1c25.6,4.5,51,9.8,75.4,16.3c32,8.6,63.2,18.8,93.9,28.5c7.6,2.4,15.1,4.8,22.6,7.3
		c9.4,3.1,18.8,6.4,28.1,9.8c67.7,24.2,134.5,49.8,205.3,69.6"/>
	<path class="st6" d="M-275.1,333.6c44.5-17,151.5,5.1,223.5,35.9c6.9,2.9,13.5,6,19.7,9.1c24.1,12.1,52.7,25.7,83.1,29.6
		c20.5,2.6,40.1,0.5,60,7.4c27.8,9.5,25.6,24.2,44.3,37.2c2.3,1.6,4.7,3.1,7.2,4.4c12.1,6.3,25.9,9.5,40.3,11.9
		c15,2.6,30.8,4.4,46,8.2c10.6,2.7,20.9,6.1,31,10.1c15.9,6.2,31.6,13.5,47.7,19.5c9.1,3.4,18.2,6.5,27.4,9.3
		c20.3,6.1,41.1,10.8,62.4,16c6.6,1.6,13,3.2,19.4,4.8c18.3,4.4,36.5,8.5,55.1,12.3c18.4,3.8,37.4,7.5,56.5,10.8
		c11.9,2.1,23.7,4,35.4,6c25.6,4.5,51,9.7,75.4,16.3c32,8.6,63.2,19,93.8,28.5c7.6,2.4,15,4.7,22.6,7.1c9.4,3.1,18.8,6.4,28.1,9.7
		c67.7,24.2,134.5,49.7,205.3,69.6"/>
	<path class="st7" d="M-272.8,327.8c44.8-16.1,151.6,6,223.6,36.4c6.9,2.9,13.5,5.9,19.7,8.9c24.1,11.8,52.6,25.2,82.9,29
		c20.4,2.6,40,0.5,59.9,7.3c27.8,9.4,26.2,23.9,44.9,36.9c2.3,1.6,4.7,3.1,7.2,4.4c12.1,6.3,25.7,9.5,40.1,12.1
		c14.9,2.6,30.5,4.6,45.7,8.4c10.5,2.7,20.8,6.1,30.9,10.2c15.9,6.2,31.6,13.5,47.7,19.5c9.1,3.4,18.2,6.4,27.4,9.1
		c20.2,6,40.9,10.5,62.2,15.8c6.6,1.6,13,3.3,19.3,4.9c18.2,4.5,36.1,8.6,54.6,12.6c18.3,3.9,37.2,7.7,56.3,11
		c11.9,2.1,23.7,3.9,35.4,6c25.5,4.4,51,9.7,75.3,16.3c32,8.6,63.1,19.1,93.8,28.6c7.6,2.3,15,4.6,22.6,7c9.4,3,18.8,6.4,28.1,9.7
		c67.7,24.2,134.6,49.7,205.3,69.7"/>
	<path class="st8" d="M-270.5,322.1c45.2-15.2,151.8,6.9,223.8,36.8c6.9,2.8,13.5,5.7,19.7,8.7c24.1,11.6,52.5,24.7,82.7,28.4
		c20.4,2.5,39.9,0.5,59.8,7.1c27.7,9.3,26.7,23.6,45.6,36.6c2.3,1.6,4.7,3,7.2,4.3c12.1,6.3,25.6,9.6,39.8,12.2
		c14.7,2.7,30.3,4.8,45.4,8.6c10.5,2.8,20.7,6.2,30.8,10.2c15.9,6.3,31.6,13.4,47.7,19.4c9.1,3.4,18.2,6.4,27.4,9
		c20.2,5.9,40.8,10.2,62.1,15.5c6.6,1.6,12.9,3.3,19.2,4.9c18,4.6,35.8,8.8,54.1,12.8c18.1,4,37.1,7.9,56.1,11.2
		c11.9,2.1,23.6,3.9,35.3,5.9c25.5,4.4,50.9,9.7,75.2,16.3c31.9,8.7,63.1,19.3,93.7,28.6c7.6,2.3,15,4.5,22.6,6.9
		c9.4,3,18.8,6.3,28.1,9.7c67.7,24.2,134.6,49.6,205.3,69.7"/>
	<path class="st9" d="M-268.2,316.3c45.6-14.3,152,7.9,223.9,37.2c6.8,2.8,13.5,5.6,19.7,8.6c24.1,11.3,52.3,24.1,82.5,27.7
		c20.3,2.4,39.8,0.5,59.7,7c27.7,9.1,27.2,23.3,46.2,36.3c2.3,1.6,4.7,3,7.2,4.3c12,6.3,25.4,9.6,39.5,12.3c14.6,2.8,30,5,45.1,8.9
		c10.4,2.8,20.6,6.2,30.6,10.3c15.8,6.3,31.6,13.4,47.7,19.3c9.1,3.3,18.2,6.3,27.3,8.9c20.1,5.8,40.7,9.9,61.9,15.3
		c6.5,1.7,12.9,3.3,19.1,5c17.9,4.7,35.4,8.9,53.7,13c18,4.1,36.9,8,55.9,11.4c11.9,2.1,23.6,3.9,35.3,5.9
		c25.4,4.3,50.9,9.6,75.2,16.3c31.9,8.7,63.1,19.4,93.7,28.6c7.6,2.3,15,4.4,22.5,6.8c9.4,3,18.8,6.3,28.2,9.6
		c67.7,24.2,134.7,49.6,205.3,69.7"/>
	<path class="st10" d="M-265.9,310.6c45.9-13.4,152.1,8.8,224,37.6c6.8,2.7,13.5,5.5,19.7,8.4c24.1,11.1,52.2,23.6,82.3,27.1
		c20.2,2.4,39.7,0.5,59.5,6.9c27.7,9,27.7,23,46.9,36c2.3,1.6,4.8,3,7.3,4.3c12,6.3,25.3,9.7,39.2,12.4c14.5,2.9,29.8,5.1,44.7,9.1
		c10.4,2.8,20.6,6.3,30.5,10.3c15.8,6.3,31.6,13.4,47.7,19.3c9.1,3.3,18.2,6.2,27.3,8.8c20.1,5.6,40.5,9.6,61.7,15
		c6.5,1.7,12.8,3.4,19,5c17.7,4.7,35.1,9.1,53.2,13.2c17.9,4.1,36.7,8.2,55.8,11.6c11.9,2.1,23.6,3.9,35.2,5.8
		c25.4,4.3,50.8,9.6,75.1,16.3c31.9,8.8,63,19.6,93.6,28.6c7.6,2.2,14.9,4.3,22.5,6.7c9.4,2.9,18.8,6.3,28.2,9.6
		c67.8,24.1,134.7,49.5,205.3,69.7"/>
	<path class="st11" d="M-263.6,304.8c46.3-12.4,152.3,9.8,224.2,38c6.8,2.7,13.5,5.4,19.7,8.2c24,10.8,52.1,23.1,82.1,26.5
		c20.2,2.3,39.6,0.4,59.4,6.8c27.7,8.9,28.2,22.7,47.5,35.7c2.3,1.6,4.8,3,7.3,4.3c12,6.3,25.1,9.7,39,12.5
		c14.4,2.9,29.5,5.3,44.4,9.3c10.3,2.9,20.5,6.4,30.4,10.4c15.8,6.3,31.6,13.4,47.8,19.2c9.1,3.3,18.2,6.2,27.3,8.7
		c20,5.5,40.4,9.3,61.5,14.8c6.5,1.7,12.8,3.4,18.9,5.1c17.6,4.8,34.8,9.2,52.7,13.5c17.7,4.2,36.6,8.4,55.6,11.7
		c11.9,2.1,23.5,3.8,35.2,5.8c25.3,4.1,50.3,9.6,75,16.3c31.8,8.8,63,19.7,93.6,28.6c7.6,2.2,14.9,4.2,22.5,6.6
		c9.4,2.9,18.9,6.2,28.2,9.6c67.8,24.1,134.8,49.4,205.3,69.7"/>
	<path class="st12" d="M-261.3,299c46.6-11.5,152.5,10.7,224.3,38.4c6.8,2.6,13.4,5.3,19.7,8c24,10.6,52,22.5,81.9,25.9
		c20.1,2.3,39.6,0.4,59.3,6.7c27.7,8.7,28.7,22.4,48.2,35.4c2.3,1.6,4.8,3,7.3,4.3c11.9,6.3,25,9.8,38.7,12.7
		c14.3,3,29.3,5.5,44.1,9.6c10.3,2.9,20.4,6.4,30.3,10.5c15.7,6.3,31.6,13.4,47.8,19.1c9.1,3.2,18.2,6.1,27.3,8.5
		c19.9,5.4,40.3,9,61.3,14.5c6.5,1.7,12.7,3.5,18.8,5.2c17.4,4.9,34.4,9.4,52.2,13.7c17.6,4.3,36.4,8.6,55.4,11.9
		c11.9,2.1,23.5,3.8,35.1,5.7c25.3,4.1,50.3,9.5,75,16.3c31.8,8.9,63,19.9,93.5,28.6c7.5,2.2,14.9,4.2,22.5,6.5
		c9.4,2.9,18.9,6.2,28.2,9.5c67.8,24.1,134.8,49.4,205.3,69.7"/>
	<path class="st13" d="M-259,293.3c47-10.6,152.6,11.6,224.5,38.8c6.8,2.6,13.4,5.2,19.7,7.9c24,10.3,51.9,22,81.7,25.2
		c20.1,2.2,39.5,0.4,59.2,6.5c27.7,8.6,29.3,22.1,48.9,35.1c2.4,1.6,4.8,3,7.3,4.3c11.9,6.3,24.8,9.8,38.4,12.8
		c14.1,3.1,29,5.7,43.7,9.8c10.2,3,20.3,6.5,30.1,10.5c15.7,6.3,31.6,13.4,47.8,19.1c9.1,3.2,18.2,6,27.3,8.4
		c19.9,5.3,40.1,8.7,61.2,14.3c6.5,1.7,12.7,3.5,18.7,5.2c17.3,4.9,34.1,9.5,51.7,13.9c17.5,4.4,36.2,8.7,55.2,12.1
		c11.9,2.1,23.5,3.8,35.1,5.7c25.2,4.1,50.2,9.5,74.9,16.3c31.8,8.9,62.9,20,93.5,28.6c7.5,2.1,14.9,4.1,22.5,6.4
		c9.4,2.8,18.9,6.2,28.2,9.5c67.8,24.1,134.9,49.3,205.3,69.7"/>
	<path class="st14" d="M-256.7,287.5c47.4-9.7,152.8,12.6,224.6,39.2c6.8,2.5,13.4,5.1,19.7,7.7c23.9,10.1,51.8,21.5,81.5,24.6
		c20,2.1,39.4,0.4,59.1,6.4c27.7,8.5,29.8,21.8,49.5,34.8c2.2,1.5,4.6,2.9,7.3,4.3c11.9,6.3,24.7,9.8,38.1,12.9
		c14,3.3,28.8,5.8,43.4,10c10.2,3,20.2,6.5,30,10.6c15.7,6.3,31.6,13.3,47.8,19c9.1,3.2,18.2,6,27.2,8.3c19.8,5.2,40,8.5,61,14
		c6.5,1.7,12.6,3.5,18.6,5.3c17.2,5,33.7,9.6,51.2,14.1c17.3,4.5,36,8.9,55,12.3c11.9,2.1,23.5,3.8,35.1,5.7
		c25.2,4,50.2,9.5,74.8,16.3c31.8,8.9,62.9,20.2,93.4,28.7c7.5,2.1,14.9,4,22.4,6.3c9.4,2.8,18.9,6.1,28.2,9.5
		c67.8,24.1,134.9,49.3,205.4,69.7"/>
	<path class="st15" d="M-254.4,281.7c47.7-8.8,153,13.5,224.8,39.6c6.8,2.5,13.4,5,19.7,7.5c23.9,9.8,51.6,20.9,81.3,24
		c20,2.1,39.3,0.3,58.9,6.3c27.6,8.4,30.3,21.5,50.2,34.5c2.2,1.4,4.6,2.9,7.3,4.3c11.8,6.2,24.6,9.9,37.8,13
		c13.9,3.2,28.5,6,43.1,10.3c10.1,2.9,20,6.6,29.9,10.6c15.7,6.3,31.6,13.3,47.8,18.9c9.1,3.2,18.2,5.9,27.2,8.2
		c19.8,5,39.8,8.2,60.8,13.8c6.5,1.7,12.6,3.6,18.5,5.3c17,5.1,33.4,9.8,50.8,14.4c17.2,4.5,35.9,9.1,54.9,12.5
		c11.9,2.1,23.4,3.7,35,5.6c25.2,4,50.2,9.4,74.8,16.3c31.7,9,62.9,20.3,93.4,28.7c7.5,2.1,14.8,3.9,22.4,6.1
		c9.4,2.8,18.9,6.1,28.3,9.4c67.8,24.1,135,49.2,205.4,69.7"/>
	<path class="st16" d="M-252.1,276c48.1-7.9,153.1,14.4,224.9,40c6.8,2.4,13.4,4.8,19.7,7.4c23.9,9.6,51.5,20.4,81.1,23.4
		c19.9,2,39.2,0.3,58.8,6.2c27.6,8.2,30.8,21.2,50.9,34.2c2.2,1.4,4.6,2.9,7.3,4.3c11.8,6.2,24.4,9.9,37.6,13.1
		c13.8,3.3,28.3,6.2,42.7,10.5c10,3,19.8,6.7,29.7,10.7c15.6,6.3,31.6,13.3,47.8,18.8c9.1,3.1,18.2,5.8,27.2,8
		c19.7,4.9,39.7,7.9,60.6,13.5c6.5,1.7,12.5,3.6,18.4,5.4c16.9,5.1,33,9.9,50.3,14.6c17.1,4.6,35.7,9.2,54.7,12.6
		c11.8,2.1,23.4,3.7,35,5.6c25.2,4,50.1,9.4,74.7,16.3c31.7,9,62.8,20.5,93.3,28.7c7.5,2,14.8,3.8,22.4,6c9.4,2.7,18.9,6.1,28.3,9.4
		c67.9,24,135,49.2,205.4,69.7"/>
	<path class="st17" d="M-249.8,270.2c48.5-7,153.3,15.4,225,40.4c6.8,2.4,13.4,4.7,19.7,7.2c23.8,9.3,51.4,19.8,80.9,22.7
		c19.9,1.9,39.1,0.3,58.7,6c27.6,8.1,31.3,20.9,51.5,33.9c2.3,1.4,4.6,2.9,7.3,4.3c11.8,6.2,24.3,10,37.3,13.2
		c13.7,3.4,28,6.4,42.4,10.7c10,3,19.7,6.7,29.6,10.7c15.6,6.3,31.7,13.3,47.8,18.8c9.1,3.1,18.2,5.8,27.2,7.9
		c19.7,4.8,39.6,7.6,60.4,13.2c6.5,1.8,12.5,3.7,18.3,5.5c16.7,5.2,32.7,10.1,49.8,14.8c16.9,4.7,35.5,9.4,54.5,12.8
		c11.8,2.1,23.4,3.7,34.9,5.5c25.2,3.9,50.1,9.4,74.6,16.3c31.7,9.1,62.8,20.6,93.3,28.7c7.5,2,14.8,3.7,22.4,5.9
		c9.4,2.7,18.9,6,28.3,9.3c67.9,24,135.1,49.1,205.4,69.7"/>
	<path class="st18" d="M-247.5,264.5c48.8-6,153.5,16.3,225.2,40.8c6.8,2.3,13.4,4.6,19.7,7c23.8,9.1,51.3,19.3,80.7,22.1
		c19.8,1.9,39,0.3,58.6,5.9c27.6,8,31.8,20.7,52.2,33.6c2.3,1.4,4.7,2.9,7.3,4.3c11.7,6.2,24.1,10,37,13.4
		c13.5,3.5,27.8,6.5,42.1,11c9.9,3.1,19.6,6.8,29.5,10.8c15.6,6.3,31.7,13.3,47.9,18.7c9.1,3.1,18.2,5.7,27.1,7.8
		c19.6,4.7,39.4,7.3,60.3,13c6.4,1.8,12.4,3.7,18.2,5.5c16.6,5.3,32.3,10.2,49.3,15c16.8,4.8,35.4,9.6,54.3,13
		c11.8,2.1,23.3,3.7,34.9,5.5c25.2,3.9,50.1,9.3,74.6,16.3c31.7,9.1,62.8,20.8,93.2,28.7c7.5,2,14.8,3.6,22.4,5.8
		c9.4,2.7,18.9,6,28.3,9.3c67.9,24,135.1,49,205.4,69.7"/>
	<path class="st19" d="M-245.2,258.7c49.2-5.1,153.6,17.3,225.3,41.2c6.7,2.3,13.4,4.5,19.6,6.8c23.8,8.8,51.2,18.8,80.5,21.5
		c19.7,1.8,38.9,0.2,58.5,5.8c27.6,7.9,32.4,20.4,52.9,33.3c2.3,1.4,4.7,2.9,7.3,4.3c11.7,6.2,24,10.1,36.7,13.5
		c13.4,3.6,27.5,6.7,41.8,11.2c9.8,3.1,19.5,6.8,29.3,10.8c15.5,6.3,31.7,13.3,47.9,18.6c9.1,3,18.3,5.6,27.1,7.7
		c19.5,4.6,39.3,7,60.1,12.7c6.4,1.8,12.4,3.7,18.1,5.6c16.4,5.3,32,10.4,48.8,15.3c17.8,5.3,35.9,9.7,54.2,13.2
		c11.8,2.1,23.3,3.6,34.8,5.4c25.2,3.9,50,9.3,74.5,16.3c31.6,9.2,62.7,20.9,93.2,28.7c7.5,1.9,14.7,3.6,22.3,5.7
		c9.4,2.6,19,6,28.3,9.3c67.9,24,135.2,49,205.4,69.7"/>
	<path class="st20" d="M-242.9,252.9c49.6-4.2,153.8,18.2,225.5,41.6c6.7,2.2,13.4,4.4,19.6,6.7c23.7,8.6,51,18.2,80.2,20.9
		c19.7,1.8,38.8,0.2,58.3,5.7c27.6,7.7,32.9,20.1,53.5,33c2.3,1.4,4.7,2.9,7.3,4.3c11.7,6.2,23.8,10.1,36.4,13.6
		c13.3,3.6,27.3,6.9,41.4,11.4c9.8,3.1,19.4,6.9,29.2,10.9c15.5,6.4,31.7,13.2,47.9,18.6c9.1,3,18.3,5.6,27.1,7.6
		c19.5,4.4,39.2,6.7,59.9,12.5c6.4,1.8,12.3,3.8,18,5.7c16.3,5.4,31.6,10.5,48.3,15.5c17.7,5.4,35.8,9.9,54,13.4
		c11.8,2.1,23.3,3.6,34.8,5.4c25.1,3.8,50,9.3,74.4,16.3c31.6,9.2,62.7,21.1,93.1,28.7c7.5,1.9,14.7,3.5,22.3,5.6
		c9.4,2.6,19,5.9,28.3,9.2c67.9,24,135.2,48.9,205.4,69.7"/>
	<path class="st21" d="M-240.6,247.2c49.9-3.3,153.9,19.1,225.6,42c6.7,2.1,13.3,4.3,19.6,6.5c23.7,8.3,50.9,17.7,80,20.2
		c19.6,1.7,38.8,0.2,58.2,5.6c27.6,7.6,33.4,19.8,54.2,32.7c2.3,1.4,4.7,2.8,7.3,4.2c11.6,6.2,23.7,10.2,36.2,13.7
		c13.2,3.7,27.1,7.1,41.1,11.7c9.7,3.2,19.3,6.9,29.1,10.9c15.5,6.4,31.7,13.2,47.9,18.5c9.1,3,18.3,5.5,27.1,7.4
		c19.4,4.3,39,6.4,59.7,12.2c6.4,1.8,12.3,3.8,17.9,5.7c16.1,5.5,31.3,10.7,47.9,15.7c17.7,5.5,35.6,10.1,53.8,13.5
		c11.8,2.2,23.2,3.6,34.7,5.3c25.1,3.8,50,9.2,74.4,16.3c31.6,9.2,62.7,21.2,93.1,28.8c7.5,1.9,14.7,3.4,22.3,5.5
		c9.4,2.6,19,5.9,28.4,9.2c67.9,24,135.3,48.9,205.4,69.7"/>
	<path class="st22" d="M-238.3,241.4c50.3-2.4,154.1,20.1,225.8,42.5c6.7,2.1,13.3,4.2,19.6,6.3c23.6,8.1,50.8,17.2,79.8,19.6
		c19.6,1.6,38.7,0.2,58.1,5.4c27.5,7.5,33.9,19.5,54.9,32.4c2.3,1.4,4.7,2.8,7.3,4.2c11.6,6.2,23.5,10.2,35.9,13.8
		c13.1,3.8,26.8,7.3,40.8,11.9c9.6,3.2,19.2,7,28.9,11c15.4,6.4,31.7,13.2,47.9,18.4c9.1,2.9,18.3,5.4,27.1,7.3
		c19.4,4.2,38.9,6.1,59.5,12c6.4,1.8,12.2,3.8,17.8,5.8c16,5.5,30.9,10.8,47.4,15.9c17.6,5.7,35.5,10.2,53.6,13.7
		c11.8,2.2,23.2,3.6,34.7,5.3c25.1,3.8,49.9,9.2,74.3,16.3c31.5,9.3,62.7,21.4,93,28.8c7.5,1.8,14.7,3.3,22.3,5.4
		c9.4,2.5,19,5.9,28.4,9.2c68,23.9,135.3,48.8,205.5,69.7"/>
	<path class="st23" d="M-236,235.7c50.7-1.5,154.3,21,225.9,42.9c6.7,2,13.3,4,19.6,6.1c23.6,7.8,50.7,16.6,79.6,19
		c19.5,1.6,38.6,0.2,58,5.3c27.5,7.3,34.4,19.2,55.5,32.1c2.3,1.4,4.7,2.8,7.3,4.2c11.6,6.2,23.4,10.3,35.6,13.9
		c12.9,3.9,26.6,7.4,40.4,12.1c9.6,3.2,19.1,7,28.8,11.1c15.4,6.4,31.7,13.2,47.9,18.4c8.9,2.9,17.9,5.3,27,7.2
		c19.3,4.1,38.7,5.8,59.4,11.7c6.4,1.8,12.2,3.9,17.7,5.8c15.8,5.6,30.6,10.9,46.9,16.2c17.5,5.8,35.4,10.4,53.5,13.9
		c11.8,2.2,23.2,3.5,34.6,5.3c25.1,3.7,49.9,9.2,74.2,16.3c31.5,9.3,62.6,21.5,93,28.8c7.5,1.8,14.6,3.2,22.2,5.2
		c9.4,2.5,19,5.8,28.4,9.1c68,23.9,135.4,48.8,205.5,69.7"/>
	<path class="st24" d="M-233.7,229.9c51.1-0.5,154.4,22,226.1,43.3c6.7,2,13.3,3.9,19.6,6c23.5,7.6,50.6,16.1,79.4,18.4
		c19.4,1.5,38.5,0.1,57.9,5.2c27.5,7.2,35,18.9,56.2,31.8c2.3,1.4,4.7,2.8,7.4,4.2c11.5,6.2,23.2,10.3,35.3,14.1
		c12.8,4,26.3,7.6,40.1,12.3c9.5,3.3,19,7.1,28.7,11.1c15.4,6.4,31.7,13.2,47.9,18.3c8.9,2.8,17.9,5.2,27,7.1
		c19.2,4,38.6,5.5,59.2,11.5c6.4,1.9,12.1,3.9,17.6,5.9c15.7,5.7,30.2,11.1,46.4,16.4c17.4,5.9,35.2,10.6,53.3,14.1
		c11.8,2.2,23.2,3.5,34.6,5.2c25.1,3.7,49.9,9.1,74.2,16.3c31.5,9.4,62.6,21.7,92.9,28.8c7.5,1.8,14.6,3.1,22.2,5.1
		c9.4,2.5,19,5.8,28.4,9.1c68,23.9,135.4,48.7,205.5,69.7"/>
	<path class="st25" d="M-231.4,224.1C-180,224.5-76.8,247-5.2,267.8c6.7,1.9,13.3,3.8,19.6,5.8c23.5,7.3,50.5,15.6,79.2,17.7
		c19.4,1.5,38.4,0.1,57.7,5.1c27.5,7.1,35.5,18.6,56.9,31.5c2.3,1.4,4.8,2.8,7.4,4.2c11.5,6.2,23.1,10.4,35,14.2
		c12.7,4,26.1,7.8,39.8,12.6c9.4,3.3,18.9,7.1,28.6,11.2c15.4,6.4,31.7,13.2,48,18.2c8.9,2.8,17.9,5.1,27,6.9
		c19.2,3.8,38.5,5.2,59,11.2c6.4,1.9,12,4,17.5,6c15.6,5.8,29.9,11.2,45.9,16.6c15.9,5.3,34.2,10.8,53.1,14.3
		c11.8,2.2,23.1,3.5,34.6,5.2c25.1,3.7,49.8,9.1,74.1,16.3c31.5,9.4,62.6,21.8,92.9,28.8c7.5,1.7,14.6,3.1,22.2,5
		c9.4,2.4,19.1,5.8,28.4,9.1c68,23.9,135.5,48.7,205.5,69.7"/>
	<path class="st26" d="M-229.1,218.4c51.8,1.3,154.7,23.8,226.4,44.1c6.7,1.9,13.2,3.7,19.6,5.6c23.4,7.1,50.3,15,79,17.1
		c19.3,1.4,38.3,0.1,57.6,5c27.5,7,36,18.3,57.5,31.2c2.3,1.4,4.8,2.8,7.4,4.2c11.5,6.1,22.9,10.4,34.7,14.3
		c12.6,4.1,25.8,8,39.4,12.8c9.4,3.3,18.8,7.2,28.4,11.2c15.3,6.4,31.7,13.1,48,18.2c8.9,2.8,17.9,5,27,6.8
		c19.1,3.7,38.3,4.9,58.8,11c6.4,1.9,12,4,17.4,6c15.4,5.8,29.5,11.4,45.4,16.8c15.7,5.4,34,10.9,52.9,14.4
		c11.8,2.2,23.1,3.5,34.5,5.1c25,3.6,49.8,9.1,74,16.2c31.4,9.5,62.5,22,92.8,28.8c7.5,1.7,14.6,3,22.2,4.9c9.4,2.4,19.1,5.7,28.4,9
		c68,23.9,135.5,48.6,205.5,69.8"/>
	<path class="st27" d="M-226.8,212.6c52.2,2.2,154.9,24.8,226.5,44.5c6.6,1.8,13.2,3.6,19.6,5.5c23.3,6.8,50.2,14.5,78.8,16.5
		c19.3,1.3,38.2,0.1,57.5,4.8c27.5,6.8,36.5,18,58.2,30.9c2.4,1.4,4.8,2.8,7.4,4.2c11.1,5.8,22.6,10.6,34.5,14.4
		c12.5,4.2,25.6,8.1,39.1,13c9.3,3.4,18.6,7.2,28.3,11.3c15.3,6.4,31.7,13.1,48,18.1c8.9,2.7,17.8,5,26.9,6.7
		c19.1,3.6,38.2,4.6,58.6,10.7c6.3,1.9,11.9,4,17.3,6.1c15.3,5.9,29.2,11.5,44.9,17c15.6,5.5,33.8,11.1,52.7,14.6
		c11.8,2.2,23.1,3.4,34.5,5.1c25,3.6,49.8,9,74,16.2c31.4,9.5,62.5,22.1,92.8,28.8c7.5,1.7,14.5,2.9,22.2,4.8
		c9.4,2.4,19.1,5.7,28.5,9c68,23.9,135.6,48.5,205.5,69.8"/>
	<path class="st28" d="M-224.5,206.8c52.6,3.1,155,25.7,226.7,44.9c6.6,1.8,13.2,3.5,19.6,5.3c23.3,6.6,50.1,14,78.6,15.9
		c19.2,1.3,38.1,0,57.4,4.7c27.5,6.7,37,17.7,58.9,30.6c2.4,1.4,4.8,2.8,7.4,4.2c11,5.8,22.4,10.6,34.2,14.5
		c12.4,4.3,25.3,8.3,38.8,13.3c9.2,3.4,18.5,7.3,28.2,11.3c15.3,6.4,31.7,13.1,48,18c8.8,2.7,17.8,4.9,26.9,6.6
		c19,3.5,38,4.3,58.4,10.5c6.3,1.9,11.9,4.1,17.2,6.1c15.1,6,28.8,11.7,44.4,17.3c15.5,5.6,33.7,11.3,52.6,14.8
		c11.8,2.2,23,3.4,34.4,5c25,3.6,49.7,9,73.9,16.2c31.4,9.5,62.5,22.3,92.7,28.9c7.5,1.6,14.5,2.8,22.1,4.7c9.4,2.3,19.1,5.7,28.5,9
		c68.1,23.9,135.6,48.5,205.6,69.8"/>
	<path class="st29" d="M-222.2,201.1c52.9,4,155.2,26.7,226.8,45.3c6.6,1.7,13.2,3.4,19.6,5.1c23.2,6.3,50,13.4,78.4,15.2
		c19.2,1.2,38.1,0,57.3,4.6c27.5,6.6,37.6,17.4,59.6,30.3c2.4,1.4,4.8,2.8,7.4,4.2c10.9,5.7,22.2,10.6,33.9,14.6
		c12.2,4.4,25,8.5,38.4,13.5c9.2,3.4,18.4,7.3,28,11.4c15.2,6.4,31.7,13.1,48,18c8.8,2.7,17.8,4.8,26.9,6.5
		c18.9,3.4,37.9,4,58.3,10.2c6.3,1.9,11.8,4.1,17.1,6.2c15,6,28.5,11.8,43.9,17.5c15.3,5.7,33.5,11.4,52.4,15
		c11.8,2.2,23,3.4,34.4,5c25,3.5,49.7,9,73.9,16.2c31.3,9.6,62.4,22.5,92.7,28.9c7.5,1.6,14.5,2.7,22.1,4.6
		c9.4,2.3,19.1,5.6,28.5,8.9c68.1,23.8,135.7,48.4,205.6,69.8"/>
	<path class="st30" d="M-219.9,195.3c53.3,5,155.3,27.6,227,45.7c6.6,1.7,13.2,3.2,19.6,4.9c23.2,6.1,49.9,12.9,78.2,14.6
		c19.1,1.1,38,0,57.1,4.5c27.4,6.4,38.1,17.2,60.2,30c2.4,1.4,4.8,2.8,7.4,4.2c10.8,5.7,22.1,10.7,33.6,14.8
		c12.1,4.4,24.8,8.7,38.1,13.7c9.1,3.5,18.3,7.4,27.9,11.4c15.2,6.4,31.7,13.1,48,17.9c8.8,2.6,17.8,4.8,26.9,6.3
		c18.9,3.2,37.8,3.7,58.1,9.9c6.3,1.9,11.8,4.1,17,6.3c14.8,6.1,28.1,12,43.5,17.7c15.2,5.7,33.3,11.6,52.2,15.2
		c11.8,2.2,23,3.4,34.3,4.9c25,3.5,49.7,8.9,73.8,16.2c31.3,9.6,62.4,22.6,92.6,28.9c7.5,1.6,14.5,2.6,22.1,4.5
		c9.5,2.3,19.1,5.6,28.5,8.9c68.1,23.8,135.7,48.4,205.6,69.8"/>
	<path class="st31" d="M-217.6,189.6c53.7,5.9,155.5,28.6,227.1,46.1c6.6,1.6,13.2,3.1,19.6,4.8c23.1,5.8,49.7,12.4,78,14
		c19,1.1,37.9-0.1,57,4.3c27.4,6.3,38.6,16.9,60.9,29.8c2.4,1.4,4.8,2.8,7.4,4.2c10.8,5.7,21.9,10.7,33.3,14.9
		c12,4.5,24.5,8.8,37.8,14c9,3.5,18.2,7.4,27.8,11.5c15.2,6.4,31.7,13.1,48.1,17.8c8.8,2.6,17.8,4.7,26.9,6.2
		c18.8,3.1,37.6,3.4,57.9,9.7c6.3,1.9,11.7,4.2,16.9,6.3c14.7,6.2,27.8,12.1,43,17.9c15.1,5.8,33.1,11.8,52,15.3
		c11.8,2.2,23,3.3,34.3,4.9c25,3.5,49.6,8.9,73.7,16.2c31.3,9.7,62.4,22.8,92.6,28.9c7.5,1.5,14.4,2.5,22.1,4.3
		c9.7,2.5,19.2,5.4,28.5,8.9c68.1,23.8,135.8,48.3,205.6,69.8"/>
	<path class="st32" d="M-215.3,183.8c54.1,6.8,155.7,29.5,227.3,46.5c6.6,1.6,13.1,3,19.6,4.6c23,5.6,49.6,11.8,77.8,13.3
		c19,1,37.8-0.1,56.9,4.2c27.4,6.2,39.1,16.6,61.6,29.5c2.4,1.4,4.8,2.8,7.4,4.2c10.7,5.7,21.7,10.7,33,15
		c11.9,4.6,24.3,9,37.4,14.2c9,3.5,18.1,7.5,27.6,11.5c15.1,6.4,31.8,13,48.1,17.8c8.8,2.6,17.8,4.6,26.8,6.1
		c18.8,3,37.5,3.2,57.7,9.4c5.7,1.8,11.3,4,16.8,6.4c14.5,6.2,27.4,12.2,42.5,18.2c14.9,5.9,33,11.9,51.8,15.5
		c11.7,2.2,22.9,3.3,34.2,4.9c25,3.4,49.6,8.8,73.7,16.2c31.3,9.7,62.3,22.9,92.5,28.9c7.5,1.5,14.4,2.5,22,4.2
		c9.5,2.2,19.2,5.5,28.6,8.8c68.1,23.8,135.8,48.3,205.6,69.8"/>
	<path class="st33" d="M-213,178c54.4,7.7,155.8,30.5,227.4,46.9c6.6,1.5,13.1,2.7,19.6,4.4c22.9,6,49.5,11.3,77.5,12.7
		c18.9,1,37.7,0,56.8,4.1c27.4,5.9,39.7,16.3,62.3,29.2c2.4,1.4,4.9,2.8,7.4,4.2c10.6,5.7,21.5,10.7,32.8,15.1
		c11.8,4.7,24,9.2,37.1,14.4c8.9,3.6,18,7.5,27.5,11.6c15.1,6.4,31.8,13,48.1,17.7c8.8,2.5,17.8,4.5,26.8,6
		c18.7,2.9,37.3,2.9,57.5,9.2c5.7,1.8,11.2,4,16.7,6.5c14.4,6.3,27.1,12.4,42,18.4c14.8,6,32.8,12.1,51.7,15.7
		c11.7,2.2,22.9,3.3,34.2,4.8c24.9,3.4,49.5,8.8,73.6,16.2c31.2,9.8,62.3,23.1,92.5,28.9c7.5,1.5,14.4,2.4,22,4.1
		c9.5,2.2,19.2,5.5,28.6,8.8c68.2,23.8,135.9,48.2,205.6,69.8"/>
	<path class="st34" d="M-210.7,172.3c54.8,8.6,156,30.7,227.6,47.4c6.6,1.5,13.1,2.6,19.6,4.3c22.9,5.8,49.4,10.8,77.3,12.1
		c18.9,0.9,37.6-0.1,56.7,4c27.4,5.9,40.2,16,63,28.9c2.4,1.4,4.9,2.8,7.4,4.1c10.5,5.7,21.4,10.8,32.5,15.2
		c11.6,4.8,23.8,9.4,36.7,14.7c8.8,3.6,17.9,7.6,27.4,11.7c15.1,6.5,31.8,13,48.1,17.6c8.8,2.5,17.7,4.5,26.8,5.9
		c18.7,2.7,37.2,2.6,57.3,8.9c5.6,1.8,11.2,4,16.5,6.5c14.2,6.4,26.7,12.5,41.5,18.6c14.7,6.1,32.6,12.3,51.5,15.9
		c11.7,2.2,22.9,3.3,34.1,4.8c24.9,3.4,49.5,8.8,73.5,16.2c31.2,9.8,62.3,23.2,92.4,28.9c7.4,1.4,14.4,2.3,22,4
		c9.5,2.1,19.2,5.5,28.6,8.8c68.2,23.8,135.9,48.2,205.7,69.8"/>
	<path class="st35" d="M-208.4,166.5c55.2,9.6,156.1,32.4,227.8,47.8c6.5,1.4,13.1,2.5,19.6,4.1c22.9,5.5,49.2,10.2,77.1,11.5
		c18.8,0.8,37.5-0.2,56.5,3.9c27.4,5.8,40.7,15.7,63.7,28.6c2.4,1.4,4.9,2.8,7.4,4.1c10.5,5.7,21.2,10.8,32.2,15.3
		c11.5,4.8,23.5,9.5,36.4,14.9c8.8,3.6,17.8,7.6,27.2,11.7c15,6.5,31.8,13,48.1,17.6c8.8,2.5,17.7,4.4,26.8,5.7
		c18.6,2.6,37.1,2.3,57.2,8.7c5.6,1.9,11.1,4.1,16.4,6.6c14.1,6.4,26.3,12.7,41,18.8c14.5,6.1,32.5,12.5,51.3,16.1
		c11.7,2.2,22.8,3.2,34.1,4.7c24.9,3.3,49.5,8.7,73.5,16.2c31.2,9.8,62.3,23.4,92.4,29c7.4,1.4,14.4,2.2,22,3.9
		c9.5,2.1,19.2,5.4,28.6,8.7c68.2,23.7,136,48.1,205.7,69.8"/>
	<path class="st36" d="M-206.1,160.8c55.6,10.5,156.3,33.3,227.9,48.2c6.5,1.4,13.1,2.6,19.6,3.9c22.8,4.6,49.1,9.7,76.9,10.8
		c18.8,0.8,37.4-0.2,56.4,3.7c27.4,5.6,41.2,15.4,64.3,28.3c2.5,1.4,4.9,2.8,7.4,4.1c11.1,6.1,21.4,10.9,31.9,15.5
		c11.4,4.9,23.3,9.7,36.1,15.1c8.7,3.7,17.7,7.7,27.1,11.8c15,6.5,31.8,13,48.1,17.5c8.8,2.5,17.7,4.3,26.8,5.6
		c18.5,2.5,36.9,2,57,8.4c5.6,1.9,11,4.1,16.3,6.6c14,6.5,26,12.8,40.5,19c14.4,6.2,32.3,12.6,51.1,16.2c11.7,2.2,22.8,3.2,34.1,4.7
		c24.9,3.3,49.4,8.7,73.4,16.2c31.2,9.9,62.2,23.5,92.3,29c7.4,1.3,14.3,2.1,22,3.8c9.5,2.1,19.2,5.4,28.6,8.7
		c68.2,23.7,136.1,48,205.7,69.8"/>
	<path class="st37" d="M-203.8,155c56,11.4,156.4,34.3,228.1,48.6c6.5,1.3,13,2.5,19.6,3.7c22.7,4.4,49,9.2,76.7,10.2
		c18.7,0.7,37.3-0.2,56.3,3.6c27.4,5.5,41.8,15.1,65,28c2.5,1.4,4.9,2.7,7.4,4.1c11.1,6,21.3,11,31.6,15.6c11.3,5,23,9.9,35.7,15.3
		c8.6,3.7,17.5,7.7,27,11.8c15,6.5,31.8,13,48.2,17.4c8.8,2.4,17.7,4.3,26.7,5.5c18.5,2.4,36.8,1.7,56.8,8.2
		c5.6,1.9,11,4.1,16.2,6.7c13.8,6.6,25.6,13,40,19.3c14.3,6.3,32.1,12.8,50.9,16.4c11.7,2.2,22.8,3.2,34,4.6
		c24.9,3.2,49.4,8.7,73.3,16.2c31.1,9.9,62.2,23.7,92.3,29c7.4,1.3,14.3,2,21.9,3.7c9.5,2,19.2,5.4,28.6,8.6
		c68.2,23.7,136.1,48,205.7,69.8"/>
	<path class="st38" d="M-201.5,149.2c56.4,12.3,156.6,35.2,228.2,49c6.5,1.3,13,2.4,19.6,3.6c22.7,4.2,48.9,8.6,76.5,9.6
		c18.6,0.6,37.3-0.2,56.2,3.5c27.3,5.4,42.3,14.8,65.7,27.7c2.5,1.4,4.9,2.7,7.4,4.1c11.1,6,21.1,11,31.3,15.7
		c11.2,5.1,22.8,10.1,35.4,15.6c8.6,3.8,17.4,7.8,26.8,11.9c15,6.5,31.8,12.9,48.2,17.3c8.8,2.4,17.7,4.2,26.7,5.4
		c18.4,2.3,36.6,1.4,56.6,7.9c5.5,1.9,10.9,4.1,16.1,6.8c13.6,6.6,25.3,13.1,39.5,19.5c14.1,6.4,31.9,13,50.8,16.6
		c11.7,2.3,22.7,3.2,34,4.6c24.9,3.2,49.4,8.6,73.3,16.2c31.1,10,62.2,23.8,92.2,29c7.4,1.3,14.3,1.9,21.9,3.6
		c9.5,2,19.2,5.3,28.7,8.6c68.3,23.7,136.2,47.9,205.7,69.8"/>
	<path class="st39" d="M-199.2,143.5c56.8,13.2,156.8,36.2,228.4,49.4c6.5,1.2,13,2.3,19.6,3.4c22.6,3.9,48.8,8.1,76.3,9
		c18.6,0.6,37.2-0.3,56,3.4c27.3,5.3,42.8,14.5,66.4,27.4c2.5,1.4,4.9,2.7,7.5,4.1c11,6,21,11.1,31,15.8c11,5.2,22.5,10.2,35.1,15.8
		c8.5,3.8,17.3,7.8,26.7,11.9c14.9,6.5,31.8,12.9,48.2,17.3c8.8,2.4,17.7,4.1,26.7,5.2c18.4,2.2,36.5,1.1,56.4,7.7
		c5.5,1.9,10.9,4.2,16,6.8c13.5,6.7,24.9,13.3,39,19.7c14,6.4,31.8,13.1,50.6,16.8c11.7,2.3,22.7,3.1,33.9,4.5
		c24.8,3.2,49.3,8.6,73.2,16.2c31.1,10,62.1,24,92.2,29c7.4,1.2,14.3,1.9,21.9,3.5c9.5,2,19.3,5.3,28.7,8.6
		c68.3,23.7,136.2,47.9,205.8,69.8"/>
</g>
</svg>
