<?xml version="1.0" encoding="utf-8"?>
<!-- Generator: Adobe Illustrator 24.2.3, SVG Export Plug-In . SVG Version: 6.00 Build 0)  -->
<svg version="1.1" id="Layer_1" xmlns="http://www.w3.org/2000/svg" xmlns:xlink="http://www.w3.org/1999/xlink" x="0px" y="0px"
	 viewBox="0 0 1044.8 164.8" style="enable-background:new 0 0 1044.8 164.8;" xml:space="preserve">
<style type="text/css">
	.st0{fill:none;stroke:#FFC627;stroke-width:0.5001;stroke-miterlimit:10.0014;}
	.st1{fill:none;stroke:#FFC627;stroke-width:0.5081;stroke-miterlimit:10.0014;}
	.st2{fill:none;stroke:#FFC627;stroke-width:0.5161;stroke-miterlimit:10.0014;}
	.st3{fill:none;stroke:#FFC627;stroke-width:0.5251;stroke-miterlimit:10.0014;}
	.st4{fill:none;stroke:#FFC627;stroke-width:0.5331;stroke-miterlimit:10.0014;}
	.st5{fill:none;stroke:#FFC627;stroke-width:0.5411;stroke-miterlimit:10.0014;}
	.st6{fill:none;stroke:#FFC627;stroke-width:0.5491;stroke-miterlimit:10.0014;}
	.st7{fill:none;stroke:#FFC627;stroke-width:0.5571;stroke-miterlimit:10.0014;}
	.st8{fill:none;stroke:#FFC627;stroke-width:0.5661;stroke-miterlimit:10.0014;}
	.st9{fill:none;stroke:#FFC627;stroke-width:0.5741;stroke-miterlimit:10.0014;}
	.st10{fill:none;stroke:#FFC627;stroke-width:0.5821;stroke-miterlimit:10.0014;}
	.st11{fill:none;stroke:#FFC627;stroke-width:0.5901;stroke-miterlimit:10.0014;}
	.st12{fill:none;stroke:#FFC627;stroke-width:0.5981;stroke-miterlimit:10.0014;}
	.st13{fill:none;stroke:#FFC627;stroke-width:0.6071;stroke-miterlimit:10.0014;}
	.st14{fill:none;stroke:#FFC627;stroke-width:0.6151;stroke-miterlimit:10.0014;}
	.st15{fill:none;stroke:#FFC627;stroke-width:0.6231;stroke-miterlimit:10.0014;}
	.st16{fill:none;stroke:#FFC627;stroke-width:0.6311;stroke-miterlimit:10.0014;}
	.st17{fill:none;stroke:#FFC627;stroke-width:0.6391;stroke-miterlimit:10.0014;}
	.st18{fill:none;stroke:#FFC627;stroke-width:0.6481;stroke-miterlimit:10.0014;}
	.st19{fill:none;stroke:#FFC627;stroke-width:0.6561;stroke-miterlimit:10.0014;}
	.st20{fill:none;stroke:#FFC627;stroke-width:0.6641;stroke-miterlimit:10.0014;}
	.st21{fill:none;stroke:#FFC627;stroke-width:0.6721;stroke-miterlimit:10.0014;}
	.st22{fill:none;stroke:#FFC627;stroke-width:0.6801;stroke-miterlimit:10.0014;}
	.st23{fill:none;stroke:#FFC627;stroke-width:0.6891;stroke-miterlimit:10.0014;}
	.st24{fill:none;stroke:#FFC627;stroke-width:0.6971;stroke-miterlimit:10.0014;}
	.st25{fill:none;stroke:#FFC627;stroke-width:0.7051;stroke-miterlimit:10.0014;}
	.st26{fill:none;stroke:#FFC627;stroke-width:0.7131;stroke-miterlimit:10.0014;}
	.st27{fill:none;stroke:#FFC627;stroke-width:0.7211;stroke-miterlimit:10.0014;}
	.st28{fill:none;stroke:#FFC627;stroke-width:0.7301;stroke-miterlimit:10.0014;}
	.st29{fill:none;stroke:#FFC627;stroke-width:0.7381;stroke-miterlimit:10.0014;}
	.st30{fill:none;stroke:#FFC627;stroke-width:0.7461;stroke-miterlimit:10.0014;}
	.st31{fill:none;stroke:#FFC627;stroke-width:0.7541;stroke-miterlimit:10.0014;}
	.st32{fill:none;stroke:#FFC627;stroke-width:0.7621;stroke-miterlimit:10.0014;}
	.st33{fill:none;stroke:#FFC627;stroke-width:0.7701;stroke-miterlimit:10.0014;}
	.st34{fill:none;stroke:#FFC627;stroke-width:0.7791;stroke-miterlimit:10.0014;}
	.st35{fill:none;stroke:#FFC627;stroke-width:0.7871;stroke-miterlimit:10.0014;}
	.st36{fill:none;stroke:#FFC627;stroke-width:0.7951;stroke-miterlimit:10.0014;}
	.st37{fill:none;stroke:#FFC627;stroke-width:0.8031;stroke-miterlimit:10.0014;}
	.st38{fill:none;stroke:#FFC627;stroke-width:0.8111;stroke-miterlimit:10.0014;}
	.st39{fill:none;stroke:#FFC627;stroke-width:0.8201;stroke-miterlimit:10.0014;}
</style>
<g transform="matrix(-1, -0.017, 0.017, -1, 1331.994, 403.84)">
	<path class="st0" d="M72.8,241.2c41.6-32.2,170-25.1,246.3,2c26.2,9.3,57.5,19.5,88.7,18.6c21-0.6,40.2-6.2,61.2-2.3
		c32.6,6,25.6,25.7,54.2,34.7c26.9,8.5,60,1.1,91.7,2.5c29.1,1.3,55.7,10.1,83.3,15.9c110.2,23.3,234.6,7.7,345.8,17.1
		c125,10.5,240.2,42.6,364.7,55"/>
	<path class="st1" d="M74.1,235.1c38.4-28.5,148.5-25.1,225.3-4.3c7.4,2,14.4,4.2,21.1,6.5c26.1,9,57.3,19,88.4,18
		c21-0.6,40.1-6.2,61.1-2.4c29.2,5.3,27.1,21.4,47,31.2c2.5,1.2,5.1,2.3,7.8,3.1c13.2,4.2,27.8,4.6,43,4.1
		c15.7-0.5,32.1-1.9,48.2-1.1c11.1,0.6,22,2.1,32.9,4.4c16.9,3.4,33.4,8,50.3,11.5c9.5,2,19.1,3.7,28.8,5.1
		c21.4,3.1,43.2,5,65.3,6.3c6.8,0.4,13.6,0.8,20.4,1c19.4,0.8,39,1.2,58.5,1.3c19.4,0.2,38.8,0.1,58.2,0.1c12.1,0,24.2,0,36.2,0.1
		c26.2,0.3,52.1,1.1,77.4,3.3c33.1,2.8,65.5,7.2,97.5,12.2c7.9,1.2,15.8,2.5,23.7,3.8c9.8,1.6,19.5,3.3,29.3,5
		c70.7,12.5,140.8,26.6,214.1,33.9"/>
	<path class="st2" d="M75.4,229.1c38.9-27.7,148.8-24.2,225.5-3.9c7.3,1.9,14.4,4,21.1,6.3c26.1,8.8,57.1,18.5,88.1,17.5
		c20.9-0.7,40-6.2,60.9-2.5c29.1,5.2,27.5,21,47.5,30.8c2.5,1.2,5.2,2.3,7.8,3.1c13.2,4.2,27.7,4.7,42.8,4.3
		c15.6-0.4,31.9-1.7,47.9-0.9c11,0.7,22,2.2,32.8,4.4c16.9,3.4,33.4,8,50.3,11.5c9.5,2,19.1,3.6,28.7,5c21.3,3,43,4.8,65.1,6.1
		c6.8,0.4,13.6,0.8,20.3,1.1c19.3,0.9,38.6,1.4,58.1,1.6c19.2,0.3,38.7,0.3,58,0.3c12.1,0,24.2,0,36.1,0.1
		c26.2,0.2,52.1,1.1,77.3,3.3c33.1,2.9,65.5,7.4,97.5,12.2c7.9,1.2,15.8,2.4,23.6,3.7c9.8,1.6,19.6,3.3,29.3,5
		c70.8,12.5,140.9,26.5,214.1,33.9"/>
	<path class="st3" d="M76.6,223c39.4-26.8,149.1-23.3,225.7-3.5c7.3,1.9,14.4,3.9,21,6.1c26,8.6,56.9,18,87.8,16.9
		c20.8-0.7,39.9-6.2,60.8-2.6c29.1,5,28,20.6,48.1,30.4c2.5,1.2,5.2,2.3,7.8,3.1c13.1,4.2,27.5,4.8,42.5,4.5
		c15.5-0.3,31.7-1.5,47.6-0.6c11,0.7,21.9,2.2,32.6,4.5c16.8,3.4,33.4,8,50.3,11.4c9.5,1.9,19.1,3.5,28.7,4.9
		c21.3,2.9,42.8,4.5,64.9,5.9c6.8,0.4,13.5,0.8,20.2,1.2c19.2,1,38.3,1.6,57.7,1.9c19.1,0.4,38.5,0.5,57.9,0.5
		c12.1,0,24.1-0.1,36.1,0c26.1,0.2,52,1.1,77.2,3.3c33,2.9,65.5,7.5,97.5,12.2c7.9,1.2,15.7,2.3,23.6,3.5c9.8,1.5,19.6,3.2,29.3,5
		c70.8,12.5,140.9,26.4,214.1,33.9"/>
	<path class="st4" d="M77.9,216.9c39.9-26,149.5-22.4,225.9-3.1c7.3,1.8,14.4,3.8,21,6c26,8.3,56.7,17.5,87.5,16.3
		c20.8-0.8,39.8-6.2,60.7-2.7c29.1,4.9,28.4,20.2,48.7,30c2.5,1.2,5.2,2.2,7.8,3.1c13.1,4.2,27.4,4.8,42.3,4.6
		c15.4-0.2,31.5-1.3,47.3-0.3c10.9,0.8,21.8,2.3,32.5,4.6c16.8,3.4,33.4,8,50.3,11.3c9.5,1.9,19.1,3.5,28.7,4.7
		c21.2,2.8,42.7,4.2,64.7,5.7c6.8,0.4,13.5,0.9,20.1,1.3c19,1.1,38,1.8,57.2,2.2c19,0.5,38.4,0.7,57.8,0.7c12.1,0,24.1-0.1,36,0
		c26.1,0.2,52,1,77.2,3.3c33,3,65.5,7.7,97.4,12.2c7.9,1.1,15.7,2.2,23.6,3.4c9.8,1.5,19.6,3.2,29.3,4.9
		c70.8,12.5,140.9,26.4,214.1,33.9"/>
	<path class="st5" d="M79.2,210.9c40.5-25.1,149.8-21.5,226.1-2.8c7.3,1.8,14.3,3.7,21,5.8c25.9,8.1,56.5,16.9,87.2,15.7
		c20.7-0.8,39.7-6.2,60.5-2.8c29,4.8,28.9,19.9,49.3,29.6c2.5,1.2,5.2,2.2,7.9,3.1c13.1,4.2,27.3,4.9,42,4.8c15.3-0.1,31.3-1.1,47,0
		c10.9,0.8,21.7,2.4,32.4,4.7c16.8,3.4,33.4,8,50.3,11.3c9.5,1.9,19.1,3.4,28.6,4.6c21.1,2.7,42.5,4,64.5,5.5
		c6.8,0.5,13.4,0.9,20.1,1.4c18.9,1.2,37.7,2,56.8,2.5c18.9,0.6,38.3,0.9,57.6,0.9c12.1,0,24.1-0.1,36,0c26,0.1,52,1,77.1,3.3
		c33,3,65.5,7.9,97.4,12.2c7.9,1.1,15.7,2.1,23.5,3.3c9.8,1.5,19.6,3.2,29.3,4.9c70.8,12.4,141,26.3,214.1,33.9"/>
	<path class="st6" d="M80.5,204.8c41-24.3,150.1-20.6,226.4-2.4c7.3,1.7,14.3,3.6,20.9,5.6c25.8,7.8,56.3,16.4,86.9,15.1
		c20.6-0.9,39.6-6.2,60.4-2.9c29,4.7,29.4,19.5,49.9,29.2c2.5,1.2,5.2,2.2,7.9,3.1c13,4.2,27.1,5,41.8,5c15.2,0,31.1-0.9,46.8,0.3
		c10.9,0.9,21.7,2.4,32.3,4.7c16.7,3.5,33.4,7.9,50.3,11.2c9.5,1.8,19.1,3.3,28.6,4.5c21,2.6,42.3,3.7,64.2,5.2
		c6.8,0.5,13.4,1,20,1.4c18.8,1.3,37.4,2.2,56.4,2.8c18.8,0.7,38.1,1.1,57.5,1.1c12.1,0,24-0.1,35.9-0.1c25.9,0.1,51.9,1,77,3.3
		c33,3.1,65.5,8,97.3,12.3c7.9,1.1,15.6,2.1,23.5,3.2c9.8,1.4,19.6,3.1,29.4,4.8c70.8,12.4,141,26.3,214.1,33.9"/>
	<path class="st7" d="M81.8,198.7c41.5-23.5,150.5-19.7,226.6-2c7.3,1.7,14.3,3.5,20.9,5.4c25.8,7.6,56.1,15.9,86.6,14.6
		c20.6-0.9,39.5-6.2,60.3-3c29,4.6,29.8,19.1,50.5,28.8c2.6,1.2,5.2,2.2,7.9,3.1c13,4.2,27,5,41.5,5.1c15.1,0.1,30.8-0.6,46.5,0.6
		c10.8,0.9,21.6,2.5,32.2,4.8c16.7,3.5,33.4,7.9,50.3,11.1c9.5,1.8,19.1,3.3,28.5,4.4c20.9,2.5,42.1,3.4,64,5
		c6.7,0.5,13.3,1,19.9,1.5c18.7,1.4,37.1,2.4,56,3.1c18.7,0.8,38,1.3,57.3,1.3c12.1,0,24-0.1,35.9-0.1c25.9,0.1,51.9,1,77,3.3
		c33,3.1,65.5,8.2,97.3,12.3c7.9,1,15.6,2,23.4,3.1c9.8,1.4,19.6,3.1,29.4,4.8c70.8,12.4,141,26.2,214.1,33.9"/>
	<path class="st8" d="M83.1,192.7c42-22.6,150.8-18.8,226.8-1.6c7.2,1.6,14.3,3.4,20.9,5.3c25.7,7.3,55.9,15.4,86.3,14
		c20.5-1,39.4-6.2,60.1-3.1c28.9,4.4,30.3,18.7,51.1,28.3c2.6,1.2,5.2,2.2,7.9,3.1c13,4.2,26.8,5.1,41.3,5.3
		c15,0.2,30.6-0.4,46.2,0.8c10.8,1,21.5,2.6,32.1,4.9c16.7,3.5,33.4,7.9,50.3,11.1c9.5,1.8,19,3.2,28.5,4.3
		c20.9,2.4,41.9,3.2,63.8,4.8c6.7,0.5,13.3,1.1,19.8,1.6c18.5,1.5,36.8,2.6,55.5,3.5c18.5,0.9,37.9,1.5,57.2,1.6
		c12.1,0,24-0.1,35.8-0.1c25.8,0,51.8,0.9,76.9,3.3c32.9,3.2,65.5,8.3,97.2,12.3c7.8,1,15.5,1.9,23.4,3c9.8,1.4,19.6,3.1,29.4,4.8
		c70.8,12.4,141.1,26.1,214.1,33.9"/>
	<path class="st9" d="M84.4,186.6c42.5-21.8,151.1-17.9,227-1.2c7.2,1.6,14.2,3.3,20.8,5.1c25.7,7.1,55.7,14.9,86,13.4
		c20.4-1,39.3-6.3,60-3.2c28.9,4.3,30.7,18.4,51.7,27.9c2.6,1.2,5.2,2.2,7.9,3.1c12.9,4.2,26.7,5.2,41,5.4
		c14.9,0.3,30.4-0.2,45.9,1.1c10.7,1,21.4,2.7,31.9,5c16.7,3.5,33.4,7.9,50.3,11c9.5,1.7,19,3.1,28.5,4.1
		c20.8,2.3,41.7,2.9,63.6,4.6c6.7,0.5,13.3,1.1,19.7,1.7c18.4,1.6,36.4,2.8,55.1,3.8c18.4,1,37.7,1.7,57,1.8
		c12.1,0,23.9-0.2,35.8-0.2c25.8,0,51.8,0.9,76.8,3.3c32.9,3.2,65.5,8.5,97.2,12.3c7.8,1,15.5,1.8,23.4,2.9c9.8,1.3,19.6,3,29.4,4.7
		c70.8,12.4,141.1,26.1,214.1,33.9"/>
	<path class="st10" d="M85.7,180.5c43-20.9,151.4-17,227.2-0.9c7.2,1.5,14.2,3.2,20.8,4.9c25.6,6.9,55.5,14.4,85.7,12.8
		c20.4-1.1,39.2-6.3,59.8-3.3c28.8,4.2,31.2,18,52.3,27.5c2.6,1.2,5.2,2.2,7.9,3c12.9,4.2,26.6,5.2,40.8,5.6
		c14.8,0.4,30.2,0,45.6,1.4c10.7,1.1,21.3,2.7,31.8,5c16.6,3.5,33.4,7.9,50.3,10.9c9.5,1.7,19,3.1,28.4,4
		c20.7,2.2,41.6,2.6,63.4,4.4c6.7,0.5,13.2,1.2,19.6,1.7c18.3,1.7,36.1,3,54.6,4.1c18.3,1.1,37.6,1.9,56.9,2
		c12.1,0.1,23.9-0.2,35.7-0.2c25.7,0,51.7,0.9,76.8,3.4c32.9,3.3,65.4,8.6,97.1,12.4c7.8,0.9,15.5,1.7,23.3,2.8
		c9.8,1.3,19.6,3,29.4,4.7c70.9,12.3,141.1,26,214.1,33.9"/>
	<path class="st11" d="M87,174.4c43.5-20.1,151.8-16.2,227.4-0.5c7.2,1.5,14.2,3.1,20.8,4.8c25.5,6.6,55.3,13.9,85.4,12.2
		c20.3-1.1,39.1-6.3,59.7-3.4c28.8,4.1,31.7,17.6,52.9,27.1c2.6,1.2,5.2,2.2,7.9,3c12.9,4.2,26.4,5.3,40.5,5.8
		c14.7,0.5,30,0.2,45.3,1.7c10.7,1.1,21.2,2.8,31.7,5.1c16.6,3.5,33.4,7.9,50.3,10.8c9.5,1.7,19,3,28.4,3.9
		c20.6,2.1,41.4,2.4,63.1,4.2c6.7,0.6,13.2,1.2,19.5,1.8c18.1,1.7,35.8,3.2,54.2,4.4c18.2,1.2,37.4,2.1,56.8,2.2
		c12.1,0.1,23.9-0.2,35.7-0.2c25.6-0.2,51.2,0.9,76.7,3.4c32.9,3.3,65.4,8.8,97.1,12.4c7.8,0.9,15.4,1.7,23.3,2.7
		c9.8,1.3,19.6,3,29.4,4.7c70.9,12.3,141.2,25.9,214.2,33.9"/>
	<path class="st12" d="M88.3,168.4c44-19.3,152.1-15.3,227.6-0.1c7.2,1.4,14.1,2.9,20.8,4.6c25.4,6.4,55,13.4,85.1,11.6
		c20.2-1.2,39.1-6.3,59.6-3.5c28.8,3.9,32.1,17.2,53.5,26.7c2.6,1.1,5.2,2.2,7.9,3c12.8,4.2,26.3,5.4,40.3,5.9
		c14.6,0.6,29.8,0.5,45.1,2c10.6,1.1,21.2,2.9,31.6,5.2c16.6,3.5,33.4,7.8,50.3,10.8c9.5,1.7,19,2.9,28.3,3.8
		c20.6,2,41.2,2.1,62.9,3.9c6.7,0.6,13.1,1.3,19.4,1.9c18,1.8,35.5,3.4,53.8,4.7c18.1,1.3,37.3,2.3,56.6,2.4
		c12.1,0.1,23.8-0.2,35.6-0.3c25.6-0.2,51.2,0.9,76.6,3.4c32.9,3.3,65.4,8.9,97,12.4c7.8,0.9,15.4,1.6,23.3,2.6
		c9.7,1.2,19.6,2.9,29.4,4.6c70.9,12.3,141.2,25.9,214.2,33.9"/>
	<path class="st13" d="M89.6,162.3c44.5-18.4,152.4-14.4,227.8,0.3c7.1,1.4,14.1,2.8,20.7,4.4c25.4,6.1,54.8,12.9,84.8,11.1
		c20.2-1.2,39-6.3,59.4-3.6c28.7,3.8,32.6,16.9,54.1,26.3c2.6,1.1,5.2,2.1,7.9,3c12.8,4.2,26.1,5.5,40,6.1
		c14.5,0.7,29.6,0.7,44.8,2.3c10.6,1.2,21.1,3,31.5,5.3c16.6,3.6,33.4,7.8,50.3,10.7c9.5,1.6,19,2.9,28.3,3.7
		c20.5,1.8,41,1.8,62.7,3.7c6.7,0.6,13.1,1.3,19.3,2c17.9,1.9,35.2,3.6,53.3,5c18,1.4,37.2,2.5,56.5,2.6c12.1,0.1,23.8-0.2,35.6-0.3
		c25.6-0.3,51.1,0.9,76.6,3.4c32.8,3.4,65.4,9.1,97,12.4c7.8,0.8,15.3,1.5,23.2,2.5c9.7,1.2,19.7,2.9,29.4,4.6
		c70.9,12.3,141.3,25.8,214.2,33.9"/>
	<path class="st14" d="M90.9,156.2c45-17.6,152.7-13.5,228,0.6c7.1,1.3,14.1,2.7,20.7,4.3c25.3,5.9,54.6,12.4,84.5,10.5
		c20.1-1.3,38.9-6.3,59.3-3.7c28.7,3.7,33,16.5,54.7,25.9c2.4,1.1,5,2.1,7.9,3c12.8,4.2,26,5.4,39.8,6.3c14.4,0.9,29.4,0.9,44.5,2.5
		c10.5,1.2,21,3,31.3,5.3c16.5,3.6,33.4,7.8,50.3,10.6c9.5,1.6,19,2.8,28.2,3.6c20.4,1.7,40.8,1.6,62.5,3.5c6.7,0.6,13,1.4,19.2,2.1
		c17.8,2,34.9,3.8,52.9,5.3c17.8,1.5,37,2.7,56.3,2.8c12.1,0.1,23.8-0.3,35.5-0.4c25.5-0.3,51.1,0.8,76.5,3.4
		c32.8,3.4,65.4,9.2,96.9,12.4c7.8,0.8,15.3,1.4,23.2,2.4c9.7,1.2,19.7,2.9,29.4,4.5c70.9,12.3,141.3,25.7,214.2,33.9"/>
	<path class="st15" d="M92.1,150.2c45.6-16.7,153.1-12.6,228.2,1c7.1,1.3,14.1,2.6,20.7,4.1c25.2,5.7,54.4,11.9,84.2,9.9
		c20-1.3,38.8-6.3,59.2-3.8c28.7,3.6,33.5,16.1,55.3,25.5c2.4,1.1,5,2.1,7.9,3c12.7,4.1,25.9,5.6,39.5,6.4
		c14.2,0.9,29.1,1.1,44.2,2.8c10.4,1.2,20.8,3.2,31.2,5.4c16.5,3.6,33.4,7.8,50.3,10.6c9.5,1.6,19,2.7,28.2,3.5
		c20.3,1.6,40.6,1.3,62.3,3.3c6.7,0.6,13,1.4,19.2,2.1c17.6,2.1,34.5,4,52.5,5.6c17.7,1.6,36.9,2.9,56.2,3c12,0.1,23.7-0.3,35.5-0.4
		c25.5-0.3,51,0.8,76.4,3.4c32.8,3.5,65.4,9.4,96.9,12.5c7.8,0.8,15.3,1.3,23.1,2.3c9.7,1.1,19.7,2.8,29.4,4.5
		c70.9,12.2,141.3,25.7,214.2,34"/>
	<path class="st16" d="M93.4,144.1c46.1-15.9,153.4-11.7,228.4,1.4c7.1,1.2,14,2.5,20.6,3.9c25.2,5.4,54.2,11.4,83.8,9.3
		c20-1.4,38.7-6.3,59-3.9c28.6,3.4,33.9,15.7,55.9,25.1c2.4,1,5.1,2.1,7.9,3c12.7,4.1,25.7,5.7,39.2,6.6c14.1,1,28.9,1.3,43.9,3.1
		c10.4,1.2,20.7,3.2,31.1,5.5c16.5,3.6,33.4,7.8,50.3,10.5c9.5,1.5,19,2.7,28.2,3.3c20.3,1.5,40.5,1,62,3.1
		c6.7,0.6,12.9,1.4,19.1,2.2c17.5,2.2,34.2,4.2,52,5.9c17.6,1.7,36.8,3.1,56,3.2c12,0.1,23.7-0.3,35.4-0.4c25.5-0.3,51,0.8,76.4,3.4
		c32.8,3.5,65.4,9.6,96.8,12.5c7.8,0.7,15.2,1.3,23.1,2.2c9.7,1.1,19.7,2.8,29.4,4.5c70.9,12.2,141.4,25.6,214.2,34"/>
	<path class="st17" d="M94.7,138c46.6-15.1,153.7-10.8,228.6,1.8c7.1,1.2,14,2.4,20.6,3.8c25.1,5.2,54,10.9,83.5,8.7
		c19.9-1.4,38.6-6.3,58.9-4c28.6,3.3,34.4,15.3,56.5,24.7c2.5,1,5.1,2,7.9,3c12.7,4.1,25.6,5.7,39,6.7c14,1,28.7,1.5,43.6,3.4
		c10.3,1.3,20.6,3.3,31,5.6c16.4,3.6,33.4,7.7,50.3,10.4c9.5,1.5,19,2.6,28.1,3.2c20.2,1.4,40.3,0.8,61.8,2.8
		c6.7,0.6,12.9,1.5,19,2.3c17.4,2.3,33.9,4.4,51.6,6.2c17.5,1.8,36.6,3.3,55.9,3.4c12,0.1,23.7-0.3,35.4-0.5
		c25.5-0.4,51,0.8,76.3,3.4c32.8,3.6,65.4,9.7,96.8,12.5c7.8,0.7,15.2,1.2,23.1,2c9.7,1.1,19.7,2.7,29.5,4.4
		c71,12.2,141.4,25.6,214.2,34"/>
	<path class="st18" d="M96,132c47.1-14.2,154-9.9,228.8,2.1c7.1,1.1,14,2.3,20.6,3.6c25,4.9,53.8,10.4,83.2,8.2
		c19.8-1.5,38.5-6.3,58.7-4.1c28.6,3.2,34.9,15,57.1,24.3c2.5,1,5.1,2,7.9,3c12.6,4.1,25.5,5.8,38.7,6.9c13.9,1.1,28.5,1.8,43.3,3.7
		c10.3,1.3,20.5,3.4,30.9,5.6c16.4,3.6,33.5,7.7,50.3,10.3c9.5,1.5,18.9,2.5,28.1,3.1c20.1,1.3,40.1,0.5,61.6,2.6
		c6.6,0.7,12.9,1.5,18.9,2.4c17.2,2.4,33.6,4.6,51.1,6.5c17.4,1.9,36.5,3.5,55.8,3.6c12,0.1,23.6-0.3,35.3-0.5
		c25.5-0.4,50.9,0.7,76.3,3.4c32.7,3.6,65.4,9.9,96.7,12.5c7.7,0.7,15.2,1.1,23,1.9c9.7,1,19.7,2.7,29.5,4.4
		c71,12.2,141.5,25.5,214.2,34"/>
	<path class="st19" d="M97.3,125.9c47.6-13.4,154.3-9,229.1,2.5c7,1.1,13.9,2.2,20.5,3.4c24.9,4.7,53.6,9.9,82.9,7.6
		c19.8-1.5,38.4-6.3,58.6-4.2c28.5,3.1,35.3,14.6,57.7,23.9c2.5,1,5.1,2,7.9,3c12.6,4.1,25.3,5.9,38.5,7.1c13.8,1.2,28.3,2,43,4
		c10.2,1.4,20.4,3.4,30.8,5.7c16.4,3.6,33.5,7.7,50.3,10.3c9.5,1.4,18.9,2.5,28,3c20,1.2,39.9,0.2,61.4,2.4
		c6.6,0.7,12.8,1.6,18.8,2.4c17.1,2.5,33.3,4.8,50.7,6.8c18.5,2.2,37,3.5,55.6,3.8c12,0.1,23.6-0.4,35.2-0.5
		c25.4-0.4,50.9,0.7,76.2,3.4c32.7,3.7,65.4,10,96.7,12.6c7.7,0.6,15.1,1,23,1.8c9.7,1,19.7,2.7,29.5,4.4
		c71,12.2,141.5,25.4,214.2,34"/>
	<path class="st20" d="M98.6,119.8c48.1-12.5,154.6-8.1,229.3,2.9c7,1,13.9,2.1,20.5,3.2c24.8,4.4,53.4,9.3,82.6,7
		c19.7-1.6,38.3-6.4,58.5-4.3c28.5,2.9,35.8,14.2,58.3,23.5c2.5,1,5.1,2,7.9,3c12.5,4.1,25.2,6,38.2,7.2c13.7,1.3,28.1,2.2,42.8,4.3
		c10.2,1.4,20.3,3.5,30.6,5.8c16.4,3.6,33.5,7.7,50.3,10.2c9.5,1.4,18.9,2.4,28,2.9c20,1.1,39.7,0,61.2,2.2
		c6.6,0.7,12.8,1.6,18.7,2.5c17,2.6,33,5,50.3,7.1c18.4,2.4,36.9,3.7,55.5,4c12,0.1,23.6-0.4,35.2-0.6c25.4-0.5,50.8,0.7,76.1,3.4
		c32.7,3.7,65.4,10.2,96.6,12.6c7.7,0.6,15.1,0.9,22.9,1.7c9.7,1,19.7,2.6,29.5,4.3c71,12.1,141.5,25.4,214.3,34"/>
	<path class="st21" d="M99.9,113.8c48.7-11.7,154.9-7.2,229.5,3.3c7,1,13.9,2,20.5,3.1c24.7,4.2,53.2,8.8,82.3,6.4
		c19.6-1.6,38.2-6.4,58.3-4.4c28.5,2.8,36.3,13.8,58.9,23.1c2.5,1,5.1,2,7.9,2.9c12.5,4.1,25.1,6,38,7.4c13.6,1.4,27.9,2.4,42.5,4.5
		c10.1,1.5,20.2,3.6,30.5,5.9c16.3,3.6,33.5,7.7,50.3,10.1c9.5,1.4,18.9,2.3,27.9,2.8c19.9,1,39.5-0.3,60.9,2
		c6.6,0.7,12.7,1.7,18.6,2.6c16.8,2.7,32.6,5.2,49.8,7.4c18.3,2.5,36.8,3.9,55.3,4.2c12,0.1,23.5-0.4,35.1-0.6
		c25.4-0.5,50.8,0.6,76.1,3.4c32.7,3.8,65.4,10.3,96.6,12.6c7.7,0.6,15,0.9,22.9,1.6c9.7,0.9,19.7,2.6,29.5,4.3
		c71,12.1,141.6,25.3,214.3,34"/>
	<path class="st22" d="M101.2,107.7c49.2-10.8,155.3-6.3,229.7,3.7c7,0.9,13.8,1.8,20.4,2.9c24.6,4,53,8.3,82,5.8
		c19.6-1.7,38.1-6.4,58.2-4.5c28.4,2.7,36.7,13.5,59.5,22.7c2.5,1,5.1,2,7.9,2.9c12.5,4.1,24.9,6.1,37.7,7.6
		c13.5,1.5,27.6,2.6,42.2,4.8c10,1.5,20.1,3.6,30.4,5.9c16.3,3.7,33.5,7.7,50.3,10.1c9.5,1.4,18.9,2.2,27.9,2.6
		c19.8,0.9,39.3-0.6,60.7,1.7c6.6,0.7,12.7,1.7,18.5,2.7c16.7,2.8,32.3,5.4,49.4,7.7c18.3,2.6,36.7,4.1,55.2,4.5
		c12,0.1,23.5-0.4,35.1-0.6c25.4-0.5,50.8,0.6,76,3.5c32.7,3.8,65.4,10.5,96.6,12.6c7.7,0.5,15,0.8,22.9,1.5
		c9.7,0.9,19.7,2.6,29.5,4.2c71,12.1,141.6,25.2,214.3,34"/>
	<path class="st23" d="M102.5,101.6c49.7-10,155.6-5.4,229.9,4c6.9,0.9,13.8,1.7,20.4,2.7c24.5,3.7,52.8,7.8,81.7,5.2
		c19.5-1.7,38.1-6.4,58-4.6c28.4,2.6,37.2,13.1,60.2,22.3c2.5,1,5.1,2,8,2.9c12.4,4.1,24.8,6.2,37.4,7.7c13.4,1.6,27.4,2.8,41.9,5.1
		c10,1.6,20,3.7,30.3,6c16.3,3.7,33.5,7.6,50.4,10c9.2,1.3,18.5,2.1,27.9,2.5c19.7,0.8,39.2-0.8,60.5,1.5c6.6,0.7,12.6,1.8,18.4,2.8
		c16.6,2.9,32,5.6,48.9,8c18.2,2.7,36.6,4.3,55,4.7c12,0.1,23.5-0.4,35-0.7c25.4-0.6,50.7,0.6,75.9,3.5
		c32.6,3.9,65.4,10.6,96.5,12.6c7.7,0.5,15,0.7,22.8,1.4c9.7,0.9,19.7,2.5,29.5,4.2c71,12.1,141.7,25.2,214.3,34"/>
	<path class="st24" d="M103.8,95.6c50.2-9.2,155.9-4.5,230.1,4.4c6.9,0.8,13.8,1.6,20.4,2.6c24.5,3.5,52.6,7.3,81.4,4.7
		c19.4-1.8,38-6.4,57.9-4.7c28.3,2.4,37.6,12.7,60.8,21.9c2.5,1,5.2,2,8,2.9c12.4,4.1,24.6,6.3,37.2,7.9c13.3,1.7,27.2,3,41.6,5.4
		c9.9,1.6,19.9,3.8,30.2,6.1c16.2,3.7,33.5,7.6,50.4,9.9c9.2,1.3,18.5,2.1,27.8,2.4c19.6,0.7,39-1.1,60.3,1.3
		c6.6,0.7,12.6,1.8,18.3,2.8c16.4,2.9,31.7,5.8,48.5,8.3c18.2,2.8,36.5,4.5,54.9,4.9c12,0.1,23.4-0.5,35-0.7
		c25.3-0.6,50.7,0.6,75.9,3.5c32.6,3.9,65.4,10.8,96.5,12.7c7.7,0.5,14.9,0.6,22.8,1.3c9.7,0.8,19.7,2.5,29.5,4.2
		c71.1,12.1,141.7,25.1,214.3,34"/>
	<path class="st25" d="M105.1,89.5c50.8-8.3,156.2-3.6,230.3,4.8c6.9,0.8,13.7,1.5,20.3,2.4c24.4,3.3,52.4,6.8,81.1,4.1
		c19.4-1.9,37.9-6.4,57.8-4.8c28.3,2.3,38.1,12.3,61.4,21.5c2.5,1,5.2,2,8,2.9c12.4,4.1,24.5,6.3,36.9,8c13.2,1.8,27,3.3,41.3,5.7
		c9.9,1.7,19.8,3.8,30,6.2c16.2,3.7,33.5,7.6,50.4,9.9c9.2,1.2,18.5,2,27.8,2.3c19.6,0.5,38.8-1.4,60,1.1c6.6,0.8,12.5,1.9,18.2,2.9
		c16.3,3,31.4,6,48,8.6c16.6,2.6,35.5,4.8,54.7,5.1c12,0.2,23.4-0.5,34.9-0.8c25.3-0.6,50.6,0.5,75.8,3.5
		c32.6,4,65.4,10.9,96.4,12.7c7.7,0.4,14.9,0.5,22.7,1.2c9.7,0.8,19.8,2.5,29.5,4.1c71.1,12.1,141.7,25,214.3,34"/>
	<path class="st26" d="M106.3,83.4c51.3-7.5,156.5-2.7,230.6,5.2c6.9,0.7,13.7,1.4,20.3,2.2c24.3,3,52.2,6.3,80.8,3.5
		c19.3-1.9,37.8-6.4,57.6-4.9c28.3,2.2,38.6,12,62,21c2.6,1,5.2,2,8,2.9c12.3,4.1,24.4,6.4,36.7,8.2c13.1,1.9,26.8,3.5,41,6
		c9.8,1.7,19.7,3.9,29.9,6.3c16.2,3.7,33.5,7.6,50.4,9.8c9.2,1.2,18.5,1.9,27.7,2.2c19.5,0.4,38.6-1.6,59.8,0.9
		c6.6,0.8,12.5,1.9,18.2,3c16.2,3.1,31,6.2,47.6,8.9c16.4,2.7,35.4,5,54.6,5.3c12,0.2,23.4-0.5,34.9-0.8c25.3-0.7,50.6,0.5,75.7,3.5
		c32.6,4,65.4,11.1,96.4,12.7c7.7,0.4,14.9,0.5,22.7,1.1c9.7,0.8,19.8,2.4,29.6,4.1c71.1,12,141.8,25,214.4,34"/>
</g>
</svg>
