<svg xmlns="http://www.w3.org/2000/svg" width="17.706" height="18.315" viewBox="0 0 17.706 18.315"><defs><style>.a{fill:none;stroke:#2a2a2a;stroke-linecap:round;stroke-linejoin:round;}</style></defs><g transform="translate(0.5 0.5)"><line class="a" y2="3.103" transform="translate(4.773 9.785)"/><line class="a" x2="3.103" transform="translate(3.222 11.336)"/><path class="a" d="M9.384,7.708V5.453H5.8V7.708S2.994,8.9,2.821,10.53v8.741A2.071,2.071,0,0,0,4.76,20.978h5.734a2.047,2.047,0,0,0,1.9-1.706V10.53C12.206,9,9.384,7.708,9.384,7.708Z" transform="translate(-2.821 -3.663)"/><rect class="a" width="4.773" height="1.79" transform="translate(2.387)"/><rect class="a" width="9.547" height="5.967" transform="translate(0 8.353)"/><path class="a" d="M22.8,21.474h0a2.088,2.088,0,0,1-2.088-2.088V15.21A2.088,2.088,0,0,1,22.8,13.121h0a2.088,2.088,0,0,1,2.088,2.089v4.176A2.088,2.088,0,0,1,22.8,21.474Z" transform="translate(-8.185 -5.961)"/><line class="a" x2="4.177" transform="translate(12.53 11.336)"/></g></svg>