<svg xmlns="http://www.w3.org/2000/svg" width="24.9" height="20.958" viewBox="0 0 24.9 20.958"><defs><style>.a{fill:none;stroke:#231f20;stroke-linecap:round;stroke-linejoin:round;stroke-miterlimit:10;stroke-width:0.9px;}</style></defs><g transform="translate(-0.05 -0.05)"><g transform="translate(10.667 0.5)"><path class="a" d="M15.2,12.4V.5h7.608V20.558H15.2V17.722" transform="translate(-15.2 -0.5)"/><rect class="a" width="6.225" height="14.524" transform="translate(7.608 5.533)"/><rect class="a" width="2.075" height="2.767" transform="translate(2.767 17.291)"/><line class="a" x2="2.006" transform="translate(9.752 15.908)"/><line class="a" x2="2.006" transform="translate(9.752 13.833)"/><line class="a" x2="2.006" transform="translate(9.752 11.758)"/><line class="a" x2="2.006" transform="translate(9.752 9.683)"/><line class="a" x2="2.006" transform="translate(9.752 7.608)"/><line class="a" x2="0.622" transform="translate(2.144 14.524)"/><line class="a" x2="0.622" transform="translate(2.144 12.45)"/><line class="a" x2="0.622" transform="translate(2.144 10.375)"/><line class="a" x2="0.622" transform="translate(2.144 8.3)"/><line class="a" x2="0.622" transform="translate(2.144 6.225)"/><line class="a" x2="0.622" transform="translate(2.144 4.15)"/><line class="a" x2="0.622" transform="translate(2.144 2.075)"/><line class="a" x2="0.622" transform="translate(4.911 14.524)"/><line class="a" x2="0.622" transform="translate(4.911 12.45)"/><line class="a" x2="0.622" transform="translate(4.911 10.375)"/><line class="a" x2="0.622" transform="translate(4.911 8.3)"/><line class="a" x2="0.622" transform="translate(4.911 6.225)"/><line class="a" x2="0.622" transform="translate(4.911 4.15)"/><line class="a" x2="0.622" transform="translate(4.911 2.075)"/></g><g transform="translate(0.5 8.938)"><line class="a" y1="8.784" transform="translate(5.948 2.836)"/><path class="a" d="M9.1,23.009s.484-3.32,2.7-2.559" transform="translate(-3.152 -15.055)"/><path class="a" d="M8.175,22.252S7.137,20.039,6.1,21.077" transform="translate(-2.227 -15.198)"/><path class="a" d="M6.389,21.138A2.138,2.138,0,0,1,3,19.271a2.321,2.321,0,0,1,1.107-2.006A3.515,3.515,0,0,1,7.219,12.7,3.334,3.334,0,0,1,10.4,15.674a3.18,3.18,0,0,1,2.213,3.112,3.08,3.08,0,0,1-2.9,3.182,2.814,2.814,0,0,1-1.66-.553" transform="translate(-1.271 -12.7)"/><line class="a" x2="12.38" transform="translate(0 11.62)"/></g></g></svg>