<svg xmlns="http://www.w3.org/2000/svg" width="1338.789" height="403.364" viewBox="0 0 1338.789 403.364"><defs><style>.a,.aa,.ab,.ac,.ad,.ae,.af,.ag,.ah,.ai,.aj,.ak,.al,.am,.an,.b,.c,.d,.e,.f,.g,.h,.i,.j,.k,.l,.m,.n,.o,.p,.q,.r,.s,.t,.u,.v,.w,.x,.y,.z{fill:none;stroke:#ffc627;stroke-miterlimit:10;}.a{stroke-width:0.5px;}.b{stroke-width:0.508px;}.c{stroke-width:0.516px;}.d{stroke-width:0.525px;}.e{stroke-width:0.533px;}.f{stroke-width:0.541px;}.g{stroke-width:0.549px;}.h{stroke-width:0.557px;}.i{stroke-width:0.566px;}.j{stroke-width:0.574px;}.k{stroke-width:0.582px;}.l{stroke-width:0.59px;}.m{stroke-width:0.598px;}.n{stroke-width:0.607px;}.o{stroke-width:0.615px;}.p{stroke-width:0.623px;}.q{stroke-width:0.631px;}.r{stroke-width:0.639px;}.s{stroke-width:0.648px;}.t{stroke-width:0.656px;}.u{stroke-width:0.664px;}.v{stroke-width:0.672px;}.w{stroke-width:0.68px;}.x{stroke-width:0.689px;}.y{stroke-width:0.697px;}.z{stroke-width:0.705px;}.aa{stroke-width:0.713px;}.ab{stroke-width:0.721px;}.ac{stroke-width:0.73px;}.ad{stroke-width:0.738px;}.ae{stroke-width:0.746px;}.af{stroke-width:0.754px;}.ag{stroke-width:0.762px;}.ah{stroke-width:0.77px;}.ai{stroke-width:0.779px;}.aj{stroke-width:0.787px;}.ak{stroke-width:0.795px;}.al{stroke-width:0.803px;}.am{stroke-width:0.811px;}.an{stroke-width:0.82px;}</style></defs><g transform="matrix(-1, -0.017, 0.017, -1, 1331.994, 403.84)"><path class="a" d="M0,21.334c41.567-32.153,169.968-25.057,246.285,2,26.171,9.277,57.5,19.476,88.722,18.621,21.015-.575,40.152-6.183,61.222-2.275,32.6,6.047,25.606,25.668,54.189,34.725,26.915,8.529,59.981,1.14,91.728,2.542,29.129,1.287,55.674,10.056,83.288,15.89,110.25,23.292,234.64,7.714,345.829,17.074,125.013,10.524,240.214,42.625,364.667,54.964" transform="translate(0 215.461)"/><path class="b" d="M0,20.629C38.434-7.869,148.465-4.46,225.34,16.371c7.365,2,14.434,4.157,21.111,6.463,26.093,9.048,57.3,18.97,88.416,18.04,20.952-.627,40.066-6.2,61.086-2.375,29.184,5.294,27.079,21.37,46.951,31.187a55.264,55.264,0,0,0,7.833,3.122c13.2,4.192,27.826,4.615,43.035,4.136,15.73-.485,32.105-1.928,48.168-1.146a220.417,220.417,0,0,1,32.88,4.353c16.89,3.393,33.406,8.027,50.29,11.542q14.261,2.968,28.784,5.083c21.4,3.15,43.207,5.034,65.321,6.349q10.206.609,20.414,1.043c19.432.827,38.951,1.179,58.546,1.334,19.355.155,38.821.12,58.184.1,12.127-.009,24.193-.011,36.187.11,26.223.268,52.141,1.116,77.355,3.274,33.081,2.833,65.508,7.241,97.548,12.154,7.919,1.214,15.8,2.459,23.693,3.759q14.669,2.414,29.3,5.029c70.747,12.506,140.821,26.573,214.056,33.9" transform="translate(1.292 210.098)"/><path class="c" d="M0,19.924C38.938-7.734,148.775-4.255,225.542,16.043c7.343,1.95,14.415,4.045,21.076,6.293,26.069,8.8,57.1,18.464,88.114,17.459,20.889-.677,39.976-6.2,60.949-2.475,29.148,5.167,27.527,21,47.544,30.782a56.935,56.935,0,0,0,7.836,3.114c13.167,4.188,27.688,4.687,42.781,4.3,15.626-.386,31.9-1.712,47.887-.862a224.756,224.756,0,0,1,32.763,4.431c16.863,3.405,33.409,8.009,50.292,11.47q14.262,2.925,28.742,4.968c21.329,3.042,43.025,4.766,65.107,6.129q10.186.631,20.321,1.121c19.3.918,38.64,1.381,58.114,1.636,19.241.255,38.684.315,58.043.311,12.124,0,24.16-.031,36.138.075,26.163.231,52.093,1.088,77.287,3.282,33.062,2.88,65.5,7.395,97.5,12.175,7.905,1.182,15.761,2.38,23.649,3.653,9.78,1.576,19.559,3.27,29.313,4.991,70.757,12.489,140.857,26.51,214.059,33.909" transform="translate(2.583 204.735)"/><path class="d" d="M0,19.22C39.442-7.6,149.089-4.048,225.744,15.716c7.329,1.9,14.393,3.936,21.046,6.124C272.8,30.4,303.682,39.8,334.6,38.717c20.822-.728,39.881-6.215,60.813-2.573,29.111,5.041,27.971,20.621,48.133,30.376a58.349,58.349,0,0,0,7.844,3.1c13.134,4.186,27.549,4.762,42.531,4.462,15.518-.287,31.685-1.5,47.6-.579a229.18,229.18,0,0,1,32.649,4.505c16.832,3.419,33.408,7.992,50.292,11.4q14.263,2.882,28.7,4.851c21.254,2.934,42.848,4.5,64.889,5.91,6.786.434,13.517.845,20.232,1.2,19.175,1.01,38.325,1.581,57.681,1.939,19.128.357,38.547.511,57.9.519,12.118,0,24.127-.05,36.085.038,26.111.2,52.046,1.062,77.223,3.29,33.041,2.928,65.5,7.55,97.452,12.2,7.9,1.15,15.726,2.3,23.614,3.545,9.77,1.542,19.566,3.235,29.316,4.954,70.774,12.47,140.894,26.446,214.072,33.911" transform="translate(3.872 199.371)"/><path class="e" d="M0,18.54C39.946-7.438,149.484-3.877,225.947,15.41c7.314,1.846,14.362,3.826,21.011,5.956,25.958,8.314,56.688,17.451,87.51,16.3,20.755-.781,39.791-6.226,60.676-2.675,29.071,4.915,28.421,20.247,48.723,29.971a60.693,60.693,0,0,0,7.848,3.1c13.1,4.182,27.4,4.821,42.282,4.624,15.406-.2,31.476-1.282,47.319-.293a233.818,233.818,0,0,1,32.53,4.582c16.806,3.431,33.411,7.974,50.3,11.33,9.509,1.891,19.084,3.461,28.657,4.735,21.179,2.824,42.665,4.232,64.671,5.69,6.777.449,13.47.891,20.142,1.275,19.048,1.1,38.015,1.785,57.249,2.243,19.013.457,38.414.708,57.759.724,12.111.011,24.095-.069,36.033,0,26.059.161,52,1.036,77.16,3.3,33.021,2.973,65.489,7.7,97.406,12.221,7.886,1.116,15.686,2.22,23.569,3.437,9.771,1.511,19.576,3.2,29.329,4.916,70.783,12.45,140.931,26.382,214.08,33.915" transform="translate(5.164 193.986)"/><path class="f" d="M0,17.842C40.452-7.294,149.809-3.68,226.146,15.091c7.3,1.793,14.34,3.715,20.98,5.786,25.9,8.072,56.484,16.945,87.207,15.713,20.688-.832,39.7-6.237,60.535-2.773,29.039,4.787,28.871,19.872,49.322,29.565a62.217,62.217,0,0,0,7.852,3.087c13.064,4.18,27.263,4.892,42.027,4.789,15.3-.109,31.267-1.068,47.04-.011A239.305,239.305,0,0,1,573.522,75.9c16.775,3.444,33.415,7.957,50.3,11.261,9.5,1.861,19.075,3.393,28.614,4.617,21.1,2.716,42.483,3.966,64.452,5.47,6.77.466,13.428.939,20.054,1.355,18.919,1.195,37.7,1.987,56.819,2.545,18.9.557,38.273.9,57.617.931,12.1.017,24.058-.088,35.979-.034,26,.126,51.954,1.01,77.092,3.308,33,3.021,65.482,7.859,97.355,12.243,7.876,1.084,15.651,2.14,23.533,3.331,9.767,1.477,19.583,3.166,29.338,4.879,70.8,12.431,140.964,26.317,214.089,33.917" transform="translate(6.456 188.615)"/><path class="g" d="M0,17.147C40.958-7.149,150.139-3.48,226.35,14.772c7.277,1.743,14.314,3.606,20.946,5.617,25.843,7.83,56.279,16.437,86.9,15.131,20.621-.881,39.61-6.246,60.4-2.873,29,4.662,29.365,19.487,49.914,29.16a64.654,64.654,0,0,0,7.859,3.078c13.032,4.178,27.119,4.964,41.772,4.952,15.2-.013,31.057-.854,46.758.274A244.6,244.6,0,0,1,573.2,74.844c16.748,3.456,33.418,7.939,50.3,11.19,9.5,1.831,19.065,3.326,28.571,4.5,21.028,2.607,42.3,3.7,64.233,5.25,6.761.479,13.385.985,19.965,1.433,18.79,1.287,37.387,2.187,56.385,2.848,18.781.658,38.139,1.1,57.475,1.139,12.1.024,24.025-.108,35.926-.071,25.948.091,51.907.984,77.029,3.318,32.981,3.067,65.472,8.013,97.31,12.266,7.866,1.05,15.611,2.059,23.489,3.223,9.765,1.444,19.593,3.131,29.351,4.841,70.81,12.414,141,26.255,214.1,33.922" transform="translate(7.748 183.244)"/><path class="h" d="M0,16.452C41.469-7,150.471-3.28,226.556,14.454c7.263,1.692,14.288,3.5,20.915,5.447,25.784,7.589,56.075,15.933,86.6,14.55,20.557-.932,39.507-6.24,60.262-2.972,28.95,4.557,29.82,19.108,50.507,28.753A67.193,67.193,0,0,0,452.7,63.3c13,4.174,26.983,5.034,41.525,5.113,15.086.084,30.843-.626,46.471.559a251.51,251.51,0,0,1,32.176,4.81c16.725,3.469,33.421,7.921,50.3,11.12,9.51,1.8,19.06,3.259,28.537,4.384,20.948,2.5,42.114,3.434,64.014,5.031,6.748.494,13.338,1.03,19.871,1.511,18.662,1.378,37.075,2.39,55.951,3.149,18.666.759,38,1.3,57.333,1.347,12.092.029,23.992-.128,35.873-.106,25.9.055,51.863.954,76.965,3.324,32.961,3.115,65.466,8.168,97.26,12.288,7.857,1.018,15.576,1.98,23.449,3.117,9.766,1.411,19.6,3.1,29.36,4.8,70.823,12.393,141.039,26.19,214.107,33.925" transform="translate(9.037 177.871)"/><path class="i" d="M0,15.758C41.977-6.857,150.794-3.079,226.762,14.138c7.24,1.641,14.26,3.385,20.88,5.277,25.72,7.347,55.874,15.425,86.3,13.969,20.49-.985,39.417-6.249,60.125-3.073,28.915,4.435,30.276,18.733,51.1,28.349a69.39,69.39,0,0,0,7.867,3.061C466,65.89,479.877,66.824,494.3,67c14.98.179,30.633-.41,46.188.843a258.317,258.317,0,0,1,32.061,4.884c16.694,3.482,33.421,7.9,50.3,11.05,9.51,1.772,19.046,3.192,28.495,4.268,20.872,2.389,41.931,3.166,63.794,4.81,6.74.509,13.3,1.076,19.781,1.588,18.533,1.472,36.763,2.593,55.52,3.453,18.548.861,37.859,1.492,57.187,1.553,12.09.038,23.959-.146,35.825-.141,25.837.021,51.811.928,76.9,3.334,32.94,3.16,65.459,8.322,97.21,12.31,7.847.986,15.539,1.9,23.413,3.011,9.761,1.376,19.606,3.06,29.368,4.765,70.838,12.375,141.077,26.127,214.117,33.928" transform="translate(10.328 172.497)"/><path class="j" d="M0,15.065C42.486-6.709,151.118-2.876,226.967,13.822c7.221,1.589,14.23,3.276,20.849,5.108,25.651,7.1,55.665,14.919,85.988,13.386,20.423-1.034,39.327-6.256,59.988-3.171,28.876,4.311,30.732,18.355,51.7,27.942a71.766,71.766,0,0,0,7.875,3.052c12.928,4.168,26.7,5.177,41.015,5.441,14.874.275,30.423-.193,45.908,1.127a265.158,265.158,0,0,1,31.938,4.962c16.668,3.495,33.425,7.886,50.3,10.98,9.511,1.742,19.037,3.125,28.452,4.15,20.793,2.282,41.748,2.9,63.575,4.591,6.731.524,13.253,1.122,19.692,1.666,18.4,1.563,36.446,2.793,55.084,3.755,18.434.961,37.726,1.688,57.044,1.76,12.083.044,23.927-.166,35.772-.178,25.785-.014,51.767.9,76.834,3.342,32.921,3.208,65.454,8.476,97.165,12.333,7.836.954,15.5,1.82,23.369,2.9,9.76,1.342,19.616,3.025,29.381,4.728,70.846,12.356,141.111,26.063,214.126,33.93" transform="translate(11.62 167.122)"/><path class="k" d="M0,14.375C42.995-6.56,151.442-2.672,227.17,13.507c7.2,1.54,14.2,3.166,20.819,4.94,25.587,6.862,55.46,14.413,85.683,12.8,20.355-1.085,39.232-6.264,59.846-3.272,28.844,4.188,31.195,17.981,52.3,27.537A74.68,74.68,0,0,0,453.7,58.56c12.891,4.164,26.563,5.247,40.763,5.6,14.764.371,30.209.024,45.62,1.412A272.9,272.9,0,0,1,571.9,70.61c16.641,3.508,33.429,7.869,50.309,10.911,9.511,1.712,19.028,3.056,28.409,4.033,20.717,2.174,41.565,2.634,63.356,4.372,6.723.539,13.21,1.168,19.6,1.744,18.274,1.655,36.132,2.994,54.648,4.058,18.319,1.061,37.588,1.885,56.906,1.967,12.073.051,23.889-.187,35.715-.215,25.734-.049,51.725.876,76.771,3.352,32.9,3.254,65.443,8.63,97.114,12.355,7.826.92,15.464,1.74,23.333,2.8,9.751,1.309,19.623,2.99,29.391,4.691,70.86,12.335,141.149,26,214.137,33.934" transform="translate(12.912 161.746)"/><path class="l" d="M0,13.684C43.509-6.41,151.768-2.466,227.381,13.194c7.185,1.488,14.173,3.056,20.784,4.771,25.519,6.619,55.254,13.905,85.375,12.222,20.3-1.138,39.146-6.273,59.713-3.371,28.8,4.062,31.651,17.6,52.9,27.131a77.745,77.745,0,0,0,7.886,3.034c12.858,4.162,26.426,5.318,40.511,5.767,14.662.466,30,.24,45.335,1.7a280.62,280.62,0,0,1,31.705,5.112c16.61,3.52,33.428,7.852,50.309,10.84,9.507,1.683,19.018,2.989,28.366,3.917,20.641,2.065,41.381,2.366,63.135,4.152,6.714.553,13.167,1.214,19.517,1.822,18.141,1.746,35.815,3.2,54.211,4.36,18.2,1.161,37.445,2.08,56.758,2.173,12.071.058,23.857-.206,35.666-.25a750.121,750.121,0,0,1,76.7,3.361c32.876,3.3,65.438,8.784,97.069,12.376,7.817.888,15.424,1.66,23.289,2.69,9.752,1.277,19.634,2.955,29.4,4.653,70.879,12.318,141.188,25.934,214.152,33.938" transform="translate(14.201 156.368)"/><path class="m" d="M0,13C44.02-6.258,152.091-2.259,227.586,12.883c7.165,1.437,14.146,2.944,20.753,4.6,25.45,6.378,55.048,13.4,85.07,11.641,20.228-1.187,39.056-6.282,59.576-3.471,28.769,3.94,32.111,17.227,53.5,26.726a81.021,81.021,0,0,0,7.89,3.026c12.825,4.158,26.29,5.388,40.255,5.928,14.556.563,29.788.456,45.051,1.979A290.045,290.045,0,0,1,571.264,68.5c16.583,3.536,33.432,7.835,50.314,10.771,9.507,1.653,19.009,2.922,28.323,3.8,20.565,1.957,41.2,2.1,62.916,3.932,6.705.569,13.124,1.262,19.427,1.9,18.011,1.838,35.5,3.4,53.773,4.661,18.085,1.265,37.311,2.277,56.616,2.381,12.064.065,23.823-.225,35.613-.285a729.649,729.649,0,0,1,76.64,3.368c32.856,3.347,65.432,8.94,97.02,12.4,7.807.856,15.388,1.579,23.253,2.582,9.747,1.243,19.641,2.921,29.409,4.617,70.889,12.3,141.226,25.87,214.162,33.94" transform="translate(15.492 150.989)"/><path class="n" d="M0,12.308C44.533-6.1,152.409-2.05,227.794,12.572c7.147,1.387,14.116,2.836,20.719,4.431,25.377,6.135,54.842,12.893,84.764,11.058,20.161-1.238,38.961-6.289,59.439-3.569,28.733,3.815,32.57,16.851,54.1,26.319a83.9,83.9,0,0,0,7.9,3.017c12.788,4.156,26.149,5.46,40,6.091,14.454.659,29.573.673,44.766,2.264a298.955,298.955,0,0,1,31.467,5.264C587.5,71,604.378,75.266,621.26,78.15c9.507,1.623,19,2.855,28.281,3.683,20.489,1.847,41.014,1.832,62.7,3.712,6.693.584,13.077,1.308,19.333,1.978,17.881,1.931,35.182,3.6,53.335,4.965,17.97,1.365,37.173,2.473,56.474,2.589,12.057.07,23.79-.245,35.56-.322a710.234,710.234,0,0,1,76.577,3.378c32.836,3.393,65.426,9.094,96.974,12.42,7.793.823,15.348,1.5,23.208,2.476,9.747,1.21,19.652,2.887,29.422,4.578,70.9,12.28,141.262,25.807,214.17,33.944" transform="translate(16.784 145.609)"/><path class="o" d="M0,11.624C45.046-5.948,152.733-1.839,228,12.264c7.129,1.336,14.09,2.726,20.688,4.263,25.3,5.894,54.641,12.388,84.459,10.477,20.093-1.291,38.87-6.3,59.3-3.671,28.7,3.692,33.031,16.476,54.7,25.915,2.431,1.058,5.033,2.072,7.9,3.007,12.755,4.154,26,5.436,39.75,6.256,14.361.855,29.357.889,44.48,2.548a309.67,309.67,0,0,1,31.348,5.34c16.525,3.56,33.436,7.8,50.319,10.63,9.508,1.595,18.99,2.788,28.242,3.566,20.409,1.739,40.826,1.568,62.475,3.493,6.684.6,13.034,1.352,19.243,2.056,17.752,2.023,34.866,3.8,52.9,5.268,17.846,1.465,37.034,2.669,56.327,2.8,12.055.078,23.758-.265,35.511-.359a692.051,692.051,0,0,1,76.509,3.385c32.816,3.441,65.416,9.248,96.925,12.444,7.787.79,15.313,1.421,23.172,2.37,9.742,1.175,19.658,2.851,29.431,4.54,70.918,12.261,141.3,25.743,214.182,33.948" transform="translate(18.076 140.226)"/><path class="p" d="M0,10.941C45.563-5.789,153.053-1.625,228.214,11.96c7.106,1.284,14.054,2.614,20.653,4.092,25.227,5.651,54.434,11.88,84.153,9.895,20.026-1.341,38.78-6.307,59.159-3.77,28.661,3.567,33.491,16.1,55.3,25.508,2.44,1.052,5.038,2.063,7.906,3,12.721,4.149,25.875,5.6,39.491,6.418,14.241.852,29.147,1.1,44.195,2.832,10.447,1.2,20.785,3.158,31.228,5.417,16.5,3.573,33.445,7.782,50.324,10.559,9.509,1.566,18.981,2.721,28.2,3.451,20.333,1.631,40.641,1.3,62.254,3.272,6.676.614,12.992,1.4,19.153,2.136,17.622,2.115,34.548,4,52.463,5.57,17.73,1.565,36.9,2.866,56.182,3,12.049.085,23.726-.283,35.458-.394a674.818,674.818,0,0,1,76.447,3.4c32.8,3.486,65.411,9.4,96.875,12.465,7.777.758,15.277,1.342,23.133,2.263,9.742,1.142,19.669,2.816,29.443,4.5,70.928,12.243,141.338,25.678,214.194,33.951" transform="translate(19.365 134.84)"/><path class="q" d="M0,10.263C46.077-5.629,153.37-1.408,228.421,11.656c7.091,1.235,14.027,2.505,20.622,3.924,25.151,5.41,54.228,11.374,83.847,9.312,19.962-1.392,38.689-6.315,59.021-3.869,28.626,3.445,33.949,15.722,55.906,25.1,2.449,1.046,5.053,2.054,7.914,2.99,12.684,4.146,25.738,5.676,39.234,6.581,14.139.95,28.935,1.322,43.908,3.117,10.389,1.246,20.686,3.226,31.113,5.493,16.467,3.585,33.444,7.764,50.324,10.488,9.51,1.536,18.972,2.654,28.157,3.334,20.257,1.523,40.457,1.034,62.033,3.053,6.667.627,12.948,1.446,19.063,2.213,17.492,2.208,34.231,4.2,52.023,5.872,17.614,1.665,36.756,3.061,56.044,3.209,12.039.092,23.688-.3,35.405-.431a658.291,658.291,0,0,1,76.379,3.4c32.776,3.534,65.405,9.558,96.831,12.489,7.763.724,15.236,1.261,23.092,2.155,9.734,1.108,19.676,2.782,29.449,4.465,70.947,12.222,141.381,25.614,214.21,33.954" transform="translate(20.657 129.453)"/><path class="r" d="M0,9.586C46.592-5.466,153.688-1.188,228.632,11.356c7.068,1.183,13.992,2.4,20.587,3.754,25.07,5.17,54.021,10.868,83.54,8.733,19.893-1.444,38.6-6.326,58.883-3.969,28.59,3.32,34.407,15.345,56.508,24.7,2.462,1.04,5.068,2.047,7.922,2.983,12.65,4.143,25.6,5.748,38.976,6.744,14.037,1.044,28.719,1.537,43.622,3.4,10.332,1.292,20.59,3.295,30.993,5.567,16.441,3.6,33.448,7.747,50.329,10.419,9.51,1.506,18.958,2.587,28.114,3.218,20.181,1.414,40.273.766,61.812,2.833,6.658.642,12.9,1.491,18.972,2.29,17.362,2.3,33.915,4.407,51.587,6.175,17.5,1.769,36.617,3.258,55.9,3.417,12.036.1,23.655-.323,35.352-.466a641.905,641.905,0,0,1,76.316,3.411c32.757,3.58,65.4,9.712,96.782,12.511,7.758.692,15.2,1.18,23.052,2.048,9.734,1.075,19.683,2.747,29.463,4.427,70.958,12.2,141.418,25.551,214.224,33.958" transform="translate(21.948 124.062)"/><path class="s" d="M0,8.912C47.113-5.3,154.01-.964,228.844,11.059c7.05,1.133,13.962,2.285,20.557,3.585,24.988,4.928,53.814,10.362,83.233,8.15,19.826-1.494,38.507-6.333,58.745-4.069,28.554,3.2,34.871,14.97,57.117,24.292,2.471,1.034,5.078,2.038,7.922,2.973,12.617,4.14,25.465,5.82,38.726,6.907,13.93,1.142,28.5,1.753,43.335,3.686,10.27,1.338,20.486,3.362,30.869,5.643,16.413,3.611,33.452,7.729,50.334,10.349,9.506,1.477,18.949,2.52,28.071,3.1,20.1,1.306,40.087.5,61.594,2.613,6.646.659,12.854,1.539,18.878,2.369,17.231,2.393,33.594,4.608,51.146,6.478,17.379,1.869,36.478,3.454,55.753,3.625,12.03.1,23.622-.342,35.3-.5a626.928,626.928,0,0,1,76.252,3.42c32.737,3.628,65.391,9.866,96.737,12.534,7.744.66,15.161,1.1,23.012,1.941,9.729,1.043,19.689,2.712,29.472,4.391,70.973,12.184,141.458,25.487,214.233,33.961" transform="translate(23.237 118.668)"/><path class="t" d="M0,8.242C47.63-5.129,154.326-.736,229.057,10.767c7.027,1.082,13.926,2.174,20.522,3.415,24.907,4.686,53.606,9.854,82.926,7.568,19.758-1.545,38.412-6.342,58.6-4.168,28.522,3.07,35.334,14.594,57.724,23.886,2.48,1.028,5.088,2.029,7.93,2.964,12.58,4.138,25.327,5.892,38.468,7.07,13.828,1.24,28.29,1.969,43.048,3.969,10.212,1.385,20.391,3.432,30.754,5.721,16.382,3.623,33.452,7.71,50.335,10.278,9.506,1.447,18.939,2.451,28.027,2.984,20.028,1.2,39.9.232,61.373,2.393,6.637.672,12.81,1.583,18.787,2.447,17.1,2.485,33.277,4.811,50.7,6.78a538.85,538.85,0,0,0,55.609,3.83c12.024.112,23.589-.362,35.25-.538A612.205,612.205,0,0,1,945.3,92.8c32.712,3.673,65.385,10.02,96.688,12.556,7.733.626,15.125,1.02,22.972,1.833,9.729,1.01,19.7,2.677,29.486,4.354,70.988,12.165,141.5,25.422,214.246,33.963" transform="translate(24.529 113.27)"/><path class="u" d="M0,7.576C48.147-4.953,154.637-.5,229.267,10.478c7.008,1.03,13.9,2.064,20.491,3.247,24.817,4.446,53.4,9.349,82.619,6.987,19.689-1.6,38.321-6.351,58.464-4.269,28.487,2.946,35.795,14.219,58.33,23.481,2.493,1.023,5.1,2.02,7.939,2.956,12.546,4.134,25.19,5.965,38.209,7.233,13.724,1.336,28.072,2.184,42.761,4.253,10.154,1.43,20.295,3.5,30.633,5.8,16.355,3.637,33.456,7.693,50.341,10.209,9.507,1.417,18.931,2.384,27.985,2.867,19.951,1.088,39.717-.034,61.151,2.174,6.633.687,12.767,1.629,18.7,2.525,16.969,2.576,32.955,5.012,50.267,7.083a508.4,508.4,0,0,0,55.461,4.037c12.021.117,23.556-.382,35.2-.575a598.489,598.489,0,0,1,76.122,3.437c32.693,3.721,65.381,10.176,96.643,12.578,7.724.594,15.084.941,22.931,1.727,9.725.976,19.708,2.642,29.491,4.316,71,12.147,141.54,25.358,214.264,33.967" transform="translate(25.821 107.868)"/><path class="v" d="M0,6.917C48.666-4.772,154.949-.265,229.481,10.194c6.985.98,13.86,1.955,20.456,3.078,24.732,4.206,53.2,8.843,82.306,6.4,19.63-1.648,38.234-6.36,58.33-4.367,28.451,2.821,36.257,13.842,58.941,23.075,2.5,1.017,5.113,2.011,7.938,2.946,12.513,4.132,25.057,6.039,37.954,7.4,13.622,1.434,27.859,2.4,42.473,4.538,10.1,1.475,20.2,3.568,30.514,5.871,16.328,3.649,33.461,7.675,50.346,10.138,9.507,1.387,18.921,2.317,27.946,2.751,19.871.98,39.531-.3,60.925,1.954,6.624.7,12.723,1.675,18.606,2.6,16.838,2.668,32.637,5.213,49.824,7.385a480.912,480.912,0,0,0,55.322,4.244c12.011.124,23.518-.4,35.139-.612a585.033,585.033,0,0,1,76.059,3.447c32.673,3.767,65.376,10.33,96.595,12.6,7.714.562,15.049.86,22.891,1.621,9.724.941,19.719,2.606,29.505,4.278,71.018,12.127,141.582,25.294,214.278,33.969" transform="translate(27.113 102.461)"/><path class="w" d="M0,6.263C49.19-4.586,155.267-.019,229.7,9.918c6.962.929,13.825,1.845,20.42,2.906,24.638,3.967,52.988,8.337,82,5.823,19.561-1.7,38.143-6.369,58.192-4.467,28.415,2.7,36.719,13.467,59.548,22.668,2.512,1.014,5.128,2,7.947,2.938,12.476,4.13,24.919,6.112,37.7,7.559,13.52,1.534,27.643,2.617,42.185,4.822,10.03,1.522,20.095,3.638,30.393,5.947,16.3,3.663,33.461,7.658,50.348,10.069,9.508,1.358,18.912,2.25,27.9,2.633,19.794.872,39.346-.566,60.7,1.734,6.616.717,12.681,1.723,18.52,2.681,16.7,2.761,32.315,5.416,49.377,7.687a455.55,455.55,0,0,0,55.178,4.452c12,.131,23.486-.42,35.09-.645a572.35,572.35,0,0,1,75.992,3.454c32.654,3.815,65.367,10.485,96.55,12.623,7.7.529,15.008.781,22.851,1.515,9.715.908,19.726,2.571,29.514,4.239,71.031,12.109,141.62,25.231,214.294,33.975" transform="translate(28.402 97.047)"/><path class="x" d="M0,5.616C49.71-4.392,155.582.235,229.912,9.649c6.944.879,13.79,1.736,20.39,2.738,24.549,3.729,52.78,7.831,81.69,5.24,19.493-1.749,38.056-6.378,58.049-4.566,28.384,2.571,37.186,13.09,60.161,22.262,2.525,1.008,5.138,2,7.955,2.931,12.442,4.125,24.78,6.183,37.438,7.722,13.416,1.63,27.425,2.831,41.9,5.106,9.972,1.569,19.995,3.706,30.272,6.023,16.27,3.675,33.466,7.64,50.353,10a277.38,277.38,0,0,0,27.86,2.517c19.717.762,39.16-.834,60.484,1.514,6.6.732,12.633,1.769,18.424,2.759,16.571,2.853,31.993,5.617,48.933,7.99a432.945,432.945,0,0,0,55.034,4.659c12,.139,23.453-.44,35.036-.682a559.905,559.905,0,0,1,75.925,3.463c32.638,3.86,65.366,10.638,96.506,12.645,7.694.5,14.973.7,22.811,1.407,9.715.874,19.737,2.536,29.528,4.2,71.046,12.09,141.662,25.166,214.308,33.977" transform="translate(29.693 91.626)"/><path class="y" d="M0,4.979C50.232-4.189,155.893.5,230.128,9.388c6.921.829,13.755,1.627,20.355,2.569,24.455,3.49,52.571,7.323,81.381,4.659,19.425-1.8,37.964-6.389,57.91-4.667,28.348,2.448,37.65,12.716,60.77,21.857,2.534,1,5.153,1.987,7.963,2.921,12.4,4.122,24.642,6.258,37.177,7.885C509,46.342,522.9,47.659,537.293,50c9.913,1.614,19.9,3.774,30.156,6.1,16.239,3.687,33.47,7.622,50.354,9.928a270.972,270.972,0,0,0,27.817,2.4c19.64.654,38.974-1.1,60.262,1.3,6.594.746,12.589,1.815,18.333,2.837,16.44,2.944,31.673,5.818,48.494,8.292a412.1,412.1,0,0,0,54.885,4.866c12,.144,23.419-.459,34.983-.719a548.276,548.276,0,0,1,75.862,3.471c32.618,3.908,65.362,10.794,96.458,12.668,7.684.464,14.937.622,22.77,1.3,9.716.841,19.749,2.5,29.538,4.165,71.066,12.071,141.7,25.1,214.325,33.981" transform="translate(30.985 86.196)"/><path class="z" d="M0,4.352C50.75-3.975,156.205.774,230.341,9.138c6.9.779,13.72,1.518,20.325,2.4,24.357,3.252,52.363,6.817,81.071,4.077,19.361-1.851,37.873-6.4,57.772-4.766,28.311,2.321,38.114,12.34,61.385,21.45,2.543,1,5.164,1.978,7.963,2.913,12.371,4.119,24.509,6.331,36.925,8.047,13.21,1.827,26.992,3.263,41.314,5.676,9.855,1.659,19.8,3.842,30.036,6.174,16.212,3.7,33.475,7.607,50.36,9.859a265.992,265.992,0,0,0,27.775,2.282c19.556.532,38.787-1.366,60.038,1.075,6.586.762,12.545,1.861,18.242,2.916,16.308,3.036,31.353,6.019,48.048,8.595,16.556,2.575,35.5,4.828,54.741,5.073,11.99.151,23.387-.479,34.934-.756a536.794,536.794,0,0,1,75.8,3.481c32.6,3.955,65.357,10.948,96.413,12.69,7.669.43,14.9.542,22.729,1.193,9.711.809,19.756,2.467,29.548,4.128,71.077,12.051,141.747,25.038,214.34,33.983" transform="translate(32.277 80.755)"/><path class="aa" d="M0,3.739C51.277-3.748,156.522,1.064,230.563,8.9c6.88.728,13.68,1.408,20.289,2.23,24.259,3.016,52.158,6.31,80.762,3.494,19.292-1.9,37.781-6.407,57.632-4.866,28.275,2.2,38.575,11.964,62,21.045,2.553.991,5.179,1.971,7.972,2.9,12.337,4.117,24.37,6.4,36.664,8.212,13.107,1.925,26.777,3.477,41.028,5.958,9.792,1.706,19.7,3.912,29.91,6.252,16.184,3.713,33.48,7.588,50.366,9.788a259.523,259.523,0,0,0,27.731,2.166c19.478.422,38.6-1.634,59.814.855,6.578.777,12.5,1.907,18.15,2.993,16.177,3.129,31.03,6.223,47.6,8.9,16.439,2.675,35.363,5.023,54.6,5.279,11.988.159,23.354-.5,34.881-.791a526.017,526.017,0,0,1,75.731,3.489c32.58,4,65.354,11.1,96.365,12.712,7.664.4,14.86.462,22.689,1.086,9.712.776,19.764,2.432,29.563,4.092,71.094,12.032,141.785,24.973,214.356,33.987" transform="translate(33.566 75.3)"/><path class="ab" d="M0,3.144C51.8-3.5,156.831,1.37,230.777,8.683c6.861.678,13.646,1.3,20.258,2.06,24.162,2.782,51.95,5.805,80.453,2.915,19.223-1.955,37.689-6.417,57.493-4.965,28.239,2.069,39.04,11.589,62.609,20.639,2.565.985,5.189,1.961,7.98,2.895a218.267,218.267,0,0,0,36.4,8.375c13,2.025,26.558,3.692,40.738,6.243,9.734,1.752,19.6,3.98,29.794,6.326,16.153,3.726,33.48,7.571,50.368,9.719a253.642,253.642,0,0,0,27.688,2.048c19.4.314,38.413-1.9,59.591.637,6.569.791,12.459,1.953,18.059,3.07,16.044,3.221,30.709,6.424,47.161,9.2,16.317,2.776,35.222,5.221,54.451,5.487,11.978.165,23.316-.517,34.824-.827A515.224,515.224,0,0,1,934.316,86c32.555,4.047,65.345,11.257,96.321,12.735,7.65.366,14.819.381,22.649.98,9.706.741,19.77,2.4,29.572,4.052,71.1,12.013,141.829,24.91,214.372,33.99" transform="translate(34.858 69.829)"/><path class="ac" d="M0,2.568C52.325-3.239,157.145,1.7,231,8.484c6.838.628,13.607,1.192,20.223,1.892,24.06,2.547,51.74,5.3,80.142,2.332,19.155-2,37.6-6.426,57.35-5.066,28.211,1.944,39.512,11.214,63.231,20.234,2.571.979,5.2,1.952,7.98,2.887A227.976,227.976,0,0,0,496.069,39.3c12.9,2.123,26.343,3.907,40.447,6.527,9.671,1.8,19.5,4.048,29.673,6.4,16.126,3.738,33.485,7.553,50.373,9.647a247.625,247.625,0,0,0,27.649,1.934c19.316.2,38.222-2.168,59.363.415,6.56.807,12.415,2,17.968,3.15,15.912,3.313,30.388,6.625,46.715,9.5,16.2,2.877,35.081,5.416,54.307,5.695,11.971.171,23.283-.537,34.774-.863a505.153,505.153,0,0,1,75.6,3.505c32.536,4.1,65.341,11.411,96.273,12.757,7.641.333,14.784.3,22.608.874,9.706.707,19.782,2.362,29.587,4.015,71.122,11.994,141.869,24.846,214.389,33.992" transform="translate(36.149 64.337)"/><path class="ad" d="M0,2.018c52.851-4.965,157.457.037,231.213,6.294,6.819.578,13.571,1.083,20.192,1.722,23.962,2.312,51.531,4.792,79.832,1.75,19.085-2.055,37.506-6.435,57.211-5.164,28.175,1.818,39.976,10.839,63.846,19.828,2.584.973,5.214,1.943,7.988,2.877a238.723,238.723,0,0,0,35.888,8.7c12.8,2.224,26.123,4.122,40.152,6.81,9.613,1.842,19.4,4.118,29.552,6.48,16.1,3.751,33.49,7.535,50.379,9.576a241.723,241.723,0,0,0,27.606,1.817c19.239.1,38.036-2.432,59.143.2,6.547.82,12.367,2.046,17.872,3.228,15.779,3.4,30.062,6.826,46.268,9.8,16.077,2.977,34.944,5.612,54.162,5.9,11.97.18,23.25-.557,34.721-.9a495.559,495.559,0,0,1,75.539,3.515C964.08,88.6,996.9,96.02,1027.793,97.234c7.63.3,14.742.221,22.568.766,9.7.674,19.789,2.328,29.592,3.977,71.142,11.977,141.917,24.783,214.407,34" transform="translate(37.441 58.819)"/><path class="ae" d="M0,1.5c53.382-4.124,157.774.943,231.437,6.671,6.8.528,13.532.975,20.157,1.553,23.861,2.081,51.321,4.284,79.521,1.169,19.021-2.108,37.413-6.446,57.071-5.264,28.139,1.691,40.443,10.462,64.461,19.421,2.593.967,5.229,1.936,8,2.868a250.877,250.877,0,0,0,35.625,8.864c12.693,2.323,25.9,4.338,39.861,7.1,9.554,1.887,19.3,4.186,29.434,6.555,16.072,3.765,33.491,7.518,50.381,9.507a236.008,236.008,0,0,0,27.564,1.7c19.16-.013,37.847-2.7,58.919-.024,6.539.835,12.319,2.09,17.78,3.306,15.647,3.5,29.741,7.029,45.824,10.107,15.956,3.078,34.8,5.807,54.013,6.107,11.963.185,23.217-.577,34.667-.935a486.236,486.236,0,0,1,75.476,3.523c32.5,4.188,65.333,11.721,96.181,12.8,7.621.268,14.706.141,22.527.658,9.7.64,19.8,2.293,29.607,3.94,71.156,11.956,141.957,24.717,214.425,34" transform="translate(38.73 53.266)"/><path class="af" d="M0,1.034C53.91-2.25,158.083,2.884,231.655,8.081c6.773.478,13.5.868,20.126,1.383,23.76,1.851,51.111,3.78,79.206.588,18.957-2.157,37.325-6.457,56.936-5.363,28.1,1.566,40.908,10.088,65.083,19.016,2.6.961,5.235,1.927,8,2.86a265.045,265.045,0,0,0,35.363,9.027c12.594,2.423,25.687,4.552,39.574,7.38,9.491,1.933,19.2,4.253,29.309,6.63,16.045,3.777,33.5,7.5,50.387,9.436a230.432,230.432,0,0,0,27.52,1.583c19.083-.121,37.66-2.966,58.694-.242,6.53.85,12.275,2.136,17.688,3.382,15.514,3.589,29.418,7.231,45.375,10.411,15.838,3.179,34.658,6,53.868,6.314,11.957.192,23.184-.6,34.618-.972a477.026,477.026,0,0,1,75.409,3.533c32.477,4.235,65.325,11.875,96.133,12.824,7.61.235,14.67.062,22.491.552a293.764,293.764,0,0,1,29.617,3.9c71.172,11.938,142,24.654,214.443,34" transform="translate(40.022 47.668)"/><path class="ag" d="M0,.624C54.438-1.819,158.4,3.382,231.877,8.048c6.751.43,13.458.761,20.091,1.215,23.653,1.619,50.905,3.274,78.894,0C349.749,7.059,368.1,2.8,387.654,3.806c28.075,1.44,41.379,9.713,65.7,18.61,2.612.957,5.25,1.918,8.005,2.85a281.319,281.319,0,0,0,35.1,9.19c12.491,2.524,25.471,4.768,39.282,7.663,9.432,1.98,19.1,4.323,29.188,6.706,16.017,3.79,33.5,7.483,50.393,9.367a225.709,225.709,0,0,0,27.478,1.467c19.005-.229,37.472-3.234,58.469-.464a170.564,170.564,0,0,1,17.6,3.461c15.381,3.681,29.091,7.432,44.926,10.712,15.72,3.28,34.521,6.2,53.727,6.523,11.951.2,23.147-.616,34.561-1.007a468.165,468.165,0,0,1,75.346,3.539c32.458,4.283,65.321,12.029,96.09,12.848,7.6.2,14.63-.019,22.446.444,9.693.574,19.82,2.223,29.631,3.866,71.185,11.919,142.042,24.59,214.462,34.006" transform="translate(41.313 42.01)"/><path class="ah" d="M0,.295c54.971-1.6,158.717,3.666,232.1,7.8,6.728.378,13.408.472,20.055,1.044,23.586,2.03,50.695,2.766,78.582-.576C349.559,6.3,367.907,2.179,387.394,3c28,1.183,41.846,9.339,66.324,18.205,2.625.951,5.265,1.909,8.014,2.843A300.324,300.324,0,0,0,496.576,33.4c12.383,2.625,25.25,4.983,38.985,7.948,9.373,2.023,19,4.391,29.07,6.783,15.986,3.8,33.505,7.465,50.4,9.3a220.463,220.463,0,0,0,27.434,1.349c18.924-.337,37.284-3.5,58.244-.683a161.645,161.645,0,0,1,17.509,3.54c15.244,3.774,28.764,7.633,44.476,11.014,15.6,3.38,34.375,6.4,53.577,6.729,11.945.207,23.114-.634,34.512-1.042a459.58,459.58,0,0,1,75.28,3.549c32.438,4.329,65.316,12.183,96.041,12.869,7.591.17,14.594-.1,22.41.338,9.69.542,19.828,2.189,29.638,3.827,71.206,11.9,142.092,24.527,214.484,34.01" transform="translate(42.603 36.273)"/><path class="ai" d="M0,.083C55.5-.68,158.9,3.959,232.324,8.261c6.719.393,13.36.366,20.025.876,23.527,1.8,50.484,2.26,78.27-1.159,18.753-2.312,37.053-6.487,56.512-5.662,28,1.186,42.317,8.964,66.949,17.8,2.63.945,5.275,1.9,8.018,2.833a323,323,0,0,0,34.581,9.516c12.278,2.724,25.033,5.2,38.692,8.232,9.313,2.069,18.9,4.46,28.948,6.859,15.959,3.814,33.511,7.446,50.4,9.226a215.456,215.456,0,0,0,27.4,1.234c18.846-.447,37.1-3.768,58.023-.9a153.275,153.275,0,0,1,17.412,3.617c15.111,3.866,28.441,7.836,44.026,11.317,15.479,3.482,34.233,6.593,53.432,6.936,11.938.212,23.08-.654,34.458-1.079A451.469,451.469,0,0,1,924.68,81.46c32.418,4.375,65.314,12.339,96,12.893,7.58.136,14.553-.178,22.365.231,9.689.507,19.84,2.152,29.652,3.789,71.224,11.881,142.133,24.463,214.5,34.013" transform="translate(43.894 30.417)"/><path class="aj" d="M0,0C56.032.077,159.346,5.487,232.548,8.554c6.686.28,13.309.261,19.994.707,23.467,1.568,50.269,1.753,77.953-1.741,18.684-2.362,36.96-6.5,56.373-5.762,27.965,1.06,42.785,8.59,67.569,17.394,2.644.939,5.286,1.893,8.022,2.824a350.012,350.012,0,0,0,34.321,9.679c12.175,2.825,24.811,5.411,38.4,8.517,9.25,2.114,18.794,4.527,28.825,6.933,15.927,3.828,33.512,7.43,50.4,9.157a210.6,210.6,0,0,0,27.356,1.116c18.764-.555,36.9-4.034,57.794-1.123a145.779,145.779,0,0,1,17.32,3.7c14.977,3.959,28.112,8.038,43.575,11.621,15.361,3.583,34.1,6.789,53.286,7.143,11.936.218,23.048-.674,34.4-1.116A443.466,443.466,0,0,1,923.3,81.166c32.4,4.422,65.306,12.493,95.951,12.913,7.571.105,14.517-.257,22.328.125,9.681.473,19.844,2.117,29.664,3.752,71.236,11.862,142.178,24.4,214.519,34.016" transform="translate(45.186 24.432)"/><path class="ak" d="M0,0C56.564.917,159.665,6.4,232.769,8.931c6.668.232,13.311.336,19.963.537,23.245.71,50.058,1.248,77.64-2.321C348.987,4.733,367.239.638,386.6,1.286c27.933.933,43.255,8.214,68.192,16.987,2.653.933,5.3,1.884,8.031,2.816,11.983,4.087,22.991,7.158,34.061,9.841,12.067,2.928,24.589,5.625,38.106,8.8,9.191,2.159,18.7,4.6,28.7,7.011,15.9,3.84,33.517,7.411,50.407,9.086a206.1,206.1,0,0,0,27.313,1c18.686-.663,36.713-4.3,57.567-1.343a138.264,138.264,0,0,1,17.228,3.773C731.057,63.309,744,67.5,759.341,71.182c15.238,3.683,33.949,6.986,53.136,7.35,11.93.225,23.014-.694,34.355-1.153a435.986,435.986,0,0,1,75.088,3.575c32.376,4.47,65.3,12.648,95.908,12.937,7.556.072,14.476-.338,22.283.017,9.681.44,19.856,2.083,29.678,3.714,71.254,11.842,142.221,24.334,214.541,34.019" transform="translate(46.477 18.364)"/><path class="al" d="M0,0C57.1,1.76,159.988,7.314,233,9.309c6.64.18,13.267.228,19.927.367,23.144.484,49.846.741,77.327-2.9C348.8,4.308,367.028.253,386.341.811c27.9.807,43.729,7.841,68.819,16.583,2.667.928,5.316,1.875,8.039,2.807,11.949,4.083,22.852,7.235,33.8,10.005,11.962,3.027,24.371,5.84,37.811,9.085,9.132,2.2,18.594,4.665,28.581,7.085,15.873,3.854,33.522,7.395,50.415,9.017a201.453,201.453,0,0,0,27.27.883c18.608-.771,36.524-4.566,57.341-1.561a131.175,131.175,0,0,1,17.135,3.851c14.709,4.142,27.462,8.44,42.675,12.224,15.12,3.784,33.812,7.183,52.99,7.557,11.924.232,22.981-.712,34.3-1.186a428.319,428.319,0,0,1,75.025,3.583c32.357,4.516,65.3,12.8,95.86,12.958,7.551.04,14.439-.417,22.246-.089,9.677.406,19.864,2.048,29.685,3.677,71.276,11.824,142.271,24.27,214.565,34.023" transform="translate(47.767 12.296)"/><path class="am" d="M0,0C57.636,2.6,160.308,8.226,233.222,9.684c6.621.132,13.233.124,19.9.2,23.044.261,49.639.235,77.013-3.486,18.477-2.515,36.686-6.529,55.948-6.06,27.864.678,44.2,7.465,69.448,16.176,2.672.921,5.327,1.866,8.039,2.8,11.915,4.08,22.712,7.31,33.535,10.167,11.859,3.13,24.153,6.055,37.518,9.37,9.072,2.25,18.5,4.733,28.463,7.161,15.842,3.866,33.523,7.376,50.417,8.946a197.2,197.2,0,0,0,27.227.767c18.525-.881,36.335-4.834,57.115-1.783a125.16,125.16,0,0,1,17.043,3.931c14.576,4.234,27.133,8.643,42.223,12.527,15,3.885,33.669,7.378,52.848,7.765,11.918.239,22.943-.733,34.244-1.224a421.058,421.058,0,0,1,74.963,3.593c32.336,4.561,65.3,12.955,95.817,12.98,7.536.006,14.4-.5,22.2-.2,9.677.373,19.875,2.013,29.7,3.639,71.29,11.8,142.315,24.207,214.586,34.027" transform="translate(49.058 6.23)"/><path class="an" d="M0,.163C58.171,3.6,160.634,9.3,233.449,10.224c6.6.084,13.2.019,19.861.03,22.948.037,49.427-.273,76.7-4.067C348.42,3.619,366.6-.354,385.816.025,413.644.577,430.487,7.117,455.89,15.8c2.685.917,5.338,1.858,8.048,2.789,11.877,4.077,22.572,7.387,33.27,10.33,11.75,3.232,23.934,6.27,37.227,9.654,9.008,2.3,18.394,4.8,28.337,7.239,15.814,3.88,33.529,7.359,50.423,8.876a191.835,191.835,0,0,0,27.184.649c18.463-.974,36.149-5.1,56.888-2a119.54,119.54,0,0,1,16.95,4.007c14.437,4.327,26.807,8.845,41.774,12.831,14.877,3.986,33.522,7.574,52.7,7.972,11.911.245,22.91-.753,34.193-1.26a414.121,414.121,0,0,1,74.9,3.6c32.318,4.609,65.289,13.111,95.77,13,7.527-.025,14.362-.577,22.166-.3,9.673.34,19.883,1.978,29.71,3.6,71.308,11.785,142.361,24.143,214.607,34.029" transform="translate(50.35 0)"/></g></svg>