<svg xmlns="http://www.w3.org/2000/svg" width="22.447" height="22.824" viewBox="0 0 22.447 22.824"><defs><style>.a{fill:none;stroke:#2a2a2a;stroke-linecap:round;stroke-linejoin:round;stroke-miterlimit:10;stroke-width:0.9px;}</style></defs><g transform="translate(-0.073 -0.115)"><path class="a" d="M24.864,8.034c-.143.574.215.86.574,1.147a1.078,1.078,0,0,0,1.219.072,1.033,1.033,0,0,0,.645-.789,2.308,2.308,0,0,0-.072-1.219A1.112,1.112,0,0,0,26.154,6.6H19.2" transform="translate(-5.279 -1.712)"/><path class="a" d="M24,11.4V23.23" transform="translate(-6.638 -3.071)"/><path class="a" d="M26.6,11.4V23.158" transform="translate(-7.374 -3.071)"/><path class="a" d="M14.552,5.892a1.787,1.787,0,0,0,.215-1.219,3.554,3.554,0,0,0-.574-1.864A4.185,4.185,0,0,0,11.326.658,4.983,4.983,0,0,0,8.817.8C8.6.8,8.315.873,8.1.873" transform="translate(-2.137)"/><path class="a" d="M12.509,17.7c-.143.072-.215.215-.358.358A8,8,0,0,1,9.5,20.281a7.687,7.687,0,0,1-3.3.789" transform="translate(-1.599 -4.854)"/><path class="a" d="M24.609,9.3a.909.909,0,0,1-.43.072H18.3" transform="translate(-5.024 -2.476)"/><path class="a" d="M21.4,11.4v5.449c0,.143.072.215,0,.358" transform="translate(-5.902 -3.071)"/><path class="a" d="M15.212,20.8a3.449,3.449,0,0,1-.789.645,31.848,31.848,0,0,1-3.513,1.721,4.042,4.042,0,0,1-.86.287,11.069,11.069,0,0,1-2.223.358A7.591,7.591,0,0,1,5.6,23.45h0A11.313,11.313,0,0,1,3.74,22.8l-.86-.43c-.645-.358-1.29-.717-1.864-1.075a1.259,1.259,0,0,1-.358-.287.269.269,0,0,1,0-.43,1.561,1.561,0,0,1,.574-.358c1.075-.717,2.151-1.362,3.226-2.007l.072-.072c.358-.215.43-.215.645.215a2.273,2.273,0,0,0,1.362,1.075c.143.072.287,0,.43,0" transform="translate(0 -4.94)"/><path class="a" d="M7.589,14.6a2.093,2.093,0,0,1-.143.645L6.8,16.966" transform="translate(-1.769 -3.976)"/><path class="a" d="M18.8,11.4v4.373" transform="translate(-5.166 -3.071)"/><path class="a" d="M15.86,11.6l-.43,1.936c-.143.717-.358,1.434-.43,2.151,0,.143,0,.215.143.287a9.341,9.341,0,0,1,1.075.717c.645.5,1.362.86,2.007,1.362.287.215.5.358.789.574a.154.154,0,0,1,.143.143c.143.072.143.143.072.287" transform="translate(-4.09 -3.127)"/><path class="a" d="M21.4,23.9v2.868" transform="translate(-5.902 -6.609)"/><path class="a" d="M16.323,19.3A8.592,8.592,0,0,1,15.1,20.806a12.257,12.257,0,0,1-1,.789" transform="translate(-3.835 -5.307)"/><path class="a" d="M11.247,25.415a3.594,3.594,0,0,0,.072,1.219.46.46,0,0,0,.358.358c.287.072.43.358.645.5.5.43.932.86,1.434,1.29a1.156,1.156,0,0,1,.287.5v.072h-.43c-3.585.143-7.241.143-10.826,0-.143,0-.215,0-.287-.072v-.072a1.8,1.8,0,0,1,.287-.5c.5-.43.932-.932,1.434-1.29.215-.215.358-.43.645-.5a.589.589,0,0,0,.358-.358A8.676,8.676,0,0,0,5.3,25.2" transform="translate(-0.552 -6.977)"/><path class="a" d="M11.924,23.2a8.726,8.726,0,0,1-2.724.5" transform="translate(-2.448 -6.411)"/><path class="a" d="M11.936,5.2a1.519,1.519,0,0,0,0,1.362,1.185,1.185,0,0,0,.932.574c.215,0,.287-.072.287-.358a1.322,1.322,0,0,0-.287-.932A1.263,1.263,0,0,0,11.936,5.2Z" transform="translate(-3.177 -1.316)"/><path class="a" d="M8.663,3a1.518,1.518,0,0,0,.143,1.362,1.226,1.226,0,0,0,.932.5c.215,0,.287-.143.287-.358a1.363,1.363,0,0,0-.358-.932A1.144,1.144,0,0,0,8.663,3Z" transform="translate(-2.27 -0.693)"/><path class="a" d="M15.436,6.5a1.519,1.519,0,0,0,0,1.362,1.185,1.185,0,0,0,.932.574c.215,0,.287-.072.287-.358a1.322,1.322,0,0,0-.287-.932A1.263,1.263,0,0,0,15.436,6.5Z" transform="translate(-4.168 -1.684)"/><path class="a" d="M15.436,6.5a1.519,1.519,0,0,0,0,1.362,1.185,1.185,0,0,0,.932.574c.215,0,.287-.072.287-.358a1.322,1.322,0,0,0-.287-.932A1.263,1.263,0,0,0,15.436,6.5Z" transform="translate(-4.168 -1.684)"/><path class="a" d="M25,11.186a1.372,1.372,0,0,0-.717.072h-.072a3.5,3.5,0,0,0-1.721,0h-.072a4.629,4.629,0,0,0-1.721,0h-.072a3.5,3.5,0,0,0-1.721,0c-.143,0-.287-.072-.5-.072" transform="translate(-5.053 -3)"/><path class="a" d="M7,7.5c.43.072.86.143,1.362.215" transform="translate(-1.826 -1.967)"/><path class="a" d="M5.156,5.4c0,.43-.072.86-.072,1.29a.544.544,0,0,1-.143.287,14.538,14.538,0,0,1-.932,1.29c-.072.215-.287.358-.215.5.072.215.287.215.43.287a2.989,2.989,0,0,1,.43.143,5.973,5.973,0,0,1-.287,1.075,1.819,1.819,0,0,0-.143.86,1.152,1.152,0,0,0,1.29,1A2.093,2.093,0,0,0,6.16,12l3.011-.5" transform="translate(-0.914 -1.372)"/><path class="a" d="M5.594.7a1.329,1.329,0,0,0-.143,1.362,1.18,1.18,0,0,0,.86.645c.215.072.287-.072.358-.287a1.577,1.577,0,0,0-.143-1C6.239,1.058,6.024.772,5.594.7Z" transform="translate(-1.352 -0.042)"/><path class="a" d="M5.017,1.9a1.418,1.418,0,0,0-.717.143,1.472,1.472,0,0,0,.717,1.075,1.4,1.4,0,0,0,1.075,0" transform="translate(-1.061 -0.382)"/><path class="a" d="M5.3,1.9h0" transform="translate(-1.345 -0.382)"/></g></svg>