<svg xmlns="http://www.w3.org/2000/svg" width="1424.452" height="405.196" viewBox="0 0 1424.452 405.196"><defs><style>.a{fill:none;stroke:#ffc627;stroke-miterlimit:10;}</style></defs><g transform="matrix(-1, -0.017, 0.017, -1, 1417.512, 405.582)"><path class="a" d="M0,21.334c44.228-32.153,180.847-25.057,262.048,2,27.846,9.277,61.178,19.476,94.4,18.621,22.36-.575,42.722-6.183,65.14-2.275,34.684,6.047,27.245,25.668,57.657,34.725,28.638,8.529,63.82,1.14,97.6,2.542,30.994,1.287,59.237,10.056,88.618,15.89,117.306,23.292,249.658,7.714,367.963,17.074,133.014,10.524,255.589,42.625,388.007,54.964" transform="translate(0 215.461)"/><path class="a" d="M0,20.629C40.9-7.869,157.977-4.46,239.778,16.371c7.837,2,15.359,4.157,22.464,6.463,27.765,9.048,60.966,18.97,94.081,18.04,22.294-.627,42.633-6.2,65-2.375,31.054,5.294,28.814,21.37,49.959,31.187a61.058,61.058,0,0,0,8.334,3.122c14.05,4.192,29.609,4.615,45.792,4.136,16.738-.485,34.162-1.928,51.255-1.146a248.772,248.772,0,0,1,34.986,4.353c17.973,3.393,35.546,8.027,53.512,11.542q15.175,2.968,30.628,5.083c22.776,3.15,45.976,5.034,69.506,6.349q10.859.609,21.722,1.043c20.677.827,41.446,1.179,62.3,1.334,20.595.155,41.309.12,61.912.1,12.9-.009,25.743-.011,38.505.11,27.9.268,55.482,1.116,82.311,3.274,35.2,2.833,69.706,7.241,103.8,12.154,8.427,1.214,16.812,2.459,25.211,3.759q15.609,2.414,31.177,5.029c75.28,12.506,149.844,26.573,227.771,33.9" transform="translate(1.292 210.098)"/><path class="a" d="M0,19.924C41.435-7.734,158.317-4.255,240.009,16.043c7.814,1.95,15.34,4.045,22.428,6.293C290.178,31.132,323.2,40.8,356.2,39.8c22.229-.677,42.54-6.2,64.859-2.475,31.017,5.167,29.293,21,50.593,30.782a62.919,62.919,0,0,0,8.339,3.114c14.012,4.188,29.464,4.687,45.525,4.3,16.628-.386,33.943-1.712,50.958-.862a253.671,253.671,0,0,1,34.864,4.431c17.945,3.405,35.551,8.009,53.518,11.47q15.177,2.925,30.586,4.968c22.7,3.042,45.785,4.766,69.283,6.129q10.84.631,21.624,1.121c20.542.918,41.118,1.381,61.842,1.636,20.476.255,41.166.315,61.766.311,12.9,0,25.71-.031,38.456.075,27.841.231,55.435,1.088,82.244,3.282,35.182,2.88,69.7,7.395,103.756,12.175,8.412,1.182,16.772,2.38,25.166,3.653,10.407,1.576,20.814,3.27,31.193,4.991,75.3,12.489,149.892,26.51,227.79,33.909" transform="translate(2.583 204.735)"/><path class="a" d="M0,19.22C41.974-7.6,158.662-4.048,240.239,15.716c7.8,1.9,15.318,3.936,22.4,6.124,27.684,8.556,60.545,17.958,93.45,16.877,22.159-.728,42.442-6.215,64.718-2.573,30.981,5.041,29.768,20.621,51.223,30.376a64.5,64.5,0,0,0,8.348,3.1c13.977,4.186,29.317,4.762,45.262,4.462,16.514-.287,33.719-1.5,50.657-.579a258.667,258.667,0,0,1,34.745,4.505c17.913,3.419,35.553,7.992,53.521,11.4Q679.741,92.3,695.1,94.265c22.619,2.934,45.6,4.5,69.056,5.91,7.222.434,14.385.845,21.531,1.2,20.406,1.01,40.786,1.581,61.385,1.939,20.356.357,41.022.511,61.619.519,12.9,0,25.677-.05,38.4.038,27.788.2,55.388,1.062,82.182,3.29,35.163,2.928,69.7,7.55,103.709,12.2,8.407,1.15,16.735,2.3,25.13,3.545,10.4,1.542,20.822,3.235,31.2,4.954,75.319,12.47,149.941,26.446,227.818,33.911" transform="translate(3.872 199.371)"/><path class="a" d="M0,18.54C42.514-7.438,159.092-3.877,240.471,15.41c7.784,1.846,15.286,3.826,22.362,5.956,27.627,8.314,60.332,17.451,93.135,16.3,22.089-.781,42.349-6.226,64.576-2.675,30.94,4.915,30.248,20.247,51.854,29.971a67.109,67.109,0,0,0,8.352,3.1c13.944,4.182,29.164,4.821,45,4.624,16.4-.2,33.5-1.282,50.361-.293a263.9,263.9,0,0,1,34.622,4.582c17.886,3.431,35.559,7.974,53.529,11.33,10.12,1.891,20.311,3.461,30.5,4.735,22.54,2.824,45.408,4.232,68.828,5.69,7.213.449,14.336.891,21.437,1.275,20.272,1.1,40.458,1.785,60.929,2.243,20.235.457,40.884.708,61.472.724,12.89.011,25.644-.069,38.349,0,27.734.161,55.345,1.036,82.12,3.3,35.143,2.973,69.7,7.7,103.667,12.221,8.392,1.116,16.694,2.22,25.084,3.437,10.4,1.511,20.835,3.2,31.215,4.916,75.333,12.45,149.99,26.382,227.841,33.915" transform="translate(5.164 193.986)"/><path class="a" d="M0,17.842C43.055-7.294,159.449-3.68,240.7,15.091c7.769,1.793,15.263,3.715,22.331,5.786,27.57,8.072,60.118,16.945,92.818,15.713,22.019-.832,42.255-6.237,64.431-2.773,30.908,4.787,30.729,19.872,52.5,29.565a68.813,68.813,0,0,0,8.357,3.087c13.9,4.18,29.017,4.892,44.732,4.789,16.284-.109,33.279-1.068,50.067-.011a270.093,270.093,0,0,1,34.5,4.658c17.854,3.444,35.565,7.957,53.532,11.261,10.117,1.861,20.3,3.393,30.456,4.617,22.461,2.716,45.217,3.966,68.6,5.47,7.205.466,14.293.939,21.344,1.355,20.136,1.195,40.129,1.987,60.475,2.545,20.111.557,40.735.9,61.325.931,12.884.017,25.606-.088,38.295-.034,27.673.126,55.3,1.01,82.053,3.308,35.125,3.021,69.7,7.859,103.62,12.243,8.383,1.084,16.658,2.14,25.048,3.331,10.4,1.477,20.843,3.166,31.226,4.879,75.352,12.431,150.035,26.317,227.865,33.917" transform="translate(6.456 188.615)"/><path class="a" d="M0,17.147C43.6-7.149,159.811-3.48,240.931,14.772c7.746,1.743,15.236,3.606,22.3,5.617,27.508,7.83,59.9,16.437,92.5,15.131,21.949-.881,42.162-6.246,64.289-2.873,30.871,4.662,31.256,19.487,53.129,29.16a71.529,71.529,0,0,0,8.366,3.078c13.871,4.178,28.866,4.964,44.463,4.952,16.174-.013,33.058-.854,49.77.274a276.062,276.062,0,0,1,34.375,4.734c17.827,3.456,35.571,7.939,53.54,11.19,10.117,1.831,20.293,3.326,30.412,4.5,22.383,2.607,45.026,3.7,68.371,5.25,7.2.479,14.248.985,21.251,1.433,20,1.287,39.8,2.187,60.017,2.848,19.991.658,40.6,1.1,61.178,1.139,12.878.024,25.573-.108,38.241-.071,27.62.091,55.25.984,81.991,3.318,35.105,3.067,69.69,8.013,103.578,12.266,8.373,1.05,16.616,2.059,25,3.223,10.394,1.444,20.855,3.131,31.241,4.841,75.372,12.414,150.084,26.255,227.89,33.922" transform="translate(7.748 183.244)"/><path class="a" d="M0,16.452C44.144-7,160.174-3.28,241.166,14.454c7.731,1.692,15.209,3.5,22.264,5.447,27.446,7.589,59.691,15.933,92.184,14.55,21.883-.932,42.054-6.24,64.148-2.972,30.817,4.557,31.743,19.108,53.764,28.753a74.355,74.355,0,0,0,8.37,3.07c13.837,4.174,28.723,5.034,44.2,5.113,16.059.084,32.832-.626,49.468.559a283.863,283.863,0,0,1,34.251,4.81c17.8,3.469,35.577,7.921,53.543,11.12,10.123,1.8,20.289,3.259,30.378,4.384,22.3,2.5,44.83,3.434,68.142,5.031,7.183.494,14.2,1.03,21.152,1.511,19.865,1.378,39.466,2.39,59.559,3.149,19.87.759,40.452,1.3,61.03,1.347,12.871.029,25.539-.128,38.187-.106,27.566.055,55.207.954,81.928,3.324,35.086,3.115,69.687,8.168,103.532,12.288,8.363,1.018,16.58,1.98,24.961,3.117,10.4,1.411,20.868,3.1,31.253,4.8,75.39,12.393,150.134,26.19,227.914,33.925" transform="translate(9.037 177.871)"/><path class="a" d="M0,15.758C44.687-6.857,160.529-3.079,241.4,14.138c7.707,1.641,15.181,3.385,22.228,5.277,27.38,7.347,59.481,15.425,91.867,13.969,21.813-.985,41.961-6.249,64.006-3.073,30.782,4.435,32.231,18.733,54.4,28.349a76.808,76.808,0,0,0,8.375,3.061c13.8,4.17,28.576,5.1,43.935,5.278,15.947.179,32.611-.41,49.17.843a291.543,291.543,0,0,1,34.131,4.884c17.772,3.482,35.578,7.9,53.547,11.05,10.124,1.772,20.276,3.192,30.334,4.268,22.22,2.389,44.638,3.166,67.913,4.81,7.175.509,14.154,1.076,21.058,1.588,19.73,1.472,39.137,2.593,59.1,3.453,19.746.861,40.3,1.492,60.878,1.553,12.87.038,25.506-.146,38.138-.141,27.5.021,55.156.928,81.862,3.334,35.067,3.16,69.685,8.322,103.486,12.31,8.353.986,16.542,1.9,24.925,3.011,10.391,1.376,20.872,3.06,31.264,4.765,75.411,12.375,150.184,26.127,227.94,33.928" transform="translate(10.328 172.497)"/><path class="a" d="M0,15.065C45.231-6.709,160.885-2.876,241.636,13.822c7.688,1.589,15.15,3.276,22.2,5.108,27.309,7.1,59.263,14.919,91.545,13.386,21.743-1.034,41.868-6.256,63.865-3.171,30.742,4.311,32.719,18.355,55.041,27.942a79.458,79.458,0,0,0,8.384,3.052c13.763,4.168,28.429,5.177,43.666,5.441,15.835.275,32.389-.193,48.875,1.127a299.257,299.257,0,0,1,34,4.962c17.745,3.495,35.585,7.886,53.555,10.98,10.125,1.742,20.267,3.125,30.291,4.15,22.136,2.282,44.446,2.9,67.684,4.591,7.166.524,14.11,1.122,20.965,1.666,19.593,1.563,38.8,2.793,58.644,3.755,19.625.961,40.164,1.688,60.731,1.76,12.864.044,25.473-.166,38.084-.178,27.451-.014,55.113.9,81.8,3.342,35.049,3.208,69.684,8.476,103.445,12.333,8.342.954,16.5,1.82,24.879,2.9,10.391,1.342,20.884,3.025,31.28,4.728,75.425,12.356,150.231,26.063,227.965,33.93" transform="translate(11.62 167.122)"/><path class="a" d="M0,14.375C45.777-6.56,161.24-2.672,241.867,13.507c7.669,1.54,15.123,3.166,22.166,4.94,27.242,6.862,59.048,14.413,91.227,12.8,21.672-1.085,41.771-6.264,63.718-3.272,30.711,4.188,33.213,17.981,55.683,27.537a82.709,82.709,0,0,0,8.393,3.044c13.725,4.164,28.281,5.247,43.4,5.6,15.719.371,32.164.024,48.572,1.412A307.984,307.984,0,0,1,608.9,70.61c17.718,3.508,35.591,7.869,53.564,10.911,10.126,1.712,20.259,3.056,30.247,4.033,22.057,2.174,44.254,2.634,67.455,4.372,7.158.539,14.065,1.168,20.871,1.744,19.456,1.655,38.47,2.994,58.183,4.058,19.5,1.061,40.019,1.885,60.587,1.967,12.854.051,25.435-.187,38.025-.215,27.4-.049,55.071.876,81.738,3.352,35.025,3.254,69.677,8.63,103.4,12.355,8.333.92,16.464,1.74,24.843,2.8,10.382,1.309,20.892,2.99,31.292,4.691,75.445,12.335,150.281,26,227.991,33.934" transform="translate(12.912 161.746)"/><path class="a" d="M0,13.684C46.327-6.41,161.6-2.466,242.108,13.194c7.65,1.488,15.091,3.056,22.131,4.771,27.171,6.619,58.833,13.905,90.9,12.222,21.61-1.138,41.681-6.273,63.581-3.371,30.669,4.062,33.7,17.6,56.321,27.131a86.128,86.128,0,0,0,8.4,3.034c13.691,4.162,28.138,5.318,43.135,5.767,15.612.466,31.942.24,48.272,1.7a316.692,316.692,0,0,1,33.759,5.112c17.685,3.52,35.593,7.852,53.567,10.84,10.123,1.683,20.25,2.989,30.2,3.917,21.978,2.065,44.061,2.366,67.225,4.152,7.149.553,14.02,1.214,20.781,1.822,19.316,1.746,38.134,3.2,57.722,4.36,19.378,1.161,39.87,2.08,60.435,2.173,12.852.058,25.4-.206,37.976-.25,27.336-.084,55.019.85,81.672,3.361,35.006,3.3,69.676,8.784,103.356,12.376,8.323.888,16.423,1.66,24.8,2.69,10.383,1.277,20.906,2.955,31.3,4.653,75.47,12.318,150.332,25.934,228.022,33.938" transform="translate(14.201 156.368)"/><path class="a" d="M0,13C46.875-6.258,161.952-2.259,242.342,12.883c7.63,1.437,15.063,2.944,22.1,4.6,27.1,6.378,58.618,13.4,90.586,11.641,21.54-1.187,41.588-6.282,63.438-3.471,30.634,3.94,34.193,17.227,56.966,26.726,2.565,1.069,5.328,2.088,8.4,3.026,13.656,4.158,27.994,5.388,42.865,5.928,15.5.563,31.72.456,47.972,1.979A327.319,327.319,0,0,1,608.3,68.5c17.659,3.536,35.6,7.835,53.576,10.771,10.123,1.653,20.241,2.922,30.159,3.8,21.9,1.957,43.869,2.1,67,3.932,7.14.569,13.975,1.262,20.687,1.9,19.179,1.838,37.8,3.4,57.26,4.661,19.258,1.265,39.73,2.277,60.287,2.381,12.847.065,25.368-.225,37.922-.285,27.283-.121,54.977.822,81.61,3.368,34.987,3.347,69.675,8.94,103.31,12.4,8.313.856,16.386,1.579,24.76,2.582,10.379,1.243,20.915,2.921,31.316,4.617,75.485,12.3,150.383,25.87,228.048,33.94" transform="translate(15.492 150.989)"/><path class="a" d="M0,12.308C47.423-6.1,162.3-2.05,242.58,12.572c7.611,1.387,15.032,2.836,22.063,4.431,27.025,6.135,58.4,12.893,90.266,11.058,21.47-1.238,41.49-6.289,63.3-3.569,30.6,3.815,34.684,16.851,57.608,26.319,2.575,1.063,5.344,2.081,8.411,3.017,13.618,4.156,27.846,5.46,42.594,6.091,15.392.659,31.493.673,47.672,2.264A337.362,337.362,0,0,1,608,67.449c17.631,3.548,35.606,7.817,53.584,10.7C671.71,79.773,681.818,81,691.7,81.833c21.819,1.847,43.676,1.832,66.769,3.712,7.128.584,13.926,1.308,20.588,1.978,19.042,1.931,37.465,3.6,56.8,4.965,19.136,1.365,39.586,2.473,60.14,2.589,12.84.07,25.334-.245,37.868-.322a805.081,805.081,0,0,1,81.548,3.378c34.967,3.393,69.673,9.094,103.269,12.42,8.3.823,16.345,1.5,24.715,2.476,10.38,1.21,20.927,2.887,31.332,4.578,75.506,12.28,150.431,25.807,228.072,33.944" transform="translate(16.784 145.609)"/><path class="a" d="M0,11.624c47.973-17.571,162.658-13.462,242.815.641,7.592,1.336,15.005,2.726,22.033,4.263C291.8,22.421,323.039,28.915,354.795,27c21.4-1.291,41.4-6.3,63.149-3.671,30.562,3.692,35.177,16.476,58.255,25.915,2.589,1.058,5.36,2.072,8.416,3.007,13.583,4.154,27.689,5.436,42.333,6.256,15.294.855,31.265.889,47.371,2.548,11.187,1.153,22.237,3.089,33.384,5.34,17.6,3.56,35.608,7.8,53.589,10.63,10.126,1.595,20.224,2.788,30.077,3.566,21.735,1.739,43.479,1.568,66.535,3.493,7.118.6,13.881,1.352,20.493,2.056,18.905,2.023,37.132,3.8,56.338,5.268,19.006,1.465,39.44,2.669,59.987,2.8,12.839.078,25.3-.265,37.819-.359a784.567,784.567,0,0,1,81.481,3.385c34.948,3.441,69.667,9.248,103.224,12.444,8.293.79,16.307,1.421,24.678,2.37,10.375,1.175,20.936,2.851,31.343,4.54,75.526,12.261,150.483,25.743,228.1,33.948" transform="translate(18.076 140.226)"/><path class="a" d="M0,10.941C48.527-5.789,163.01-1.625,243.06,11.96c7.568,1.284,14.968,2.614,22,4.092,26.868,5.651,57.975,11.88,89.627,9.895,21.328-1.341,41.3-6.307,63.007-3.77,30.526,3.567,35.67,16.1,58.9,25.508,2.6,1.052,5.366,2.063,8.421,3,13.548,4.149,27.558,5.6,42.06,6.418,15.168.852,31.043,1.1,47.07,2.832,11.127,1.2,22.137,3.158,33.259,5.417,17.572,3.573,35.62,7.782,53.6,10.559,10.127,1.566,20.216,2.721,30.034,3.451,21.656,1.631,43.285,1.3,66.3,3.272,7.11.614,13.837,1.4,20.4,2.136,18.768,2.115,36.795,4,55.875,5.57,18.883,1.565,39.3,2.866,59.837,3,12.833.085,25.269-.283,37.765-.394a765.128,765.128,0,0,1,81.42,3.4c34.93,3.486,69.666,9.4,103.177,12.465,8.283.758,16.271,1.342,24.638,2.263,10.376,1.142,20.948,2.816,31.359,4.5,75.542,12.243,150.532,25.678,228.128,33.951" transform="translate(19.365 134.84)"/><path class="a" d="M0,10.263C49.078-5.629,163.357-1.408,243.3,11.656c7.553,1.235,14.941,2.505,21.965,3.924,26.789,5.41,57.759,11.374,89.307,9.312,21.262-1.392,41.209-6.315,62.865-3.869,30.49,3.445,36.16,15.722,59.547,25.1,2.608,1.046,5.382,2.054,8.429,2.99,13.51,4.146,27.415,5.676,41.789,6.581,15.06.95,30.819,1.322,46.768,3.117,11.066,1.246,22.033,3.226,33.139,5.493,17.539,3.585,35.622,7.764,53.6,10.488,10.129,1.536,20.208,2.654,29.99,3.334,21.576,1.523,43.091,1.034,66.073,3.053,7.1.627,13.791,1.446,20.3,2.213,18.631,2.208,36.46,4.2,55.411,5.872,18.761,1.665,39.149,3.061,59.693,3.209,12.823.092,25.231-.3,37.711-.431a746.483,746.483,0,0,1,81.353,3.4c34.911,3.534,69.665,9.558,103.136,12.489,8.268.724,16.229,1.261,24.6,2.155,10.368,1.108,20.958,2.782,31.367,4.465,75.567,12.222,150.588,25.614,228.16,33.954" transform="translate(20.657 129.453)"/><path class="a" d="M0,9.586C49.63-5.466,163.707-1.188,243.537,11.356c7.529,1.183,14.9,2.4,21.929,3.754,26.7,5.17,57.543,10.868,88.987,8.733,21.19-1.444,41.114-6.326,62.722-3.969,30.454,3.32,36.65,15.345,60.192,24.7,2.622,1.04,5.4,2.047,8.439,2.983C499.281,51.7,513.073,53.3,527.323,54.3c14.952,1.044,30.592,1.537,46.466,3.4,11.005,1.292,21.933,3.295,33.014,5.567,17.512,3.6,35.628,7.747,53.61,10.419,10.13,1.506,20.194,2.587,29.946,3.218,21.5,1.414,42.9.766,65.842,2.833,7.092.642,13.742,1.491,20.209,2.29,18.494,2.3,36.126,4.407,54.95,6.175,18.636,1.769,39,3.258,59.541,3.417,12.821.1,25.2-.323,37.656-.466a727.993,727.993,0,0,1,81.291,3.411c34.892,3.58,69.664,9.712,103.091,12.511,8.264.692,16.192,1.18,24.555,2.048,10.368,1.075,20.966,2.747,31.384,4.427,75.584,12.2,150.637,25.551,228.19,33.958" transform="translate(21.948 124.062)"/><path class="a" d="M0,8.912C50.188-5.3,164.062-.964,243.779,11.059c7.511,1.133,14.873,2.285,21.9,3.585C292.3,19.572,323,25.007,354.343,22.795c21.12-1.494,41.02-6.333,62.579-4.069,30.418,3.2,37.146,14.97,60.844,24.292,2.632,1.034,5.409,2.038,8.439,2.973,13.44,4.14,27.126,5.82,41.254,6.907,14.839,1.142,30.363,1.753,46.164,3.686,10.941,1.338,21.823,3.362,32.884,5.643,17.485,3.611,35.636,7.729,53.62,10.349,10.127,1.477,20.186,2.52,29.9,3.1,21.416,1.306,42.7.5,65.614,2.613,7.08.659,13.693,1.539,20.11,2.369,18.356,2.393,35.787,4.608,54.484,6.478C848.75,89,869.1,90.589,889.629,90.76c12.815.1,25.163-.342,37.6-.5a711.1,711.1,0,0,1,81.229,3.42c34.874,3.628,69.659,9.866,103.05,12.534,8.249.66,16.151,1.1,24.514,1.941,10.364,1.043,20.974,2.712,31.4,4.391,75.6,12.184,150.691,25.487,228.215,33.961" transform="translate(23.237 118.668)"/><path class="a" d="M0,8.242C50.742-5.129,164.409-.736,244.023,10.767c7.487,1.082,14.836,2.174,21.863,3.415,26.534,4.686,57.109,9.854,88.344,7.568,21.049-1.545,40.922-6.342,62.432-4.168,30.386,3.07,37.643,14.594,61.5,23.886,2.642,1.028,5.421,2.029,8.448,2.964,13.4,4.138,26.982,5.892,40.981,7.07,14.731,1.24,30.139,1.969,45.861,3.969,10.88,1.385,21.724,3.432,32.764,5.721,17.452,3.623,35.637,7.71,53.624,10.278,10.127,1.447,20.177,2.451,29.858,2.984,21.336,1.2,42.509.232,65.383,2.393,7.071.672,13.647,1.583,20.015,2.447,18.218,2.485,35.452,4.811,54.018,6.78,18.391,1.969,38.716,3.65,59.242,3.83,12.81.112,25.13-.362,37.553-.538a694.486,694.486,0,0,1,81.163,3.429c34.85,3.673,69.657,10.02,103,12.556,8.239.626,16.113,1.02,24.472,1.833,10.364,1.01,20.988,2.677,31.413,4.354C1241.582,123.7,1316.7,136.961,1394.2,145.5" transform="translate(24.529 113.27)"/><path class="a" d="M0,7.576C51.3-4.953,164.752-.5,244.263,10.478c7.466,1.03,14.8,2.064,21.831,3.247,26.441,4.446,56.9,9.349,88.022,6.987,20.977-1.6,40.828-6.351,62.288-4.269,30.35,2.946,38.136,14.219,62.146,23.481,2.657,1.023,5.437,2.02,8.458,2.956,13.367,4.134,26.837,5.965,40.708,7.233,14.622,1.336,29.909,2.184,45.557,4.253,10.818,1.43,21.622,3.5,32.637,5.8,17.425,3.637,35.645,7.693,53.633,10.209,10.129,1.417,20.169,2.384,29.816,2.867,21.256,1.088,42.315-.034,65.151,2.174,7.067.687,13.6,1.629,19.919,2.525,18.079,2.576,35.111,5.012,53.555,7.083a576.482,576.482,0,0,0,59.089,4.037c12.808.117,25.1-.382,37.5-.575a679.012,679.012,0,0,1,81.1,3.437c34.831,3.721,69.657,10.176,102.964,12.578,8.229.594,16.071.941,24.431,1.727,10.361.976,21,2.642,31.42,4.316,75.647,12.147,150.8,25.358,228.279,33.967" transform="translate(25.821 107.868)"/><path class="a" d="M0,6.917C51.853-4.772,165.1-.265,244.507,10.194c7.443.98,14.768,1.955,21.8,3.078,26.352,4.206,56.679,8.843,87.7,6.4,20.915-1.648,40.738-6.36,62.15-4.367,30.314,2.821,38.631,13.842,62.8,23.075,2.661,1.017,5.447,2.011,8.458,2.946,13.333,4.132,26.7,6.039,40.439,7.4,14.514,1.434,29.684,2.4,45.254,4.538,10.757,1.475,21.518,3.568,32.512,5.871,17.4,3.649,35.652,7.675,53.643,10.138,10.13,1.387,20.16,2.317,29.776,2.751,21.172.98,42.12-.3,64.915,1.954,7.058.7,13.556,1.675,19.824,2.6,17.94,2.668,34.774,5.213,53.086,7.385A545.321,545.321,0,0,0,885.8,88.211c12.8.124,25.058-.4,37.44-.612a663.831,663.831,0,0,1,81.04,3.447c34.813,3.767,69.657,10.33,102.92,12.6,8.219.562,16.034.86,24.39,1.621,10.36.941,21.01,2.606,31.437,4.278,75.668,12.127,150.853,25.294,228.309,33.969" transform="translate(27.113 102.461)"/><path class="a" d="M0,6.263C52.414-4.586,165.445-.019,244.757,9.918c7.419.929,14.731,1.845,21.759,2.906,26.253,3.967,56.462,8.337,87.374,5.823,20.844-1.7,40.643-6.369,62.006-4.467,30.278,2.7,39.126,13.467,63.452,22.668,2.677,1.014,5.464,2,8.468,2.938,13.293,4.13,26.552,6.112,40.169,7.559,14.406,1.534,29.455,2.617,44.95,4.822,10.687,1.522,21.412,3.638,32.385,5.947,17.366,3.663,35.655,7.658,53.648,10.069,10.131,1.358,20.151,2.25,29.732,2.633,21.091.872,41.925-.566,64.681,1.734,7.05.717,13.512,1.723,19.734,2.681,17.8,2.761,34.434,5.416,52.613,7.687a516.569,516.569,0,0,0,58.795,4.452c12.792.131,25.025-.42,37.391-.645a649.52,649.52,0,0,1,80.973,3.454c34.794,3.815,69.652,10.485,102.879,12.623,8.2.529,15.992.781,24.349,1.515,10.352.908,21.019,2.571,31.448,4.239,75.687,12.109,150.9,25.231,228.341,33.975" transform="translate(28.402 97.047)"/><path class="a" d="M0,5.616C52.973-4.392,165.792.235,245,9.649c7.4.879,14.695,1.736,21.728,2.738,26.16,3.729,56.244,7.831,87.05,5.24,20.772-1.749,40.553-6.378,61.858-4.566,30.246,2.571,39.626,13.09,64.109,22.262,2.691,1.008,5.475,2,8.477,2.931,13.258,4.125,26.407,6.183,39.894,7.722,14.3,1.63,29.224,2.831,44.645,5.106,10.627,1.569,21.307,3.706,32.259,6.023,17.338,3.675,35.662,7.64,53.658,10,10.132,1.328,20.143,2.183,29.688,2.517,21.011.762,41.729-.834,64.453,1.514,7.036.732,13.462,1.769,19.633,2.759,17.659,2.853,34.092,5.617,52.144,7.99a490.937,490.937,0,0,0,58.646,4.659c12.79.139,24.992-.44,37.336-.682a635.478,635.478,0,0,1,80.907,3.463c34.78,3.86,69.656,10.638,102.839,12.645,8.2.5,15.955.7,24.308,1.407,10.353.874,21.032,2.536,31.466,4.2,75.708,12.09,150.958,25.166,228.372,33.977" transform="translate(29.693 91.626)"/><path class="a" d="M0,4.979C53.532-4.189,166.134.5,245.246,9.388c7.376.829,14.659,1.627,21.693,2.569,26.061,3.49,56.025,7.323,86.727,4.659,20.7-1.8,40.458-6.389,61.715-4.667,30.21,2.448,40.123,12.716,64.763,21.857,2.7,1,5.491,1.987,8.487,2.921,13.219,4.122,26.261,6.258,39.62,7.885,14.189,1.729,29,3.047,44.341,5.391,10.564,1.614,21.2,3.774,32.138,6.1,17.306,3.687,35.668,7.622,53.662,9.928,10.129,1.3,20.135,2.115,29.644,2.4,20.931.654,41.535-1.1,64.221,1.3,7.027.746,13.416,1.815,19.537,2.837,17.52,2.944,33.754,5.818,51.68,8.292a467.3,467.3,0,0,0,58.491,4.866c12.784.144,24.958-.459,37.281-.719a622.359,622.359,0,0,1,80.845,3.471c34.761,3.908,69.656,10.794,102.795,12.668,8.189.464,15.918.622,24.265,1.3,10.354.841,21.046,2.5,31.478,4.165,75.734,12.071,151.014,25.1,228.4,33.981" transform="translate(30.985 86.196)"/><path class="a" d="M0,4.352C54.087-3.975,166.478.774,245.49,9.138c7.357.779,14.622,1.518,21.662,2.4,25.958,3.252,55.806,6.817,86.4,4.077,20.634-1.851,40.363-6.4,61.571-4.766,30.173,2.321,40.62,12.34,65.422,21.45,2.71,1,5.5,1.978,8.487,2.913,13.185,4.119,26.121,6.331,39.354,8.047,14.079,1.827,28.768,3.263,44.031,5.676,10.5,1.659,21.1,3.842,32.011,6.174,17.278,3.7,35.676,7.607,53.672,9.859,10.13,1.268,20.121,2.041,29.6,2.282,20.842.532,41.338-1.366,63.986,1.075,7.019.762,13.371,1.861,19.442,2.916,17.381,3.036,33.415,6.019,51.208,8.595,17.645,2.575,37.838,4.828,58.341,5.073,12.778.151,24.925-.479,37.232-.756a609.4,609.4,0,0,1,80.78,3.481c34.742,3.955,69.656,10.948,102.754,12.69,8.174.43,15.876.542,24.224,1.193,10.35.809,21.056,2.467,31.491,4.128,75.752,12.051,151.069,25.038,228.436,33.983" transform="translate(32.277 80.755)"/><path class="a" d="M0,3.739C54.653-3.748,166.828,1.064,245.744,8.9c7.333.728,14.581,1.408,21.625,2.23,25.857,3.016,55.593,6.31,86.08,3.494,20.562-1.9,40.268-6.407,61.427-4.866,30.137,2.2,41.115,11.964,66.078,21.045,2.721.991,5.52,1.971,8.5,2.9,13.149,4.117,25.975,6.4,39.078,8.212,13.97,1.925,28.54,3.477,43.729,5.958,10.437,1.706,20.994,3.912,31.88,6.252,17.25,3.713,35.684,7.588,53.682,9.788a294.478,294.478,0,0,0,29.557,2.166c20.761.422,41.142-1.634,63.753.855,7.011.777,13.325,1.907,19.345,2.993,17.242,3.129,33.073,6.223,50.738,8.9,17.521,2.675,37.691,5.023,58.191,5.279,12.777.159,24.891-.5,37.178-.791A597.244,597.244,0,0,1,997.3,86.81c34.725,4,69.657,11.1,102.71,12.712,8.169.4,15.839.462,24.183,1.086,10.351.776,21.065,2.432,31.509,4.092,75.774,12.032,151.12,24.973,228.469,33.987" transform="translate(33.566 75.3)"/><path class="a" d="M0,3.144C55.215-3.5,167.168,1.37,245.988,8.683c7.313.678,14.545,1.3,21.593,2.06,25.754,2.782,55.374,5.805,85.756,2.915,20.49-1.955,40.173-6.417,61.283-4.965,30.1,2.069,41.614,11.589,66.736,20.639,2.734.985,5.531,1.961,8.506,2.895a245.708,245.708,0,0,0,38.8,8.375c13.861,2.025,28.309,3.692,43.423,6.243,10.376,1.752,20.888,3.98,31.758,6.326,17.218,3.726,35.687,7.571,53.688,9.719a287.877,287.877,0,0,0,29.513,2.048c20.68.314,40.945-1.9,63.519.637,7,.791,13.28,1.953,19.25,3.07,17.1,3.221,32.733,6.424,50.27,9.2,17.392,2.776,37.544,5.221,58.04,5.487,12.767.165,24.853-.517,37.119-.827A585.063,585.063,0,0,1,995.9,86c34.7,4.047,69.652,11.257,102.67,12.735,8.154.366,15.8.381,24.141.98,10.346.741,21.073,2.4,31.521,4.052,75.792,12.013,151.177,24.91,228.5,33.99" transform="translate(34.858 69.829)"/><path class="a" d="M0,2.568C55.778-3.239,167.515,1.7,246.239,8.484c7.289.628,14.5,1.192,21.558,1.892,25.647,2.547,55.154,5.3,85.43,2.332,20.419-2,40.079-6.426,61.134-5.066,30.073,1.944,42.119,11.214,67.4,20.234,2.74.979,5.542,1.952,8.507,2.887A256.558,256.558,0,0,0,528.8,39.3c13.756,2.123,28.081,3.907,43.116,6.527,10.31,1.8,20.786,4.048,31.631,6.4,17.19,3.738,35.695,7.553,53.7,9.647a281.112,281.112,0,0,0,29.474,1.934c20.591.2,40.744-2.168,63.28.415,6.993.807,13.234,2,19.153,3.15,16.962,3.313,32.393,6.625,49.8,9.5,17.264,2.877,37.4,5.416,57.891,5.695,12.761.171,24.82-.537,37.069-.863a573.7,573.7,0,0,1,80.59,3.505c34.683,4.1,69.652,11.411,102.625,12.757,8.145.333,15.759.3,24.1.874,10.347.707,21.088,2.362,31.539,4.015,75.815,11.994,151.23,24.846,228.536,33.992" transform="translate(36.149 64.337)"/><path class="a" d="M0,2.018c56.342-4.965,167.859.037,246.487,6.294,7.27.578,14.467,1.083,21.526,1.722,25.545,2.312,54.935,4.792,85.106,1.75,20.346-2.055,39.983-6.435,60.99-5.164,30.036,1.818,42.616,10.839,68.064,19.828,2.755.973,5.558,1.943,8.516,2.877a268.56,268.56,0,0,0,38.259,8.7c13.642,2.224,27.849,4.122,42.8,6.81,10.248,1.842,20.68,4.118,31.5,6.48,17.167,3.751,35.7,7.535,53.707,9.576a274.476,274.476,0,0,0,29.43,1.817c20.509.1,40.548-2.432,63.05.2,6.98.82,13.184,2.046,19.053,3.228,16.822,3.4,32.048,6.826,49.324,9.8,17.139,2.977,37.253,5.612,57.74,5.9,12.761.18,24.786-.557,37.015-.9A562.876,562.876,0,0,1,993.1,84.454c34.664,4.142,69.653,11.566,102.586,12.779,8.134.3,15.716.221,24.058.766,10.339.674,21.1,2.328,31.547,3.977,75.842,11.977,151.292,24.783,228.571,34" transform="translate(37.441 58.819)"/><path class="a" d="M0,1.5c56.912-4.124,168.208.943,246.743,6.671,7.246.528,14.427.975,21.49,1.553,25.438,2.081,54.715,4.284,84.78,1.169C373.292,8.788,392.9,4.45,413.859,5.633c30,1.691,43.118,10.462,68.724,19.421,2.765.967,5.575,1.936,8.525,2.868a282.134,282.134,0,0,0,37.981,8.864c13.533,2.323,27.616,4.338,42.5,7.1,10.186,1.887,20.578,4.186,31.381,6.555,17.135,3.765,35.705,7.518,53.713,9.507a268.047,268.047,0,0,0,29.387,1.7c20.427-.013,40.35-2.7,62.815-.024,6.971.835,13.133,2.09,18.955,3.306,16.682,3.5,31.708,7.029,48.854,10.107,17.011,3.078,37.1,5.807,57.585,6.107,12.754.185,24.752-.577,36.96-.935a552.359,552.359,0,0,1,80.468,3.523c34.645,4.188,69.653,11.721,102.542,12.8,8.125.268,15.679.141,24.017.658,10.339.64,21.111,2.293,31.565,3.94,75.861,11.956,151.345,24.717,228.605,34" transform="translate(38.73 53.266)"/><path class="a" d="M0,1.034C57.479-2.25,168.549,2.884,246.992,8.081c7.222.478,14.391.868,21.458,1.383,25.333,1.851,54.5,3.78,84.45.588,20.212-2.157,39.8-6.457,60.706-5.363C443.568,6.255,457.222,14.777,483,23.705c2.774.961,5.582,1.927,8.53,2.86a297.955,297.955,0,0,0,37.7,9.027c13.428,2.423,27.387,4.552,42.194,7.38,10.119,1.933,20.467,4.253,31.249,6.63,17.107,3.777,35.713,7.5,53.723,9.436a261.772,261.772,0,0,0,29.342,1.583c20.346-.121,40.153-2.966,62.58-.242,6.962.85,13.088,2.136,18.859,3.382,16.541,3.589,31.366,7.231,48.38,10.411,16.887,3.179,36.953,6,57.434,6.314,12.749.192,24.719-.6,36.91-.972a541.966,541.966,0,0,1,80.4,3.533c34.627,4.235,69.649,11.875,102.5,12.824,8.114.235,15.641.062,23.98.552,10.336.607,21.12,2.258,31.578,3.9,75.884,11.938,151.4,24.654,228.64,34" transform="translate(40.022 47.668)"/><path class="a" d="M0,.624C58.046-1.819,168.9,3.382,247.245,8.048c7.2.43,14.35.761,21.423,1.215,25.221,1.619,54.279,3.274,84.123,0C372.93,7.059,392.5,2.8,413.348,3.806c29.935,1.44,44.121,9.713,70.06,18.61,2.785.957,5.6,1.918,8.536,2.85a316.125,316.125,0,0,0,37.43,9.19c13.319,2.524,27.159,4.768,41.885,7.663,10.057,1.98,20.365,4.323,31.122,6.706,17.079,3.79,35.721,7.483,53.734,9.367a256.462,256.462,0,0,0,29.3,1.467c20.265-.229,39.955-3.234,62.344-.464,6.954.866,13.042,2.184,18.763,3.461,16.4,3.681,31.019,7.432,47.9,10.712,16.762,3.28,36.809,6.2,57.288,6.523,12.743.2,24.681-.616,36.852-1.007a531.967,531.967,0,0,1,80.34,3.539c34.609,4.283,69.65,12.029,102.458,12.848,8.1.2,15.6-.019,23.934.444,10.335.574,21.134,2.223,31.6,3.866,75.9,11.919,151.457,24.59,228.676,34.006" transform="translate(41.313 42.01)"/><path class="a" d="M0,.295c58.618-1.6,169.248,3.666,247.5,7.8,7.174.378,14.3.472,21.386,1.044,25.151,2.03,54.059,2.766,83.8-.576C372.754,6.3,392.319,2.179,413.1,3c29.863,1.183,44.622,9.339,70.725,18.205,2.8.951,5.614,1.909,8.546,2.843A337.341,337.341,0,0,0,529.525,33.4c13.2,2.625,26.926,4.983,41.572,7.948,9.995,2.023,20.258,4.391,31,6.783,17.047,3.8,35.728,7.465,53.74,9.3a250.555,250.555,0,0,0,29.254,1.349c20.18-.337,39.758-3.5,62.109-.683a182.479,182.479,0,0,1,18.671,3.54c16.255,3.774,30.673,7.633,47.427,11.014,16.633,3.38,36.656,6.4,57.132,6.729,12.738.207,24.647-.634,36.8-1.042a522.277,522.277,0,0,1,80.275,3.549c34.59,4.329,69.65,12.183,102.414,12.869,8.094.17,15.562-.1,23.9.338,10.333.542,21.144,2.189,31.6,3.827,75.931,11.9,151.52,24.527,228.716,34.01" transform="translate(42.603 36.273)"/><path class="a" d="M0,.083C59.188-.68,169.456,3.959,247.756,8.261c7.165.393,14.248.366,21.355.876,25.09,1.8,53.838,2.26,83.469-1.159,20-2.312,39.514-6.487,60.266-5.662,29.862,1.186,45.128,8.964,71.4,17.8,2.8.945,5.626,1.9,8.55,2.833a362.657,362.657,0,0,0,36.879,9.516c13.094,2.724,26.7,5.2,41.262,8.232,9.932,2.069,20.155,4.46,30.871,6.859C618.823,51.37,637.541,55,655.55,56.781a244.914,244.914,0,0,0,29.215,1.234c20.1-.447,39.559-3.768,61.878-.9a172.982,172.982,0,0,1,18.569,3.617c16.114,3.866,30.33,7.836,46.951,11.317,16.508,3.482,36.507,6.593,56.981,6.936,12.731.212,24.613-.654,36.747-1.079A513.127,513.127,0,0,1,986.1,81.46c34.572,4.375,69.652,12.339,102.375,12.893,8.084.136,15.52-.178,23.851.231,10.333.507,21.157,2.152,31.622,3.789,75.955,11.881,151.574,24.463,228.748,34.013" transform="translate(43.894 30.417)"/><path class="a" d="M0,0C59.759.077,169.943,5.487,248.013,8.554c7.13.28,14.194.261,21.323.707,25.028,1.568,53.612,1.753,83.137-1.741,19.927-2.362,39.418-6.5,60.122-5.762,29.825,1.06,45.63,8.59,72.062,17.394,2.82.939,5.638,1.893,8.556,2.824,12.821,4.091,24.674,7.082,36.6,9.679,12.985,2.825,26.461,5.411,40.958,8.517,9.865,2.114,20.043,4.527,30.742,6.933,16.987,3.828,35.74,7.43,53.752,9.157a239.436,239.436,0,0,0,29.176,1.116c20.012-.555,39.356-4.034,61.637-1.123a164.477,164.477,0,0,1,18.471,3.7c15.973,3.959,29.982,8.038,46.473,11.621,16.383,3.583,36.363,6.789,56.83,7.143,12.73.218,24.58-.674,36.692-1.116A504.1,504.1,0,0,1,984.7,81.166c34.555,4.422,69.649,12.493,102.332,12.913,8.074.105,15.482-.257,23.813.125,10.325.473,21.163,2.117,31.636,3.752,75.974,11.862,151.633,24.4,228.785,34.016" transform="translate(45.186 24.432)"/><path class="a" d="M0,0C60.33.917,170.294,6.4,248.266,8.931c7.111.232,14.2.336,21.292.537,24.793.71,53.391,1.248,82.809-2.321C372.22,4.733,391.688.638,412.343,1.286c29.793.933,46.134,8.214,72.732,16.987,2.829.933,5.654,1.884,8.565,2.816,12.781,4.087,24.522,7.158,36.328,9.841,12.87,2.928,26.226,5.625,40.643,8.8,9.8,2.159,19.941,4.6,30.615,7.011,16.958,3.84,35.748,7.411,53.763,9.086a234.363,234.363,0,0,0,29.132,1c19.93-.663,39.157-4.3,61.4-1.343A155.956,155.956,0,0,1,763.9,59.258c15.832,4.051,29.638,8.239,46,11.924,16.253,3.683,36.209,6.986,56.673,7.35,12.724.225,24.546-.694,36.642-1.153A495.657,495.657,0,0,1,983.3,80.954c34.531,4.47,69.651,12.648,102.293,12.937,8.06.072,15.439-.338,23.767.017,10.326.44,21.177,2.083,31.654,3.714,76,11.842,151.689,24.334,228.824,34.019" transform="translate(46.477 18.364)"/><path class="a" d="M0,0C60.908,1.76,170.651,7.314,248.529,9.309c7.082.18,14.151.228,21.255.367,24.687.484,53.169.741,82.48-2.9C372.046,4.308,391.49.253,412.09.811c29.761.807,46.643,7.841,73.406,16.583,2.844.928,5.671,1.875,8.575,2.807,12.746,4.083,24.375,7.235,36.049,10.005,12.759,3.027,26,5.84,40.331,9.085,9.741,2.2,19.834,4.665,30.486,7.085,16.931,3.854,35.757,7.395,53.775,9.017a229.127,229.127,0,0,0,29.088.883c19.848-.771,38.958-4.566,61.163-1.561a147.909,147.909,0,0,1,18.277,3.851c15.69,4.142,29.292,8.44,45.519,12.224,16.127,3.784,36.065,7.183,56.522,7.557,12.718.232,24.512-.712,36.588-1.186A487,487,0,0,1,981.9,80.743c34.513,4.516,69.652,12.8,102.25,12.958,8.054.04,15.4-.417,23.729-.089,10.323.406,21.188,2.048,31.663,3.677,76.027,11.824,151.753,24.27,228.865,34.023" transform="translate(47.767 12.296)"/><path class="a" d="M0,0C61.481,2.6,171,8.226,248.783,9.684c7.063.132,14.115.124,21.224.2,24.582.261,52.951.235,82.151-3.486,19.709-2.515,39.134-6.529,59.681-6.06,29.724.678,47.148,7.465,74.082,16.176,2.85.921,5.683,1.866,8.576,2.8,12.71,4.08,24.227,7.31,35.773,10.167,12.65,3.13,25.764,6.055,40.021,9.37,9.677,2.25,19.73,4.733,30.362,7.161,16.9,3.866,35.76,7.376,53.781,8.946a224.33,224.33,0,0,0,29.044.767c19.761-.881,38.759-4.834,60.926-1.783a141.083,141.083,0,0,1,18.18,3.931c15.548,4.234,28.943,8.643,45.04,12.527,16,3.885,35.916,7.378,56.374,7.765,12.713.239,24.474-.733,36.529-1.224a478.809,478.809,0,0,1,79.964,3.593c34.494,4.561,69.653,12.955,102.211,12.98,8.039.006,15.359-.5,23.683-.2,10.323.373,21.2,2.013,31.68,3.639,76.047,11.8,151.811,24.207,228.9,34.027" transform="translate(49.058 6.23)"/><path class="a" d="M0,.163C62.057,3.6,171.364,9.3,249.043,10.224c7.039.084,14.079.019,21.188.03,24.481.037,52.729-.273,81.822-4.067C371.694,3.619,391.09-.354,411.588.025c29.687.552,47.655,7.092,74.754,15.771,2.865.917,5.694,1.858,8.586,2.789,12.67,4.077,24.08,7.387,35.492,10.33,12.535,3.232,25.533,6.27,39.714,9.654,9.61,2.3,19.623,4.8,30.229,7.239a393.7,393.7,0,0,0,53.792,8.876,218.265,218.265,0,0,0,29,.649c19.7-.974,38.564-5.1,60.688-2a134.7,134.7,0,0,1,18.082,4.007c15.4,4.327,28.6,8.845,44.564,12.831,15.871,3.986,35.761,7.574,56.218,7.972,12.707.245,24.44-.753,36.478-1.26a470.982,470.982,0,0,1,79.9,3.6c34.476,4.609,69.65,13.111,102.168,13,8.03-.025,15.321-.577,23.646-.3,10.319.34,21.211,1.978,31.695,3.6,76.071,11.785,151.871,24.143,228.943,34.029" transform="translate(50.35 0)"/></g></svg>